<?xml version="1.0" encoding="utf-8"?>
<!-- Generator: Adobe Illustrator 23.0.1, SVG Export Plug-In . SVG Version: 6.00 Build 0)  -->
<svg version="1.1" id="Layer_1" xmlns="http://www.w3.org/2000/svg" xmlns:xlink="http://www.w3.org/1999/xlink" x="0px" y="0px"
	 width="136px" height="92px" viewBox="0 0 134 96" style="enable-background:new 0 0 134 96;" xml:space="preserve">
<style type="text/css">
	.st0{fill:#FFFFFF;}
	.st1{fill:#231F20;}
</style>
<path class="st0" d="M67,58.1c-15.5,0-28.1-12.6-28.1-28.1C38.9,14.5,51.5,1.9,67,1.9c15.5,0,28.1,12.6,28.1,28.1
	C95.1,45.5,82.5,58.1,67,58.1z"/>
<g>
	<g>
		<g>
			<path class="st1" d="M84.8,89.2h0.8v1.2c0.6,0.8,1.2,1.1,1.9,1.1c0.9,0,1.6-0.7,1.6-1.5c0-1.6-2.2-1.9-3.5-3.2
				c-0.6-0.6-0.9-1.3-0.9-1.9c0-1.2,1-2.4,2.7-2.4c0.7,0,1.3,0.1,1.8,0.5v-0.5h0.8V85h-0.8v-1c-0.4-0.5-1-0.8-1.6-0.8
				c-1.1,0-1.5,0.6-1.5,1.4c0,1.5,2.2,1.7,3.5,3.1c0.6,0.6,0.8,1.1,0.8,1.9c0,1.6-1.1,2.7-2.8,2.7c-0.7,0-1.3-0.2-2-0.7v0.7h-0.8
				V89.2z"/>
			<path class="st1" d="M93,87.6c0.1-1.1,0.5-1.7,1.3-1.7c0.8,0,1.4,0.6,1.5,1.7H93z M97.3,88.3c-0.3-1.9-1.3-3-2.9-3
				c-1.8,0-3,1.3-3,3.3c0,1.8,1.2,3.7,3.5,3.7c0.9,0,1.4-0.2,2.5-0.8l0.1-0.7c-0.8,0.5-1.5,0.8-2.2,0.8c-1.4,0-2.3-1.3-2.3-3.2H97.3
				z"/>
			<path class="st1" d="M98.1,91.4h1.2v-5.3h-1.2v-0.6h2.6v1.1h0c0.8-1,1.2-1.3,1.6-1.3c0.4,0,0.7,0.2,1.1,0.6
				c-0.1,0.7-0.3,1.2-0.6,1.6c-0.4-0.7-0.6-0.9-1-0.9c-0.4,0-0.8,0.3-1.1,0.8v4h1.2v0.6h-3.8V91.4z"/>
			<path class="st1" d="M104,85.5h3.3v0.6h-0.9l1.6,3.7l1.3-3.7h-1v-0.6h2.5v0.6H110l-2.2,6.1h-0.3l-2.6-6.1H104V85.5z"/>
			<path class="st1" d="M111.5,91.4h1.2v-5.3h-1.2v-0.6h2.6v5.9h1.1v0.6h-3.7V91.4z M114.4,83.2c0,0.5-0.4,0.9-0.9,0.9
				c-0.5,0-0.9-0.4-0.9-0.9c0-0.5,0.4-0.9,0.9-0.9C114,82.3,114.4,82.7,114.4,83.2z"/>
			<path class="st1" d="M121.4,87.4h-0.5c-0.2-1-0.9-1.4-1.6-1.4c-1.1,0-1.8,0.8-1.8,2.5c0,1.9,0.7,3,2.1,3c1.1,0,1.7-0.7,1.9-0.7
				c0.1,0,0.2,0.3,0.2,0.4c0,0.3-1.1,1.2-2.6,1.2c-1.9,0-3.3-1.6-3.3-3.6c0-1.9,1.3-3.3,3.2-3.3c0.6,0,1,0.1,1.7,0.4l0.1-0.4h0.5
				V87.4z"/>
			<path class="st1" d="M124.1,87.6c0.1-1.1,0.5-1.7,1.3-1.7c0.8,0,1.4,0.6,1.5,1.7H124.1z M128.5,88.3c-0.3-1.9-1.3-3-2.9-3
				c-1.8,0-3,1.3-3,3.3c0,1.8,1.2,3.7,3.5,3.7c0.9,0,1.4-0.2,2.5-0.8l0.1-0.7c-0.8,0.5-1.5,0.8-2.2,0.8c-1.4,0-2.3-1.3-2.3-3.2
				H128.5z"/>
			<path class="st1" d="M129.5,90.1h0.3c0.2,1,1,1.6,1.7,1.6c0.7,0,1.2-0.3,1.2-0.9c0-1-1.6-1-2.7-2.1c-0.4-0.4-0.6-0.9-0.6-1.4
				c0-1.1,1-1.9,2.2-1.9c0.5,0,0.8,0.1,1.3,0.4v-0.4h0.5v1.7h-0.4c-0.2-0.7-0.7-1.1-1.4-1.1c-0.6,0-1,0.4-1,0.9
				c0,0.9,1.7,1.2,2.7,2.2c0.4,0.4,0.6,0.8,0.6,1.3c0,1.1-0.9,1.9-2.2,1.9c-0.6,0-1-0.1-1.7-0.5l-0.1,0.5h-0.5V90.1z"/>
			<path class="st1" d="M0,91.3h1.3v-7.9H0v-0.8h4.2v0.8H2.8v7.9h1.3v0.8H0V91.3z"/>
			<path class="st1" d="M5.1,91.4h1.2v-5.3H5.1v-0.6h2.6v0.8c1-0.5,1.8-0.9,2.6-0.9c0.8,0,1.4,0.4,1.6,1.1c0.7-0.5,1.8-1.1,2.7-1.1
				c1.2,0,1.9,0.8,1.9,2.2v3.9h1.2v0.6H14v-0.6h1.1v-3.5c0-1.1-0.4-1.7-1.2-1.7c-0.5,0-1.1,0.3-1.7,0.7v4.5h1.2v0.6H9.6v-0.6h1.1
				v-3.3c0-1.1-0.2-1.9-1.2-1.9c-0.6,0-1,0.3-1.8,0.7v4.5h1.1v0.6H5.1V91.4z"/>
			<path class="st1" d="M18.3,91.4h1.2v-5.3h-1.2v-0.6h2.6v0.8c1-0.5,1.8-0.9,2.6-0.9c0.8,0,1.4,0.4,1.6,1.1
				c0.7-0.5,1.8-1.1,2.7-1.1c1.2,0,1.9,0.8,1.9,2.2v3.9h1.2v0.6h-3.7v-0.6h1.1v-3.5c0-1.1-0.4-1.7-1.2-1.7c-0.5,0-1.1,0.3-1.7,0.7
				v4.5h1.2v0.6h-3.7v-0.6h1.1v-3.3c0-1.1-0.2-1.9-1.2-1.9c-0.6,0-1,0.3-1.8,0.7v4.5H22v0.6h-3.7V91.4z"/>
			<path class="st1" d="M31.4,91.4h1.2v-5.3h-1.2v-0.6H34v5.9h1.1v0.6h-3.7V91.4z M34,83.2c0,0.5-0.4,0.9-0.9,0.9
				c-0.5,0-0.9-0.4-0.9-0.9c0-0.5,0.4-0.9,0.9-0.9C33.6,82.3,34,82.7,34,83.2z"/>
			<path class="st1" d="M37.2,87.8c0-1.2,0.5-1.9,1.4-1.9c0.9,0,1.4,0.7,1.4,2c0,1.2-0.5,1.9-1.4,1.9C37.7,89.8,37.2,89.1,37.2,87.8
				z M42.1,85.5H40c-0.2,0-0.4,0-0.6-0.1c-0.2,0-0.5-0.1-0.9-0.1c-1.6,0-2.8,1-2.8,2.5c0,1.3,0.8,2.1,2.2,2.5v0l-0.2,0
				c-0.8,0.2-1.1,0.6-1.1,1c0,0.4,0.3,0.8,0.8,1.1c-1.3,0.5-2,1-2,1.7c0,0.8,1.2,1.8,3.3,1.8c2,0,3.3-0.8,3.3-2.2
				c0-0.4-0.1-0.7-0.4-1.1c-1-1-3.6-1-3.6-1.8c0-0.1,0-0.1,0.1-0.2c0.5-0.5,1.6-0.1,2.8-1.3c0.5-0.5,0.7-1.1,0.7-1.7
				c0-0.6-0.2-1.1-0.7-1.6h1.2V85.5z M37.9,92.8c2.1,0.6,2.8,0.9,2.8,1.5c0,0.3-0.2,0.5-0.5,0.6c-0.3,0.1-0.9,0.2-1.5,0.2
				c-1.1,0-1.9-0.4-1.9-1.1C36.8,93.6,37.1,93.2,37.9,92.8z"/>
			<path class="st1" d="M42.7,91.4h1.2v-5.3h-1.2v-0.6h2.6v1.1h0c0.8-1,1.2-1.3,1.6-1.3c0.4,0,0.7,0.2,1.1,0.6
				c-0.1,0.7-0.3,1.2-0.6,1.6c-0.4-0.7-0.6-0.9-1-0.9c-0.4,0-0.8,0.3-1.1,0.8v4h1.2v0.6h-3.8V91.4z"/>
			<path class="st1" d="M51.9,89v1.8c-0.4,0.3-0.8,0.5-1.1,0.5c-0.5,0-0.9-0.4-0.9-0.9C49.9,89.7,50.5,89.3,51.9,89z M48.9,86.9
				c0.8-0.5,1.4-0.7,1.9-0.7c0.9,0,1.1,0.5,1.1,1.3v0.9l-1.5,0.4c-1.3,0.3-1.8,0.9-1.8,1.8c0,1,0.7,1.7,1.5,1.7c0.6,0,1.1-0.4,1.9-1
				c0.3,0.7,0.7,1,1.2,1c0.5,0,0.9-0.2,1.4-0.5v-0.4c-0.1,0-0.6,0.1-0.7,0.1c-0.4,0-0.7-0.4-0.7-1.1v-2.7c0-1.4-0.8-2.3-2.1-2.3
				c-0.8,0-1.7,0.4-2.5,1.1L48.9,86.9z"/>
			<path class="st1" d="M54.5,86.1l2.4-2.4v1.8h1.9v0.6h-1.9V90c0,1,0.3,1.5,0.9,1.5c0.6,0,0.9-0.5,1.1-0.5c0.1,0,0.2,0.1,0.2,0.2
				c0,0.2-0.6,1.1-1.7,1.1c-1.2,0-1.9-0.8-1.9-2.2v-3.9H54.5z"/>
			<path class="st1" d="M59.7,91.4h1.2v-5.3h-1.2v-0.6h2.6v5.9h1.1v0.6h-3.7V91.4z M62.3,83.2c0,0.5-0.4,0.9-0.9,0.9
				c-0.5,0-0.9-0.4-0.9-0.9c0-0.5,0.4-0.9,0.9-0.9C61.9,82.3,62.3,82.7,62.3,83.2z"/>
			<path class="st1" d="M65.5,88.8c0-1.8,0.8-2.8,2-2.8c1.3,0,2,1.1,2,2.8c0,1.8-0.7,2.8-2,2.8C66.2,91.6,65.5,90.6,65.5,88.8z
				 M63.8,88.8c0,2,1.6,3.5,3.6,3.5c2,0,3.6-1.5,3.6-3.5c0-2-1.6-3.5-3.6-3.5C65.4,85.3,63.8,86.8,63.8,88.8z"/>
			<path class="st1" d="M71.6,91.4h1.2v-5.3h-1.2v-0.6h2.7v0.7c0.8-0.6,1.6-0.9,2.4-0.9c1,0,1.8,0.7,1.8,1.9v4.2h1.2v0.6h-3.7v-0.6
				h1v-3.9c0-0.9-0.5-1.4-1.2-1.4c-0.5,0-1.1,0.3-1.6,0.7v4.6h1.1v0.6h-3.7V91.4z"/>
		</g>
		<g>
			<path class="st1" d="M4.4,68.5h4.1v0.8H7.2v4.8c0,2.3,1.1,3.3,2.5,3.3c1.3,0,2.5-0.8,2.5-3.4v-4.7h-1.3v-0.8h3.9v0.8h-1.3v4.9
				c0,2.5-1.4,3.9-3.9,3.9c-2.4,0-4-1.1-4-4.2v-4.6H4.4V68.5z"/>
			<path class="st1" d="M16.5,77.1c0,0.6-0.5,1-1,1c-0.6,0-1-0.5-1-1c0-0.6,0.5-1,1-1C16.1,76.1,16.5,76.6,16.5,77.1z"/>
			<path class="st1" d="M19,75.1h0.8v1.2c0.6,0.8,1.2,1.1,1.9,1.1c0.9,0,1.6-0.7,1.6-1.5c0-1.6-2.2-1.9-3.5-3.2
				c-0.6-0.6-0.9-1.3-0.9-1.9c0-1.2,1-2.4,2.7-2.4c0.7,0,1.3,0.1,1.8,0.5v-0.5h0.8v2.6h-0.8v-1c-0.4-0.5-1-0.8-1.6-0.8
				c-1.1,0-1.5,0.6-1.5,1.4c0,1.5,2.2,1.7,3.5,3.1c0.6,0.6,0.8,1.1,0.8,1.9c0,1.6-1.1,2.7-2.8,2.7c-0.7,0-1.3-0.2-2-0.7v0.7H19V75.1
				z"/>
			<path class="st1" d="M28.2,77.1c0,0.6-0.5,1-1,1c-0.6,0-1-0.5-1-1c0-0.6,0.5-1,1-1C27.8,76.1,28.2,76.6,28.2,77.1z"/>
			<path class="st1" d="M40.4,76.4c-0.9,0.8-2.1,1.1-3.4,1.1c-2.8,0-4.8-2.1-4.8-4.8c0-2.9,2.1-5,5-5c0.8,0,1.5,0.1,2.3,0.4l0.1-0.5
				H40v2.8h-0.7c-0.3-1.2-1.1-1.8-2.3-1.8c-1.8,0-3,1.6-3,4c0,2.5,1.4,4.2,3.4,4.2c0.9,0,1.9-0.3,3-1.1V76.4z"/>
			<path class="st1" d="M41.2,76.7h1.2v-5.3h-1.2v-0.6h2.6v5.9h1.1v0.6h-3.7V76.7z M43.8,68.4c0,0.5-0.4,0.9-0.9,0.9
				c-0.5,0-0.9-0.4-0.9-0.9c0-0.5,0.4-0.9,0.9-0.9C43.4,67.5,43.8,68,43.8,68.4z"/>
			<path class="st1" d="M45.6,71.4L48,69v1.8h1.9v0.6H48v3.8c0,1,0.3,1.5,0.9,1.5c0.6,0,0.9-0.5,1.1-0.5c0.1,0,0.2,0.1,0.2,0.2
				c0,0.2-0.6,1.1-1.7,1.1c-1.2,0-1.9-0.8-1.9-2.2v-3.9H45.6z"/>
			<path class="st1" d="M50.8,76.7h1.2v-5.3h-1.2v-0.6h2.6v5.9h1.1v0.6h-3.7V76.7z M53.4,68.4c0,0.5-0.4,0.9-0.9,0.9
				c-0.5,0-0.9-0.4-0.9-0.9c0-0.5,0.4-0.9,0.9-0.9C53,67.5,53.4,68,53.4,68.4z"/>
			<path class="st1" d="M55.2,70.8h5.5V71L57,76.7h3.4v-1.1h0.6v1.8H55v-0.3l3.7-5.7h-2.9v0.9h-0.6V70.8z"/>
			<path class="st1" d="M63.2,72.9c0.1-1.1,0.5-1.7,1.3-1.7c0.8,0,1.4,0.6,1.5,1.7H63.2z M67.6,73.5c-0.3-1.9-1.3-3-2.9-3
				c-1.8,0-3,1.3-3,3.3c0,1.8,1.2,3.7,3.5,3.7c0.9,0,1.4-0.2,2.5-0.8l0.1-0.7c-0.8,0.5-1.5,0.8-2.2,0.8c-1.4,0-2.3-1.3-2.3-3.2H67.6
				z"/>
			<path class="st1" d="M68.3,76.7h1.2v-5.3h-1.2v-0.6H71v0.7c0.8-0.6,1.6-0.9,2.5-0.9c1,0,1.8,0.7,1.8,1.9v4.2h1.2v0.6h-3.7v-0.6h1
				v-3.9c0-0.9-0.5-1.4-1.2-1.4c-0.5,0-1.1,0.2-1.6,0.7v4.5h1.1v0.6h-3.7V76.7z"/>
			<path class="st1" d="M77.2,75.3h0.3c0.2,1,1,1.6,1.7,1.6c0.7,0,1.2-0.3,1.2-0.9c0-1-1.5-1-2.7-2.1c-0.4-0.4-0.6-0.9-0.6-1.4
				c0-1.1,1-1.9,2.2-1.9c0.5,0,0.8,0.1,1.3,0.4v-0.4h0.5v1.7h-0.4c-0.2-0.7-0.7-1.1-1.4-1.1c-0.6,0-1,0.4-1,0.9
				c0,0.9,1.7,1.2,2.7,2.2c0.4,0.4,0.6,0.8,0.6,1.3c0,1.1-0.9,1.9-2.2,1.9c-0.6,0-1-0.1-1.7-0.5l-0.1,0.5h-0.5V75.3z"/>
			<path class="st1" d="M82.2,76.7h1.2v-9.1h-1.2V67h2.7v4.5c0.7-0.5,1.5-0.9,2.4-0.9c1,0,1.9,0.6,1.9,2v4.2h1.1v0.6h-3.7v-0.6h1.1
				v-3.9c0-0.9-0.5-1.4-1.2-1.4c-0.5,0-1,0.2-1.6,0.7v4.6h1.1v0.6h-3.7V76.7z"/>
			<path class="st1" d="M91,76.7h1.2v-5.3H91v-0.6h2.6v5.9h1.1v0.6H91V76.7z M93.6,68.4c0,0.5-0.4,0.9-0.9,0.9
				c-0.5,0-0.9-0.4-0.9-0.9c0-0.5,0.4-0.9,0.9-0.9C93.2,67.5,93.6,68,93.6,68.4z"/>
			<path class="st1" d="M98,72.2c0.6-0.6,0.9-0.9,1.5-0.9c1.1,0,1.8,1.2,1.8,3c0,1.4-0.6,2.6-1.7,2.6c-0.6,0-1.2-0.4-1.6-0.9V72.2z
				 M95.4,81.2h3.8v-0.6H98V77c0.5,0.4,1.1,0.6,1.7,0.6c2.5,0,3.2-2,3.2-3.6c0-2.4-1.6-3.4-3-3.4c-0.4,0-0.7,0.1-1,0.2
				c-0.3,0.1-0.6,0.3-0.9,0.6v-0.6h-2.6v0.6h1.2v9.1h-1.2V81.2z"/>
			<path class="st1" d="M107.3,71.7c0.8-0.7,1.7-1.1,2.5-1.1c1.3,0,2.1,0.9,2.1,2.3v2.7c0,0.7,0.3,1.1,0.7,1.1
				c0.1,0,0.5-0.1,0.7-0.1V77c-0.5,0.3-1,0.5-1.4,0.5c-0.5,0-0.9-0.3-1.2-1c-0.8,0.6-1.4,1-1.9,1c-0.9,0-1.5-0.8-1.5-1.7
				c0-1,0.5-1.5,1.8-1.8l1.5-0.4v-0.9c0-0.8-0.2-1.3-1.1-1.3c-0.5,0-1.1,0.2-1.9,0.7L107.3,71.7z M108.5,75.6c0,0.5,0.4,0.9,0.9,0.9
				c0.3,0,0.7-0.2,1.1-0.5v-1.8C109.1,74.6,108.5,75,108.5,75.6z"/>
			<path class="st1" d="M113.7,76.7h1.2v-5.3h-1.2v-0.6h2.7v0.7c0.8-0.6,1.6-0.9,2.4-0.9c1,0,1.8,0.7,1.8,1.9v4.2h1.2v0.6h-3.7v-0.6
				h1v-3.9c0-0.9-0.5-1.4-1.2-1.4c-0.5,0-1.1,0.3-1.6,0.7v4.5h1.1v0.6h-3.7V76.7z"/>
			<path class="st1" d="M127,76.7h-0.6c-1.6,0-2.7-0.7-2.7-2.8c0-1.6,0.7-2.5,1.8-2.5c0.5,0,1.1,0.3,1.5,0.7V76.7z M125.9,67.6h1.2
				v3.8c-0.6-0.5-1.3-0.8-2-0.8c-1.6,0-2.9,1.5-2.9,3.4c0,2.1,1.5,3.4,3.8,3.4h3.8v-0.6h-1.2V67h-2.6V67.6z"/>
		</g>
	</g>
	<g>
		<g>
			<path class="st1" d="M85.2,19.2c-0.3,0.1-0.7,0.2-1,0.3c1.9,3.1,2.9,6.7,2.9,10.5c0,11.1-9,20.2-20.2,20.2
				c-11.1,0-20.2-9-20.2-20.2c0-4,1.2-7.8,3.2-10.9c-0.3-0.1-0.6-0.2-1-0.4C47,22,45.8,25.9,45.8,30c0,11.7,9.5,21.2,21.2,21.2
				c11.7,0,21.2-9.5,21.2-21.2C88.2,26.1,87.1,22.4,85.2,19.2z"/>
			<path class="st1" d="M55.3,13.6c3.3-2.4,7.4-3.8,11.7-3.8c4.9,0,9.4,1.7,12.9,4.6c0.4-0.1,0.8-0.2,1.2-0.3
				c-3.7-3.3-8.6-5.3-14-5.3c-4.8,0-9.3,1.6-12.8,4.3c0.2,0.1,0.3,0.1,0.5,0.2C54.9,13.4,55.1,13.5,55.3,13.6z"/>
		</g>
		<path class="st1" d="M67,0C50.4,0,37,13.4,37,30c0,16.6,13.4,30,30,30c16.6,0,30-13.4,30-30C97,13.4,83.6,0,67,0z M67,58.1
			c-15.5,0-28.1-12.6-28.1-28.1C38.9,14.5,51.5,1.9,67,1.9c15.5,0,28.1,12.6,28.1,28.1C95.1,45.5,82.5,58.1,67,58.1z"/>
		<g>
			<path class="st1" d="M59.8,24c-0.4-0.2-0.8-0.5-1.2-0.8c-1.3-1.2-1.6-2.4-1.2-3.8c0.2-0.8,0.6-1.3,0.5-2.1
				c-0.1-0.5-0.4-0.9-0.8-1.3c-0.9-0.8-1.9-1.3-3.4-1.8c-0.9-0.3-3.6-1.2-4.8-2.2c-0.3,0.8,0.3,1.9,1,2c-0.6,0.1-1.1,0.4-1.4,0.7
				c0.5,0.5,1.4,1.1,2.1,1.1c-0.4,0.2-0.8,0.7-0.9,1c0.7,0.3,1.7,0.6,2.5,0.6c-0.3,0.3-0.6,0.6-0.8,0.9c0.5,0.2,1.6,0.6,2.6,0.7
				c-0.4,0.2-0.9,0.8-1.2,1.2c0.6,0.3,1.8,0.4,2.6,0.5c-0.5,0.3-1.1,0.9-1.4,1.4c0.6,0.3,1.6,0.6,2.4,0.5c-0.4,0.4-0.7,0.9-0.9,1.4
				c0.6,0.1,1.3,0.1,2.1,0c-0.5,0.6-0.7,1.4-0.7,2c0.6,0,1.5-0.2,2.1-0.5c-0.1,0.5-0.1,1.1,0.1,1.6c0.2-0.1,0.5-0.2,0.9-0.3
				C59.8,25.7,59.8,24.7,59.8,24z"/>
			<path class="st1" d="M85.6,13.3c-1.2,1.1-3.1,1.4-5.1,2c-1.5,0.5-2.4,0.8-3.8,1.9c-0.4,0.3-0.8,0.8-0.7,1.5
				c0,0.9,0.2,1.2,0.2,2.4c0,0.9-0.3,1.6-0.6,2c-0.4,0.4-0.9,0.8-1.3,1c0,0.7-0.1,1.5-0.1,2.3c0.3,0.2,0.7,0.3,1,0.4
				c0.2-0.5,0.2-1.1,0.1-1.6c0.6,0.4,1.4,0.5,2.1,0.5c-0.1-0.6-0.3-1.4-0.7-2c0.8,0.1,1.5,0.1,2.1,0c-0.2-0.5-0.4-1-0.9-1.4
				c0.8,0,1.9-0.3,2.4-0.5c-0.3-0.5-0.9-1.1-1.4-1.4c0.8-0.1,2-0.2,2.6-0.5c-0.3-0.4-0.8-1-1.2-1.2c1-0.1,2.1-0.4,2.6-0.7
				c-0.2-0.3-0.5-0.7-0.8-0.9c0.9-0.1,1.8-0.2,2.5-0.6c-0.1-0.3-0.6-0.8-0.9-1C85.6,15.1,85.6,14.1,85.6,13.3z"/>
			<path class="st1" d="M77.1,15.4c-2.9-2-6.4-3.2-10.1-3.2c-3.4,0-6.6,1-9.3,2.7c0.7,0.5,1.1,1.1,1.2,1.7c0.1,0.5,0.2,1.2-0.2,2.1
				c-0.3,1-0.5,2,0.2,3c0.7,1,1.7,1.5,2.4,1.6l0,0c1-0.2,2.1-0.3,3.3-0.4l0,0c0.1-0.5,0.6-0.9,1-1.2c0.6-0.5,0.5-0.9,0.3-1.3
				c-0.1-0.3-0.3-0.5-0.7-0.6c-0.3-0.1-1.3-0.3-1.3,0.4c-0.2-0.2-0.3-0.6-0.2-1c0.1-0.6,1.1-0.7,1.3-0.7c-0.2-0.2-0.1-0.4,0.3-0.5
				c0.5-0.1,1-0.2,1.4-0.1c0.9,0,1.1,0.3,1.6,0.7c0.6,0.5,1.3,0.7,1.7,0.4c-0.2,0.5-0.9,0.8-1.4,0.7c0.2,0.7,0.3,1.3,0.4,2
				c0,0.3,0.1,0.9,0.2,1.3c1.3,0.1,2.6,0.3,3.7,0.5l0,0c0.5-0.1,0.9-0.4,1.4-0.9c0.4-0.5,0.8-1.1,0.6-2.6c0-0.4-0.3-1.5-0.2-2
				C74.9,16.8,75.8,16.1,77.1,15.4z"/>
			<path class="st1" d="M65.3,18.6c0.2,0.1,0.3,0.1,0.3,0.1c0,0,0.1,0.1,0.1,0.1c0,0,0.1,0.1,0.1,0.1c0.1,0,0.3-0.1,0.5-0.2
				c0.2-0.1,0.5-0.2,0.5-0.2C65.9,18.4,65.8,18.7,65.3,18.6z"/>
		</g>
		<g>
			<g>
				<path class="st1" d="M66.5,32.6l-0.4-0.2l-0.2-0.6l-0.5-0.2l-0.6-0.5l-0.3,0.4L64,31.6L63.7,32l-0.4,0.4l-0.6,0.3l-0.4,0.7
					l-0.2,0.3L61.7,34l-0.2-0.2L61.3,34L61,34.5c-0.1-0.4-0.2-0.7-0.3-1.3c-0.1-1.2-0.2-2.6-0.2-4.1c1.9-0.4,4.3-0.7,6.3-0.7v4.5
					C66.7,32.9,66.6,32.8,66.5,32.6z"/>
				<path class="st1" d="M66.8,34.8h-5.7c0.1,0.2,0.2,0.3,0.3,0.5c0.4,0.6,1,1,1.7,1.2c1,0.3,1.6,0.5,2.1,0.7l0.6,0.2
					c0.5,0.1,0.8,0.3,1,0.6V34.8z"/>
				<path class="st1" d="M72.8,32.6c0.2-0.1,0.3-0.3,0.6-0.4c0-0.5,0.1-1.1,0.1-1.7c-0.1,0-0.1,0.1-0.2,0.2
					c-0.3,0.2-0.6,0.5-1.2,0.5c-0.6,0-0.9-0.2-1.2-0.4c-0.2-0.1-0.4-0.3-0.7-0.3c-0.3,0-0.6,0.2-0.9,0.3c-0.3,0.2-0.6,0.4-1.1,0.4
					c-0.4,0-0.7-0.1-1-0.3v1.6c0.1,0,0.1,0.1,0.2,0.1c0.3,0.2,0.5,0.3,0.8,0.3c0.2,0,0.4-0.1,0.7-0.3c0.3-0.2,0.7-0.4,1.2-0.4
					c0.5,0,0.8,0.2,1.1,0.4c0.3,0.2,0.5,0.3,0.8,0.3C72.4,32.9,72.6,32.8,72.8,32.6z"/>
				<path class="st1" d="M68.2,36.2c-0.4,0-0.7-0.1-1-0.3v2c0.2-0.2,0.5-0.4,1-0.6l0.6-0.2c0.5-0.1,1.1-0.3,2.1-0.7
					c0.3-0.1,0.6-0.2,0.8-0.4c-0.4-0.1-0.6-0.2-0.9-0.4c-0.2-0.1-0.4-0.3-0.7-0.3c-0.3,0-0.6,0.2-0.9,0.3C69,36,68.6,36.2,68.2,36.2
					z"/>
				<path class="st1" d="M72.8,30.1c0.2-0.2,0.4-0.3,0.7-0.4c0-0.2,0-0.4,0-0.6c-1.9-0.4-4.3-0.7-6.3-0.7v1.7c0.1,0,0.1,0.1,0.2,0.1
					c0.3,0.2,0.5,0.3,0.8,0.3c0.2,0,0.4-0.1,0.7-0.3c0.3-0.2,0.7-0.4,1.2-0.4c0.5,0,0.8,0.2,1.1,0.4c0.3,0.2,0.5,0.3,0.8,0.3
					C72.4,30.5,72.6,30.3,72.8,30.1z"/>
				<path class="st1" d="M67.2,33.4v1.7c0.1,0,0.1,0.1,0.2,0.1c0.3,0.2,0.5,0.3,0.8,0.3c0.2,0,0.4-0.1,0.7-0.3
					c0.3-0.2,0.7-0.4,1.2-0.4c0.5,0,0.8,0.2,1.1,0.4c0.3,0.2,0.5,0.3,0.8,0.3c0.3,0,0.4-0.1,0.6-0.2c0.4-0.5,0.6-1.2,0.6-2
					c0,0,0-0.1,0-0.1c0,0,0,0,0,0c-0.3,0.2-0.6,0.5-1.2,0.5c-0.6,0-0.9-0.2-1.2-0.4c-0.2-0.1-0.4-0.3-0.7-0.3
					c-0.3,0-0.6,0.2-0.9,0.3c-0.3,0.2-0.6,0.4-1.1,0.4C67.8,33.7,67.5,33.6,67.2,33.4z"/>
			</g>
			<path class="st1" d="M67,23.3c-2.1,0-4.8,0.3-6.8,0.8c0,1.3,0.1,3,0.2,4.7c1.9-0.4,4.4-0.7,6.6-0.7c2.2,0,4.7,0.3,6.6,0.7
				c0.1-1.7,0.2-3.3,0.2-4.7C71.8,23.6,69.1,23.3,67,23.3z M72,24.6l0.1-0.3l0,0.4l0.4,0l-0.3,0.2l0.1,0.4L72,24.9L71.7,25l0.2-0.3
				l-0.3-0.2L72,24.6z M70.3,24.3l0.1-0.3l0.1,0.4l0.4,0l-0.3,0.2l0.1,0.4l-0.3-0.3L70,24.8l0.2-0.3l-0.3-0.2L70.3,24.3z M68.6,24.2
				l0.1-0.3l0.1,0.4l0.4,0l-0.3,0.2l0.1,0.4l-0.3-0.2l-0.3,0.2l0.1-0.3l-0.3-0.2L68.6,24.2z M66.9,24.2l0.1-0.4l0.1,0.4l0.4,0
				l-0.3,0.2l0.1,0.3L67,24.4l-0.3,0.2l0.1-0.3l-0.3-0.2L66.9,24.2z M65.2,24.2l0.1-0.4l0.1,0.3l0.4,0l-0.3,0.2l0.2,0.3l-0.3-0.2
				l-0.3,0.2l0.1-0.3l-0.3-0.2L65.2,24.2z M63.5,24.4l0.1-0.4l0.1,0.3l0.4-0.1l-0.3,0.2l0.2,0.3l-0.3-0.2l-0.3,0.3l0.1-0.4l-0.3-0.2
				L63.5,24.4z M61.9,24.6l0-0.4l0.1,0.3l0.4-0.1l-0.3,0.2l0.2,0.3L62,24.9l-0.2,0.3l0.1-0.4l-0.3-0.2L61.9,24.6z M61.2,26.5
				l0.1-0.4L60.9,26l0.4,0l0-0.4l0.2,0.3l0.4-0.1l-0.3,0.2l0.2,0.3l-0.3-0.2L61.2,26.5z M62.6,27.7l-0.3-0.2L62,27.8l0.1-0.4
				l-0.3-0.2l0.4,0l0-0.4l0.1,0.3l0.4-0.1l-0.3,0.2L62.6,27.7z M63,26l-0.2,0.3l0.1-0.4l-0.3-0.2l0.4,0l0-0.4l0.1,0.3l0.4-0.1
				l-0.3,0.2l0.2,0.3L63,26z M64.2,27.5l-0.3-0.2l-0.3,0.3l0.1-0.4l-0.3-0.2l0.4,0l0.1-0.4l0.1,0.3l0.4-0.1L64,27.2L64.2,27.5z
				 M64.6,25.8l-0.3,0.3l0.1-0.4l-0.3-0.2l0.4,0l0.1-0.4l0.1,0.3l0.4,0l-0.3,0.2l0.2,0.3L64.6,25.8z M65.7,27.4l-0.3-0.2l-0.3,0.2
				l0.1-0.3L65,26.9l0.4,0l0.1-0.4l0.1,0.3l0.4,0l-0.3,0.2L65.7,27.4z M66.2,25.7L66,26l0.1-0.3l-0.3-0.2l0.4,0l0.1-0.4l0.1,0.4
				l0.4,0l-0.3,0.2l0.1,0.3L66.2,25.7z M67.3,27.4l-0.3-0.2l-0.3,0.2l0.1-0.3l-0.3-0.2l0.4,0l0.1-0.4l0.1,0.4l0.4,0l-0.3,0.2
				L67.3,27.4z M67.8,25.7l-0.3,0.2l0.1-0.3l-0.3-0.2l0.4,0l0.1-0.3l0.1,0.4l0.4,0L68,25.6l0.1,0.3L67.8,25.7z M68.9,27.5l-0.3-0.2
				l-0.3,0.2l0.1-0.3l-0.3-0.2l0.4,0l0.1-0.3l0.1,0.4l0.4,0l-0.3,0.2L68.9,27.5z M69.4,25.8L69.1,26l0.2-0.3L69,25.5l0.4,0l0.1-0.3
				l0.1,0.4l0.4,0l-0.3,0.2l0.1,0.4L69.4,25.8z M70.5,27.6l-0.3-0.3L70,27.6l0.2-0.3L69.9,27l0.4,0.1l0.1-0.3l0.1,0.4l0.4,0
				l-0.3,0.2L70.5,27.6z M71,26l-0.3,0.2l0.2-0.3l-0.3-0.2l0.4,0.1l0.1-0.3l0,0.4l0.4,0l-0.3,0.2l0.1,0.4L71,26z M72.1,27.8
				l-0.2-0.3l-0.3,0.2l0.2-0.3l-0.3-0.2l0.4,0.1l0.1-0.3l0,0.4l0.4,0L72,27.5L72.1,27.8z M72.9,26.5l-0.2-0.3l-0.3,0.2l0.2-0.3
				l-0.3-0.2l0.4,0.1l0.2-0.3l0,0.4l0.4,0l-0.3,0.1L72.9,26.5z"/>
		</g>
		<g>
			<g>
				<path class="st1" d="M89.2,19.2c0.8-0.4,1.8-0.2,2,0.4c0.2,0.6-0.3,1.4-1.1,1.7c-0.8,0.4-1.8,0.2-2-0.4
					C87.9,20.4,88.4,19.6,89.2,19.2z M90.5,22.1c1-0.5,1.5-1.6,1.1-2.6c-0.4-1-1.6-1.4-2.7-1c-1,0.5-1.5,1.6-1.1,2.6
					C88.3,22.1,89.4,22.5,90.5,22.1z"/>
				<path class="st1" d="M89,24.8l-0.4-1.6l0.2-0.1l0.1,0.4l3.3-0.8l-0.1-0.4l0.2-0.1l0.6,2.4l0.2,0l0.1,0.3l-0.9,0.2l-0.1-0.3
					l0.4-0.1l-0.3-1.2L91,23.9l0.2,0.9l0.4-0.1l0.1,0.3l-1.1,0.3L90.5,25l0.4-0.1l-0.2-0.9l-1.5,0.4l0.1,0.4L89,24.8z"/>
			</g>
			<g>
				<path class="st1" d="M42.4,20.6L42.2,21l2.2,0.6c0.6,0.2,1,0.5,1.1,1.1c0,0.3,0,0.6-0.1,0.9c-0.3,0.9-1,1.4-1.8,1.1l-2.3-0.7
					l-0.1,0.4l-0.2-0.1l0.5-1.6l0.2,0.1l-0.1,0.4l2.1,0.6c0.6,0.2,0.9,0.1,1.1-0.1c0.1-0.1,0.2-0.3,0.3-0.4c0.2-0.7-0.1-1.2-0.8-1.4
					l-2.1-0.6L42,21.9l-0.2-0.1l0.4-1.3L42.4,20.6z"/>
				<path class="st1" d="M46.1,21.5c-0.1,0.2-0.3,0.3-0.5,0.2c-0.2-0.1-0.3-0.3-0.2-0.5c0.1-0.2,0.3-0.3,0.5-0.2
					C46.1,21,46.2,21.3,46.1,21.5z"/>
				<path class="st1" d="M46.9,19.8l-0.2,0.3l-0.9-0.5l0.2-0.3l0.4,0.2c0.3-0.1,0.5-0.3,0.6-0.5c0.2-0.3,0.1-0.7-0.2-0.8
					c-0.2-0.1-0.5-0.1-1.1,0.2c-0.6,0.3-0.7,0.4-0.9,0.4c-0.2,0-0.5,0-0.7-0.1c-0.6-0.3-0.7-1-0.4-1.6c0.1-0.2,0.2-0.3,0.4-0.5
					L44,16.5l0.2-0.3l0.9,0.5L44.9,17l-0.4-0.2c-0.3,0.1-0.4,0.3-0.5,0.4c-0.2,0.3-0.1,0.6,0.2,0.7c0.2,0.1,0.4,0.1,1-0.3
					c0.3-0.2,0.5-0.3,0.5-0.3c0.2-0.1,0.3-0.1,0.5-0.1c0.2,0,0.4,0,0.6,0.2c0.6,0.3,0.8,1,0.4,1.6c-0.2,0.3-0.4,0.5-0.6,0.6
					L46.9,19.8z"/>
				<path class="st1" d="M48.4,17.1c0,0.2-0.2,0.4-0.4,0.4c-0.2,0-0.4-0.2-0.4-0.4c0-0.2,0.2-0.4,0.4-0.4
					C48.3,16.7,48.4,16.9,48.4,17.1z"/>
			</g>
			<g>
				<path class="st1" d="M57.7,9.4l-2.5,1.3l-0.1-0.2l0.4-0.2l-1.6-3.1l-0.4,0.2l-0.1-0.2l2.2-1.1l-0.1-0.1l0.3-0.1l0.4,0.8
					l-0.3,0.1l-0.2-0.4l-1.1,0.6l0.6,1.3l0.8-0.4l-0.2-0.4l0.3-0.2l0.5,1l-0.3,0.2l-0.2-0.4l-0.9,0.4l0.7,1.3l1.2-0.6L57,8.8
					l0.3-0.1L57.7,9.4z"/>
				<path class="st1" d="M60.1,8.5l-1.6,0.5l-0.1-0.2l0.4-0.1l-1.1-3.3l-0.4,0.1l-0.1-0.2L59,4.7c0.7-0.2,1.3,0,1.5,0.7
					C60.7,6,60.3,6.7,59.7,7c-0.1,0-0.2,0-0.3,0.1l-0.1-0.3c0.1,0,0.1,0,0.2,0c0.4-0.1,0.5-0.5,0.3-1c-0.2-0.5-0.5-0.7-0.9-0.6
					l-0.3,0.1l1.1,3.2l0.5-0.2L60.1,8.5z"/>
				<path class="st1" d="M62.1,6.3l0.3-1.6l0.8,1.4L62.1,6.3z M65,7.2l-0.2,0l-2.1-3.5l-0.4,0.1l-0.9,4L61,7.9l0,0.2l1.2-0.2l0-0.2
					l-0.5,0.1l0.2-1l1.4-0.2L64,7.4l-0.4,0.1l0,0.2L65,7.4L65,7.2z"/>
				<path class="st1" d="M66.7,3.8l0.4,0c0.4,0,0.7,0.3,0.7,0.8c0,0.5-0.3,0.8-0.7,0.8l-0.4,0L66.7,3.8z M69.1,7.2l-0.2,0
					c-0.1,0-0.2-0.1-0.3-0.3l-0.8-1.3c0.6-0.2,0.8-0.5,0.8-1.1c0-0.3-0.1-0.6-0.3-0.8c-0.2-0.2-0.5-0.3-1-0.3l-1.8,0v0.3l0.5,0
					l0,3.4l-0.5,0l0,0.3l1.7,0V7.2l-0.4,0l0-1.5l0.2,0l0.9,1.4c0.2,0.3,0.3,0.4,0.6,0.4l0.8,0L69.1,7.2z"/>
				<path class="st1" d="M71.8,7.9l-1.9-0.3l0-0.2l0.6,0.1l0.6-3.3l-1-0.2L70,4.5l-0.3-0.1l0.2-1l0.3,0.1l0,0.2l2.8,0.5l0-0.2
					L73.3,4l-0.2,1l-0.3-0.1l0.1-0.5l-1-0.2l-0.6,3.3l0.6,0.1L71.8,7.9z"/>
				<path class="st1" d="M77.4,9.8l-1.7-0.6l0.1-0.2l0.5,0.2l0.9-2.4L75,8.9l-0.3-3.2l-0.9,2.4l0.5,0.2l-0.1,0.2L72.8,8l0.1-0.2
					L73.4,8l1.2-3.2l-0.5-0.2l0.1-0.2l1,0.4l0.3,3.1l2.2-2.1l1.1,0.4l-0.1,0.2l-0.5-0.2L77,9.4l0.5,0.2L77.4,9.8z"/>
				<path class="st1" d="M80.3,11.7l-2.4-1.5l0.1-0.2l0.4,0.2l1.9-2.9l-0.4-0.2L80,6.8l2.1,1.3L82.2,8l0.3,0.2L82,9l-0.3-0.2
					l0.2-0.4l-1-0.7L80.1,9l0.8,0.5l0.2-0.3l0.3,0.2l-0.6,1l-0.3-0.2l0.2-0.4l-0.8-0.5l-0.8,1.2l1.1,0.7l0.2-0.4l0.3,0.2L80.3,11.7z
					"/>
				<path class="st1" d="M53.8,9.3c-0.7-0.9-1.9-1.1-2.8-0.4L49.5,10l0.1,0.2L50,9.9l2,2.8c0.1,0,0.2,0.1,0.3,0.1l1-0.7
					c0.5-0.3,0.7-0.7,0.8-1.2C54.3,10.2,54.1,9.7,53.8,9.3z M53,11.9l-0.4,0.3l-1.9-2.6l0.4-0.3c0.6-0.4,1.5-0.2,2,0.5
					C53.7,10.5,53.6,11.4,53,11.9z"/>
				<path class="st1" d="M85.4,10.9l-0.2,0.2l0.3,0.3l-1.7,1.9l0.4-3.3l-0.9-0.8l-0.2,0.2l0.3,0.3l-0.1,0.4l-2.1,2.3l-0.4-0.3
					l-0.2,0.2l1,0.9l0.2-0.2l-0.3-0.3l1.8-1.9l-0.4,3.1c0.4-0.1,0.8-0.2,1.2-0.3c0,0,0.1,0,0.1,0l1.5-1.7l0.4,0.3l0.2-0.2L85.4,10.9
					z"/>
				<path class="st1" d="M89.4,15.2l-0.1,0.1l-1.7-2.3l0.1-0.1l-0.2-0.3l-0.8,0.6l0.2,0.3l0.4-0.3l0.6,0.8l-2.7,2L85.1,16
					c-0.1,0-0.2,0.1-0.2,0.1l1,1.3l0.2-0.2l-0.3-0.5l2.7-2l0.6,0.8l-0.4,0.3l0.2,0.3l0.8-0.6L89.4,15.2z"/>
			</g>
			<g>
				<path class="st1" d="M72,56.3l-0.3,0.1l-0.2-1.1l0.3-0.1l0.1,0.4c0.3,0.2,0.5,0.2,0.8,0.1c0.4-0.1,0.6-0.4,0.5-0.7
					c-0.1-0.3-0.3-0.4-0.9-0.6c-0.7-0.2-0.7-0.3-0.9-0.4c-0.2-0.1-0.3-0.4-0.4-0.6c-0.1-0.6,0.2-1.2,1-1.3c0.2,0,0.4-0.1,0.7,0
					l0-0.2l0.3-0.1l0.2,1l-0.3,0.1l-0.1-0.4c-0.3-0.1-0.4-0.1-0.7-0.1c-0.3,0.1-0.5,0.3-0.4,0.6c0.1,0.2,0.2,0.3,0.9,0.6
					c0.3,0.1,0.5,0.2,0.6,0.2c0.2,0.1,0.3,0.2,0.4,0.3c0.2,0.2,0.2,0.3,0.3,0.6c0.1,0.7-0.2,1.2-0.9,1.4c-0.3,0.1-0.6,0.1-0.9,0
					L72,56.3z"/>
				<path class="st1" d="M78,54.4l-2.6,1l-0.1-0.2l0.4-0.2l-1.3-3.2L74,52l-0.1-0.2l2.3-0.9l-0.1-0.2l0.3-0.1l0.3,0.9l-0.3,0.1
					l-0.2-0.4l-1.2,0.5l0.5,1.3l0.9-0.3l-0.1-0.4l0.3-0.1l0.4,1.1l-0.3,0.1l-0.2-0.4l-0.9,0.3l0.5,1.4l1.2-0.5l-0.2-0.4l0.3-0.1
					L78,54.4z"/>
				<path class="st1" d="M82,51.9c-0.3,0.4-0.6,0.6-1,0.9c-1.1,0.7-2.3,0.4-2.9-0.6c-0.6-1-0.3-2.2,0.7-2.8c0.3-0.2,0.6-0.3,1-0.3
					l-0.1-0.2l0.3-0.2l0.6,0.9l-0.3,0.2l-0.2-0.3c-0.4,0-0.6,0-0.9,0.2c-0.7,0.4-0.8,1.3-0.3,2.2c0.5,0.8,1.4,1.1,2.1,0.7
					c0.3-0.2,0.4-0.3,0.6-0.6l-0.2-0.4l0.3-0.2L82,51.9z"/>
				<path class="st1" d="M83.8,45.8l-0.4,0.3l1.5,1.7c0.5,0.5,0.6,1,0.4,1.5c-0.1,0.3-0.3,0.5-0.5,0.7c-0.7,0.7-1.5,0.7-2.1,0.1
					l-1.6-1.8l-0.3,0.3l-0.2-0.2l1.2-1.1l0.2,0.2l-0.3,0.3l1.5,1.6c0.4,0.4,0.7,0.6,1,0.5c0.2,0,0.3-0.1,0.4-0.3
					c0.5-0.5,0.6-1.1,0.1-1.6l-1.5-1.6l-0.4,0.3l-0.2-0.2l1-0.9L83.8,45.8z"/>
				<path class="st1" d="M90.5,42.3l-0.8,1.5l-0.2-0.1l0.2-0.4l-3-1.6L86.5,42l-0.2-0.1l0.8-1.5l0.2,0.1l-0.2,0.4l3,1.6l0.2-0.4
					L90.5,42.3z"/>
				<path class="st1" d="M92.1,38.7l-0.7,1.8l-0.2-0.1l0.2-0.5l-3.1-1.2l-0.4,1l0.5,0.2l-0.1,0.3l-1-0.4l0.1-0.3l0.2,0.1l1-2.7
					l-0.2-0.1l0.1-0.3l1,0.4l-0.1,0.3L88.9,37l-0.4,1l3.1,1.2l0.2-0.5L92.1,38.7z"/>
				<path class="st1" d="M93.1,34.3l-0.3,1.6l-0.2,0l0.1-0.4L91,35.1L89,36L89,36.3l-0.2,0l0.3-1.6l0.2,0l-0.1,0.4l1.4-0.6l-1.1-1
					L89.4,34l-0.2,0l0.3-1.4l0.2,0l-0.1,0.4l1.4,1.3l1.8,0.3l0.1-0.4L93.1,34.3z"/>
				<path class="st1" d="M89.1,44.4l-0.1,0.2c-0.1,0.1-0.2,0.1-0.4,0.1L87,44.6c0.2-0.6,0.1-1-0.3-1.3c-0.3-0.2-0.5-0.3-0.8-0.2
					c-0.3,0-0.5,0.2-0.8,0.6L84,45.2l0.2,0.1l0.3-0.4l2.8,2.1l-0.3,0.4l0.2,0.1l1-1.3L87.9,46l-0.3,0.4l-1.2-0.9l0.1-0.1l1.7,0.1
					c0.4,0,0.4,0,0.7-0.3l0.5-0.6L89.1,44.4z M85,44.4l0.2-0.3c0.3-0.3,0.6-0.4,1-0.1c0.4,0.3,0.5,0.7,0.2,1l-0.2,0.3L85,44.4z"/>
			</g>
			<g>
				<path class="st1" d="M41.7,38l-0.4-1.6l0.2-0.1l0.1,0.4l1.5-0.4l-0.5-1.9l-1.5,0.4l0.1,0.4l-0.2,0.1l-0.4-1.6l0.2-0.1l0.1,0.4
					l3.3-0.8l-0.1-0.4l0.2-0.1l0.4,1.6l-0.2,0.1L44.6,34l-1.5,0.4l0.5,1.9l1.5-0.4l-0.1-0.4l0.2-0.1l0.4,1.6l-0.2,0.1l-0.1-0.4
					l-3.3,0.8l0.1,0.4L41.7,38z"/>
				<path class="st1" d="M44,38.9c0.8-0.4,1.8-0.2,2,0.3c0.2,0.5-0.3,1.4-1.1,1.7c-0.8,0.4-1.8,0.2-2-0.3
					C42.7,40.1,43.2,39.3,44,38.9z M45.3,41.7c1-0.5,1.5-1.6,1-2.6c-0.5-1-1.6-1.4-2.7-0.9c-1,0.5-1.5,1.6-1,2.6
					C43.1,41.8,44.3,42.2,45.3,41.7z"/>
				<path class="st1" d="M46.8,47.4l-1-1.4l0.2-0.1l0.3,0.4l2.1-1.5l-3.1,0.6l1.5-2.8l-2,1.5l0.3,0.4l-0.2,0.1l-0.8-1.1l0.2-0.1
					l0.3,0.4l2.8-2l-0.3-0.4l0.2-0.1l0.6,0.9l-1.4,2.8l3-0.6l0.7,1l-0.2,0.1l-0.3-0.4l-2.8,2l0.3,0.4L46.8,47.4z"/>
				<path class="st1" d="M49.9,50.5l-2.1-1.9l0.2-0.2l0.3,0.3l2.3-2.5l-0.3-0.3l0.2-0.2l1.8,1.7l0.1-0.1l0.2,0.2L52,48.1l-0.2-0.2
					l0.3-0.3l-0.9-0.8l-1,1l0.7,0.6l0.3-0.3l0.2,0.2l-0.8,0.9L50.4,49l0.3-0.3L50,48l-1,1.1l1,0.9l0.3-0.3l0.2,0.2L49.9,50.5z"/>
				<path class="st1" d="M53.5,52.9l-2.3-1.6l0.1-0.2l0.4,0.3l1.9-2.9l-0.4-0.3l0.1-0.2l1.4,0.9l-0.1,0.2L54.2,49l-1.9,2.8l1.1,0.7
					l0.2-0.4l0.3,0.2L53.5,52.9z"/>
				<path class="st1" d="M55.9,52.4l1.2-1.1l-0.1,1.6L55.9,52.4z M57.8,54.8l-0.2-0.1l0.2-4.1l-0.3-0.2l-3,2.8l-0.3-0.2L54,53.3
					l1.1,0.5l0.1-0.2l-0.4-0.2l0.8-0.7l1.3,0.6l-0.1,1l-0.4-0.2l-0.1,0.2l1.3,0.6L57.8,54.8z"/>
				<path class="st1" d="M61.9,56.2l-0.4-0.1l-1.3-3.3l-0.6,2.5l0.5,0.1L60,55.6l-1.3-0.3l0.1-0.2l0.5,0.1l0.7-3.1l-0.1-0.3
					l-0.4-0.1l0.1-0.2l1.2,0.3l1.2,3.1l0.6-2.4L62,52.3l0.1-0.2l1.3,0.3l-0.1,0.2l-0.5-0.1L61.9,56.2z"/>
				<path class="st1" d="M65.8,52.5l-1.9-0.1l0,0.3l0.5,0l-0.1,3.4h0l-0.5,0l0,0.3l1.9,0.1l0,0h0c0.6,0,1-0.1,1.4-0.5
					c0.4-0.4,0.7-0.9,0.7-1.4C67.8,53.4,66.9,52.6,65.8,52.5z M66.9,54.5c0,0.9-0.6,1.6-1.4,1.6l-0.5,0l0.1-3.3l0.5,0
					C66.4,52.9,66.9,53.6,66.9,54.5z"/>
			</g>
		</g>
		<g>
			<path class="st1" d="M50.8,34c0.3-1,0.4-1.7,0.7-2.4C51.1,31.9,50.7,33.5,50.8,34z"/>
			<path class="st1" d="M86.1,32.5l-1.5,0.5l0.3,0.1l-0.5,0.3c0.1-0.3,0.1-0.6,0.1-0.9l0.8-0.7l0,0.4l0.9-1.2l-1.4,0.6l0.3,0.1
				l-0.6,0.5c0-0.4,0.1-0.7,0.1-1.1l0.8-0.9l0.1,0.4l0.7-1.3L85,30l0.4,0l-0.6,0.7c0-0.2,0-0.5,0-0.7c0-1.8-0.3-3.5-0.7-5.1
				c-0.8,0.1-1.6-0.2-2-0.3c1,0.6,1.4,1.3,1.5,2c-0.8,0.2-1.9-0.1-2.5-0.6c0.6,0.5,1,1.3,1,2.2c-0.8,0-1.6-0.4-2.2-0.9
				c0.4,0.4,0.8,1.5,0.7,2.2c-0.7-0.1-1.5-0.5-2-1.1c0.4,0.8,0.6,1.5,0.5,2.2c-0.7-0.1-1.2-0.3-1.9-0.9c0.3,0.8,0.4,1.5,0.3,2.1
				c-0.8-0.3-1.4-0.6-1.8-1.4c0.2,0.7,0.4,1.6,0.2,2.1c-0.7-0.2-1.1-0.6-1.5-1.3c0.4,0.7,0.3,1.6,0.2,2.1c-0.3-0.1-0.7-0.3-0.9-0.5
				c0,0.1,0,0.3,0,0.4c0,0.5-0.1,1-0.3,1.4c0.1,0.1,0.2,0.2,0.2,0.2c0.4,0.4,0.9,0.8,1.2,0.9c-0.2,0-0.4,0.2-0.6,0.2
				c0.3,0.3,0.8,0.4,1.1,0.7c-0.3,0-0.3,0.2-0.6,0.2c0.6,0.5,1.1,0.5,1.4,0.5c0.1,0,0.5,0.1,0.8,0c0.3,0,0.6,0.1,0.8,0.2l3.2-6.5
				l-0.4,0.1l1-1.2l-0.3,1.5l-0.2-0.3l-3.2,6.5c0.1,0.1,0.1,0.2,0.1,0.3c0,0,0,0,0,0l0.1-0.1l0,0l5.2-4.1L83,33.6l1.4-0.6l-0.9,1.2
				l0-0.4l-5.2,4.1c0.1,0,0.3,0.1,0.3,0.1c0.1,0.1,0.1,0.2,0,0.5c-0.1,0.2-0.1,0.3-0.3,0.3c0,0-0.1,0-0.2,0c0,0,0.1,0.1,0.1,0.1
				c0,0.1,0.1,0.2-0.1,0.4c-0.2,0.2-0.3,0.3-0.5,0.2c-0.1,0-0.1-0.1-0.1-0.1c0,0.1,0,0.1,0,0.2c0,0.2-0.1,0.3-0.3,0.3
				c-0.3,0.1-0.5,0.1-0.6-0.1c-0.2-0.3-0.1-0.6,0-0.7c0,0.1,0,0.2,0,0.3c0,0.1,0.1,0.3,0.3,0.3c0.1,0,0.3-0.1,0.4-0.1
				c0.1-0.1,0.1-0.2,0-0.3c0-0.1,0-0.1-0.1-0.2c0.1,0,0.2,0.1,0.3,0.2c0.1,0.1,0.2,0.1,0.3,0c0.1-0.1,0.2-0.2,0.2-0.3
				c0.1-0.2-0.1-0.3-0.3-0.4c0.2,0,0.3,0.1,0.5,0.1c0.2,0,0.3-0.3,0.3-0.4c0-0.1-0.1-0.2-0.2-0.2c-0.1,0-0.2,0-0.3,0c0,0,0,0,0,0.1
				c0,0.1-0.1,0.2-0.2,0.3c-0.1,0-0.2,0-0.1,0c0.1-0.1,0.2-0.4,0-0.6c-0.1-0.1-0.3-0.2-0.6-0.2c-0.3,0-0.7,0-0.9,0
				c-0.2,0-0.3,0.2-0.3,0.3c-0.1,0.2-0.1,0.5-0.5,0.4c-0.4-0.2-1-0.2-1.7-0.5c0.1,0.2,0.1,0.4,0.2,0.6c-0.6-0.1-0.8-0.5-1.3-0.7
				c0.1,0.2,0.1,0.4,0.2,0.6c-0.5-0.1-0.9-0.5-1.6-0.7c0,0,0,0-0.1,0c-0.2,0.1-0.5,0.1-0.7,0.2c0.5,0.5,0.9,1.2,1.1,2
				c0,0-0.3,0-0.8-0.2c0.1,0.4,0.2,0.9,0.2,1.4c0,0-0.4-0.1-0.9-0.4c0,0.5,0,1-0.1,1.5c0,0-0.4-0.2-1-0.7c-0.1,0.5-0.2,1-0.4,1.5
				c0,0-0.4-0.3-0.8-0.9c-0.2,0.5-0.4,1-0.7,1.5c0,0-0.4-0.5-0.7-1.4c-0.4,0.6-0.8,0.9-0.8,0.9c-0.2-0.5-0.3-1-0.4-1.5
				c-0.5,0.5-1,0.7-1,0.7c-0.1-0.5-0.1-1-0.1-1.5c-0.5,0.3-0.9,0.4-0.9,0.4c0-0.5,0.1-1,0.2-1.4c-0.5,0.2-0.8,0.2-0.8,0.2
				c0.2-0.8,0.7-1.7,1.1-2.1h0c-0.2-0.1-0.4-0.1-0.6-0.2c0,0,0,0-0.1,0c-0.7,0.2-1.1,0.6-1.6,0.7c0.1-0.2,0.1-0.4,0.2-0.6
				c-0.6,0.2-0.7,0.5-1.3,0.7c0.1-0.2,0.1-0.4,0.2-0.6c-0.6,0.3-1.3,0.5-1.7,0.5c-0.4,0.1-0.4-0.5-0.5-0.6c-0.1-0.1-0.4-0.1-0.5-0.1
				c-0.2,0-0.6,0-0.8,0c-0.3,0-0.5,0.1-0.6,0.2c-0.2,0.1-0.1,0.5,0,0.6c0.1,0.1,0,0.1-0.1,0c-0.2-0.1-0.2-0.2-0.2-0.3c0,0,0,0,0,0
				c-0.1,0-0.2,0-0.3,0c-0.1,0-0.2,0.1-0.2,0.2c0,0.1,0,0.4,0.2,0.5c0.2,0,0.2-0.1,0.5-0.1c-0.1,0.1-0.4,0.2-0.3,0.4
				c0,0.1,0.1,0.2,0.2,0.3c0.1,0.1,0.2,0.1,0.3,0c0.1-0.1,0.2-0.1,0.3-0.2c-0.1,0.1-0.1,0.1-0.1,0.2c0,0.1,0,0.3,0,0.3
				c0.1,0.1,0.3,0.1,0.4,0.1c0.2,0,0.2-0.1,0.3-0.2c0-0.1,0-0.2,0-0.3c0.1,0.1,0.2,0.4,0,0.7c-0.1,0.1-0.3,0.2-0.6,0
				c-0.2-0.1-0.3-0.1-0.3-0.3c0-0.1,0-0.1,0.1-0.2c0,0-0.1,0.1-0.1,0.1c-0.1,0.1-0.3,0-0.5-0.2c-0.2-0.2-0.1-0.3-0.1-0.4
				c0-0.1,0.1-0.1,0.1-0.1c-0.1,0-0.2,0-0.2,0c-0.2,0-0.2-0.1-0.3-0.3c-0.1-0.2-0.1-0.3,0-0.5c0.1-0.1,0.4-0.2,0.6-0.1
				c0-0.1,0-0.3,0.2-0.4c0.1-0.1,0.5-0.3,0.9-0.2c0.2,0,0.6,0,0.8,0c0.1,0,1-0.2,1.6-0.6c-0.3,0-0.4-0.2-0.6-0.2
				c0.3-0.3,0.9-0.4,1.1-0.7c-0.2,0-0.4-0.2-0.6-0.2c0.5-0.3,0.9-0.5,1.2-0.8c0,0,0.1-0.2,0.2-0.2c-0.2-0.4-0.3-0.9-0.3-1.4
				c0-0.1,0-0.2,0-0.4c-0.1,0.1-0.4,0.3-0.8,0.4c-0.2-0.5-0.1-1.4,0.1-2.1c-0.4,0.7-0.8,1.2-1.5,1.4c-0.2-0.5-0.1-1.4,0.2-2.1
				c-0.5,0.8-0.9,1.2-1.8,1.4c-0.1-0.6,0-1.5,0.3-2.2c-0.6,0.6-1.2,0.8-1.9,0.9c0-0.7,0.1-1.4,0.5-2.2c-0.5,0.6-1.4,0.9-2.1,1
				c0.1-0.6,0.5-1.5,0.8-2c-0.7,0.5-1.4,0.8-2.1,0.9c0.1-0.7,0.4-1.5,1-2.2c-0.7,0.5-1.7,0.8-2.4,0.7c0.2-0.8,0.7-1.6,1.3-2
				c-0.4,0.1-1.1,0.2-1.9,0.2c-0.5,1.6-0.7,3.3-0.7,5c-0.4-0.3-0.7-0.4-1-0.7c0.1,0.4,0.1,0.6,0.1,1c0.1,0.8,0.4,1.3,0.9,1.6
				c0,0.2,0.1,0.5,0.1,0.7c-0.4-0.3-0.9-0.4-1.6-0.4c0.4,1.4,1,1.5,1.8,1.6c0,0.1,0.1,0.2,0.1,0.4c-0.4-0.1-0.9-0.1-1.5,0
				c0.4,0.6,1,1,1.9,1.1c0,0,0,0,0,0c-0.6,0-1.1,0-1.6,0.3c0.7,0.6,1.3,0.8,2,0.7c0,0.1,0.1,0.2,0.1,0.2c-0.5,0.1-0.9,0.4-1.2,0.6
				c0.5,0.2,1.1,0.3,1.6,0.2c0,0,0,0,0,0c-0.3,0.2-0.5,0.6-0.7,1.1c0.4-0.1,0.8-0.1,1.2-0.2c0.1,0.1,0.2,0.3,0.2,0.4
				c-0.2,0.4-0.3,0.9-0.2,1.4c0.3-0.1,0.6-0.2,0.8-0.4c0.1,0.1,0.2,0.2,0.2,0.3c-0.1,0.6,0.1,1.2,0.4,1.7c0.1-0.2,0.3-0.3,0.4-0.5
				c0.8-1.2,0.3-2.1,0.3-2.9c0,0,0,0,0,0c0.1,0.9,0.9,1.9-0.1,3c0,0,0,0-0.1,0.1c3.3,3.8,8.1,6.2,13.4,6.2c7.6,0,14.1-4.8,16.6-11.6
				l0.8-0.3l-0.1,0.4l1.2-1L84,35.5l0.3,0.2l-0.6,0.3c0-0.1,0.1-0.3,0.1-0.4l-0.7,0.6l0.1-0.4L78.8,38c0,0,0,0,0,0
				c0,0,0-0.1-0.1-0.1c0,0,0.1-0.1,0.2-0.1l4.3-2.2l-0.3-0.2l1.1-0.2c0-0.1,0-0.1,0.1-0.2l0.9-0.5l0,0.4l1.1-1.1l-1.5,0.4l0.3,0.1
				l-0.7,0.4c0-0.1,0.1-0.3,0.1-0.4l-0.8,0.8l0-0.4l-2.9,1.9c-0.3,0.2-0.7,0.3-1,0.5c0.2-0.2,0.4-0.3,0.6-0.5l3.1-2L83,34.5l1.2-0.4
				c0-0.1,0.1-0.3,0.1-0.4l0.7-0.4l0,0.4L86.1,32.5z M77.5,38.4c0,0.2-0.1,0.5-0.4,0.5c0-0.1,0-0.4,0-0.6
				C77.2,38.3,77.4,38.3,77.5,38.4z M77.2,39.2c-0.1,0.1-0.2,0.1-0.3,0.1c-0.1,0-0.1,0-0.1-0.1c0-0.2,0.1-0.4,0.1-0.5
				c0,0.1,0.1,0.2,0.1,0.3C77.1,39.1,77.2,39.1,77.2,39.2z M76.7,38.2c0,0.1,0.1,0.2,0.3,0.2c-0.1,0.1-0.3,0.1-0.4,0
				c-0.1,0-0.1-0.1-0.1-0.3C76.6,38,76.7,38.1,76.7,38.2z M54.2,33.3c-0.1,0.6,0,1.1,0,1.6c0.3-0.5,0.9-0.9,1.4-1
				c-0.1,2.1-1,2.3-1.5,2.8c0.1-0.6,0.4-1.5,1-2.3c-0.8,0.5-1.1,1.3-1.1,2.1C54,36.3,54,36.2,53.9,36c-0.1,0.2-0.2,0.4-0.4,0.5
				c-0.2-1,0.1-2,0.2-2.5c-0.4,0.4-0.6,1.4-0.4,2.2c0.1,0,0.1,0.1,0.2,0.2c0,0.2-0.1,0.4-0.3,0.4c-0.2,0-0.4-0.1-0.4-0.3
				c0-0.2,0.1-0.4,0.3-0.4c0,0,0.1,0,0.1,0C52.8,35.3,53.2,34,54.2,33.3z M52.3,36.1c-0.1-0.8,0-2,0.1-2.6c-0.3,0.4-0.4,1-0.4,1.6
				c0,0,0,0,0,0c0,0,0,0.1,0,0.1c0,0.3,0.1,0.5,0.1,0.7c-0.1-0.2-0.2-0.3-0.3-0.5c0,0-0.1,0-0.1,0c-0.2,0-0.3-0.1-0.3-0.2
				c0-0.2,0.1-0.3,0.2-0.3c0,0,0.1,0,0.1,0c-0.1-0.7,0.1-1.5,0.9-2.1C53.6,34.9,52.5,35.3,52.3,36.1z M51.7,36.7
				c-0.2,0-0.4-0.1-0.4-0.3c0-0.2,0.1-0.4,0.3-0.4c0.2,0,0.4,0.1,0.4,0.3C52,36.5,51.9,36.7,51.7,36.7z M51.9,31.1
				c0.5,2-0.6,2.2-1.1,3C50.3,33,50.8,31.6,51.9,31.1z M51.3,34.5c0,0.2-0.1,0.4-0.3,0.4c-0.2,0-0.4-0.1-0.4-0.3
				c0-0.2,0.1-0.4,0.3-0.4C51,34.2,51.2,34.3,51.3,34.5z M50.8,29c0.4,1.1,0.1,2.2-0.6,2.8c0-0.3,0-0.6-0.2-0.9
				c0.1-0.5,0.4-1.2,0.6-1.5c-0.3,0.2-0.6,0.8-0.7,1.3c-0.1-0.1-0.1-0.2-0.2-0.3C49.9,29.6,50.4,29.1,50.8,29z M48.8,30
				c0.9,0.6,1.1,1.2,1.3,2c0,0,0,0,0,0c0.2,0,0.3,0.1,0.4,0.2c0,0.2-0.1,0.3-0.2,0.4c-0.2,0-0.3-0.1-0.4-0.2c0-0.1,0.1-0.3,0.2-0.3
				C49.7,31.4,49.2,30.6,48.8,30z M48.4,32.6c0.9,0.1,1.4,0.6,1.8,1.1c0.1,0,0.2,0.1,0.2,0.2c0,0.1-0.1,0.3-0.2,0.3
				c-0.1,0-0.3-0.1-0.3-0.2c0-0.1,0.1-0.2,0.2-0.3C49.6,33.3,48.9,32.8,48.4,32.6z M49.2,34.5c0.4,0,1,0,1.7,0.7
				c0,0,0.1-0.1,0.2-0.1c0.1,0,0.3,0.1,0.3,0.2c0,0.1-0.1,0.3-0.2,0.3c-0.1,0-0.3-0.1-0.3-0.2c0-0.1,0-0.1,0-0.2
				C50.3,34.9,49.4,34.6,49.2,34.5z M49.8,35.7c0.7-0.1,1.1,0,1.7,0.3c0.1,0,0.1,0,0,0C51,35.9,50.5,35.8,49.8,35.7z M50,37.2
				c0.6-0.3,1.4-0.4,2.1-0.4c0-0.1,0.1-0.1,0.2-0.1c0.1,0,0.3,0.1,0.3,0.2c0,0.1-0.1,0.3-0.2,0.3c-0.1,0-0.3-0.1-0.3-0.2
				c0,0,0-0.1,0-0.1c0,0,0,0,0,0C51.4,36.9,50.7,37,50,37.2z M50.7,38.2c0.5-0.6,1.4-0.7,1.9-0.7c0,0,0,0,0,0c0-0.2,0.1-0.3,0.2-0.4
				c0.2,0,0.3,0.1,0.4,0.2c0,0.2-0.1,0.3-0.2,0.4c-0.2,0-0.3-0.1-0.4-0.2c0,0,0,0,0,0C52.1,37.5,51.2,37.9,50.7,38.2z M51.8,39.8
				c0.1-0.5,0.4-1.1,0.9-1.5c0.4-0.3,0.5-0.4,0.3-0.1C52.5,38.6,52,39.4,51.8,39.8z M52.9,41.2c-0.2-0.5,0-1.3,0.2-1.8
				c0.1-0.4,0.5-0.9,0.6-0.9C53.3,39.1,52.8,40.7,52.9,41.2z M53.8,37.8c-0.1,0-0.3-0.1-0.3-0.2c0-0.1,0.1-0.3,0.2-0.3
				c0.1,0,0.3,0.1,0.3,0.2C54,37.7,54,37.8,53.8,37.8z M54.5,38.6c-0.2,0-0.4-0.1-0.4-0.3c0-0.2,0.1-0.4,0.3-0.4
				c0.2,0,0.4,0.1,0.4,0.3C54.8,38.4,54.7,38.6,54.5,38.6z M54.6,37.5c-0.2,0-0.4-0.1-0.4-0.3c0-0.2,0.1-0.4,0.3-0.4
				c0.2,0,0.4,0.1,0.4,0.3C54.9,37.3,54.8,37.5,54.6,37.5z M55.3,37.4c0.2,0,0.3,0.1,0.3,0.2c0,0.2-0.1,0.3-0.2,0.3
				c-0.2,0-0.3-0.1-0.3-0.2C55,37.6,55.1,37.4,55.3,37.4z M56.3,38.5c0.1-0.1,0.3-0.1,0.5-0.1c-0.1,0.2-0.1,0.5,0,0.6
				C56.4,39,56.3,38.7,56.3,38.5z M57,39.4c-0.1,0-0.2,0-0.3-0.1c0.1,0,0.1-0.1,0.2-0.2c0.1-0.1,0.1-0.2,0.1-0.3
				c0,0.1,0.1,0.3,0.1,0.5C57.1,39.4,57.1,39.4,57,39.4z M57.2,38.6c-0.1,0-0.2,0.1-0.4,0c0.2,0,0.3-0.1,0.3-0.2
				c0-0.1,0.1-0.2,0.1,0C57.3,38.5,57.3,38.5,57.2,38.6z M59.4,42.5c-0.2-1.3-0.9-2.3-1.9-3.2c0-0.2,0.1-0.3,0.2-0.4
				c1.4,1.1,2.3,2.6,2.5,3.8C60,42.6,59.6,42.5,59.4,42.5z M73.5,40.2l0.3,0.1l2.2-1.1c0,0,0,0,0,0h0c0,0,0,0,0,0
				c-0.4,0.3-2.1,1.3-2.1,1.3l-0.2,0l-0.7,0.5l-0.7,0.5l0-0.2L71.7,41L73.5,40.2z M72.3,42.3l-0.1-0.3l-0.4-0.1l1.5-0.9l0.2-0.1
				l0.3,0.1l0,0l2.3-1.5c-0.1,0.1-0.3,0.3-0.5,0.6l-1.9,1.3l-0.2,0L72.3,42.3z M74,42l-0.3,0l0,0l0,0l-0.1,0l1.4-1.4l0,0l0,0l0.3,0
				l1-1.1c0,0.1,0,0.2,0,0.3l-0.9,1.1l-0.2,0L74,42.3L74,42z M76,42l-0.9,1.8L75,43.3l-0.4,0.1l0.9-1.7l0.3-0.1l0,0l0.8-1.6
				c0,0,0.1,0.1,0.2,0.1l-0.8,1.6L76,42z M83.3,30.1l1.2-0.9L84,30.6l-0.1-0.3l-3.7,4.6c-0.2,0.2-0.4,0.4-0.6,0.7l0,0
				c0.3-0.4,0.5-0.8,0.8-1.2l3.3-4.2L83.3,30.1z M79.3,35.2l2-3.1l-0.4,0l1.1-1l-0.5,1.5l-0.1-0.3l-2.8,4.3c0,0,0,0,0,0
				C78.8,36.2,79.1,35.7,79.3,35.2z M78.2,37.5c0-0.1,0.1-0.2,0.1-0.3l5.2-5.7l-0.4,0l1.3-0.8l-0.7,1.4l-0.1-0.4l-5,5.5
				C78.5,37.2,78.3,37.4,78.2,37.5z M83.8,33l0-0.4l-3,2.8c-0.3,0.2-0.6,0.5-0.9,0.7c0.3-0.3,0.5-0.6,0.8-0.9l3.1-2.8l-0.4-0.1
				l1.4-0.7L83.8,33z"/>
		</g>
	</g>
</g>
</svg>
