<?xml version="1.0" encoding="utf-8"?>

<!DOCTYPE svg PUBLIC "-//W3C//DTD SVG 1.1//EN" "http://www.w3.org/Graphics/SVG/1.1/DTD/svg11.dtd">
<svg version="1.1" id="Layer_1" xmlns="http://www.w3.org/2000/svg" xmlns:xlink="http://www.w3.org/1999/xlink" x="0px" y="0px"
	 viewBox="900 -60 1000 800" enable-background="new 0 0 1920 1649" xml:space="preserve">
<g>
	<path fill="#1F1A17" d="M1384.01,41.05c16.1-8.67,35.6799-11.6,53.34-6.29c15.88,4.75,29.02,15.99,38.89,29.02
		c3.01,3.56,5.47,7.98,4.96,12.82c-6.4299-2.69-8.96-9.54-13.5199-14.24c-5.2001-5.66-10.6901-11.31-17.53-14.97
		c-16.24-10.3-37.29-11.12-55.01-4.29c-5.39,2.19-11.03,4.44-15.21,8.63c-0.1801,0.66-0.54,1.97-0.7201,2.63
		c-1.1899,0.75-2.33,1.56-3.4399,2.38c-5.86,3.65-11.28,8.23-14.8101,14.24c-15.26,23.11-15.3999,55.17-0.24,78.35
		c10.0801,12.18,24.5801,20.39,39.9,24c11.64,2.64,24.14,3.39,35.53-0.78c17.4299-6.7,31.7999-19.73,43.0599-34.37
		c4.8501-5.95,7.66-13.32,9.0901-20.81c1.2999-5.72,1.26-11.61,1.09-17.44c0-2.55-0.98-4.93-2.03-7.19
		c-1.41-4.3-5.79-8.33-4.2999-13.1c0.8799,1.33,1.7899,2.67,2.7999,3.93c-0.6799-4.28-1.74-8.62-0.83-12.96
		c2.9,1.68,4.0599,4.96,5.6799,7.7c2.27,4.04,4.3301,8.53,4.13,13.27c-1.45,8.52-1.23,17.32-0.0699,25.87
		c-2.01,13.4-8.85,25.69-16.6801,36.58c-10.63,14.25-24.8199,26.57-41.96,32.1c-16.49,5.26-34.78,2.33-50.09-5.22
		c-16.87-8.4-30.3101-23.27-37.26-40.75c-7.25-17.87-7.62-38.39-1.1-56.53C1354.03,65.63,1367.17,50.08,1384.01,41.05 M1456.8,164.8
		c-9.9501,6.93-21.52,11.98-33.7101,12.86c-11.1599,0.64-22.4399-1.18-32.9099-5.03c-6.16-2.02-11.55-5.62-17.1901-8.67
		c14.35,13.64,35.1801,20.53,54.8201,17.5c14.96-3,28.2799-12.14,38.11-23.6C1462.7,159.94,1459.96,162.65,1456.8,164.8z"/>
	<path fill="#FFFCFC" d="M1395.14,43.1c17.72-6.83,38.77-6.01,55.01,4.29c-0.39,0.05-1.17,0.15-1.5601,0.19
		c-15.2899-7.46-33.23-7.41-49.52-3.58c-6.7,1.66-13.2,4.2-19.1399,7.73C1384.11,47.54,1389.75,45.29,1395.14,43.1z"/>
	<path fill="#300803" d="M1399.0699,44c16.29-3.83,34.2301-3.88,49.52,3.58c4.0701,3.93,9.12,6.67,13.04,10.77
		c1.7,1.77,3.49,3.64,6.05,4.01c4.5599,4.7,7.09,11.55,13.5199,14.24c0.3,0.19,0.9,0.56,1.2001,0.74c-1.14,0.48-2.25,0.96-3.35,1.44
		c-2.77-4.59-8.2001-6.31-11.25-10.62c-4.8201-6.15-10.53-11.64-17.15-15.84c-13.59-8.87-30.84-9.87-46.4301-7.06
		c-8.75,1.71-17.14,4.95-25.01,9.1c0.1801-0.66,0.54-1.97,0.7201-2.63C1385.87,48.2,1392.37,45.66,1399.0699,44z"/>
	<path fill="#DA251C" d="M1404.22,45.26c15.5901-2.81,32.8401-1.81,46.4301,7.06c6.62,4.2,12.33,9.69,17.15,15.84
		c3.0499,4.31,8.48,6.03,11.25,10.62c1.1-0.48,2.21-0.96,3.35-1.44l0.5499-0.23c0.02,0.84,0.0601,1.69,0.1101,2.53
		c-1.4901,4.77,2.8899,8.8,4.2999,13.1c1.0601,8.18,0.1,16.44,0.9401,24.63c-1.4301,7.49-4.24,14.86-9.0901,20.81
		c-11.26,14.64-25.63,27.67-43.0599,34.37c-1.5601-0.03-3.11-0.09-4.64-0.1c-7.3101-0.53-14.8-1.12-22.05,0.26
		c-17.1799-2.27-33.2999-11.55-44.1799-25.01c-9.1901-11.4-14.7001-25.97-14.2001-40.7c-0.0299-13.64,4.79-27.12,12.9301-38
		c3.35-4.6,7.72-8.29,11.76-12.26c1.11-0.82,2.25-1.63,3.4399-2.38C1387.08,50.21,1395.47,46.97,1404.22,45.26 M1397.08,49.87
		c0.3301,5.15,2.39,9.97,3.0701,15.07c1.6,10.79,1.5499,22.22-2.79,32.4c-1.58,4.25-4.51,7.81-6.11,12.05
		c-3.0601,2.21-5.17,5.45-8.11,7.79c-4,3.77-9.51,5.49-13.16,9.66c1.77-0.13,3.63,0.04,5.35-0.57
		c15.8201-7.59,28.9401-21.95,32.37-39.48c2-11.73,1.1101-23.93-2.1899-35.36c-0.21-1.78-2.17-1.26-3.37-1.44
		c0.5699,3.9,1.52,7.74,2.2,11.63c-0.2899,2.02-0.52,4.05-0.72,6.08c-0.35-0.16-1.0599-0.48-1.41-0.63
		C1401.13,61.26,1401.05,54.59,1397.08,49.87 M1457.53,74.49c-5.5801,3.99-11.04,8.27-15.5701,13.45
		c-11.12,12.22-17.5699,28.41-18.84,44.81c-1.9,3.44-1.17,7.5-1.39,11.25c0.17,3.05-0.6,6.6,1.5701,9.13
		c0.45,4.83,0.5599,9.7,1.2999,14.5c0.04,1.24,1.38,1.73,2.25,2.37c1.35-1.72,0.8-4.02,0.85-6.03
		c-0.37-6.31-0.2899-12.64-0.2699-18.96c-0.2001-12.46,2.6499-25.01,8.4199-36.07c6.63-13.08,17.74-23.56,30.4501-30.69
		c0.97-0.69,2.1899-1.23,2.75-2.38c1.33-1.88-1.77-2.18-2.8101-1.44c-1.22-0.62-2.42-1.24-3.6-1.86l0.6899-0.6
		C1461.1801,72.27,1459.23,73.2,1457.53,74.49z"/>
	<path fill="#8F3B37" d="M1450.15,47.39c6.84,3.66,12.33,9.31,17.53,14.97c-2.5601-0.37-4.3501-2.24-6.05-4.01
		c-3.92-4.1-8.97-6.84-13.04-10.77C1448.98,47.54,1449.76,47.44,1450.15,47.39z"/>
	<path fill="#7F100C" d="M1397.08,49.87c3.9701,4.72,4.05,11.39,5.13,17.2c1.15,9.07,1.13,18.53-2.01,27.22
		c-0.85,2.28-1.5299,4.63-1.58,7.08c-1.5,3.44-4.04,6.26-7.37,8.02c1.6-4.24,4.53-7.8,6.11-12.05c4.34-10.18,4.39-21.61,2.79-32.4
		C1399.47,59.84,1397.41,55.02,1397.08,49.87z"/>
	<path fill="#2B0D0A" d="M1402.14,49.99c1.2,0.18,3.16-0.34,3.37,1.44c3.3,11.43,4.1899,23.63,2.1899,35.36
		c-3.4299,17.53-16.5499,31.89-32.37,39.48c-1.72,0.61-3.58,0.44-5.35,0.57c3.65-4.17,9.16-5.89,13.16-9.66
		c2.9399-2.34,5.0499-5.58,8.11-7.79c3.33-1.76,5.87-4.58,7.37-8.02c7.21-11.83,8.15-26.39,5.72-39.75
		C1403.66,57.73,1402.71,53.89,1402.14,49.99z"/>
	<path fill="#FEFAF8" d="M1360.96,70.98c3.53-6.01,8.9501-10.59,14.8101-14.24c-4.04,3.97-8.41,7.66-11.76,12.26
		c-8.14,10.88-12.96,24.36-12.9301,38c-0.5,14.73,5.01,29.3,14.2001,40.7c10.88,13.46,27,22.74,44.1799,25.01
		c0.8,0.13,2.39,0.38,3.1901,0.5c4.8199,0.91,9.7999,1.12,14.63,0.09c1.4-0.24,2.7999-0.57,4.23-0.85c1.53,0.01,3.08,0.07,4.64,0.1
		c-11.39,4.17-23.89,3.42-35.53,0.78c-15.3199-3.61-29.8199-11.82-39.9-24C1345.5601,126.15,1345.7,94.09,1360.96,70.98z"/>
	<path fill="#B73731" d="M1404.34,61.62c2.4301,13.36,1.49,27.92-5.72,39.75c0.05-2.45,0.73-4.8,1.58-7.08
		c3.14-8.69,3.16-18.15,2.01-27.22c0.3501,0.15,1.0601,0.47,1.41,0.63C1403.8199,65.67,1404.05,63.64,1404.34,61.62z"/>
	<path fill="#780C08" d="M1457.53,74.49c1.7-1.29,3.65-2.22,5.7999-2.52l-0.6899,0.6c-5.21,4.15-10.92,7.69-15.65,12.42
		c-12.5699,11.96-20.53,28.66-22.16,45.9c-0.5299,2.13-1.1499,4.24-1.6599,6.37c-0.03-1.5-0.05-3.01-0.05-4.51
		c1.27-16.4,7.72-32.59,18.84-44.81C1446.49,82.76,1451.95,78.48,1457.53,74.49z"/>
	<path fill="#B0352F" d="M1446.99,84.99c4.73-4.73,10.4401-8.27,15.65-12.42c1.1799,0.62,2.38,1.24,3.6,1.86
		c-14.47,8.2-27.37,20.04-34.4299,35.31c-3.3,6.7-4.9501,14.01-6.9801,21.15C1426.46,113.65,1434.42,96.95,1446.99,84.99z"/>
	<path fill="#2D0E0C" d="M1466.24,74.43c1.04-0.74,4.14-0.44,2.8101,1.44c-0.5601,1.15-1.78,1.69-2.75,2.38
		c-12.7101,7.13-23.8201,17.61-30.4501,30.69c-5.77,11.06-8.62,23.61-8.4199,36.07c-0.02,6.32-0.1001,12.65,0.2699,18.96
		c-0.0499,2.01,0.5,4.31-0.85,6.03c-0.87-0.64-2.21-1.13-2.25-2.37c-0.74-4.8-0.85-9.67-1.2999-14.5
		c-0.2201-5.28-0.3201-10.58-0.13-15.87c0.51-2.13,1.13-4.24,1.6599-6.37c2.03-7.14,3.6801-14.45,6.9801-21.15
		C1438.87,94.47,1451.77,82.63,1466.24,74.43z"/>
	<path fill="#060202" d="M1494.77,117.45c-1.16-8.55-1.38-17.35,0.0699-25.87C1495.51,100.15,1496.1801,108.92,1494.77,117.45z"/>
	<path fill="#B63633" d="M1487.36,92.74c1.05,2.26,2.03,4.64,2.03,7.19c0.17,5.83,0.21,11.72-1.09,17.44
		C1487.46,109.18,1488.42,100.92,1487.36,92.74z"/>
	<path fill="#B23632" d="M1421.73,144c0.22-3.75-0.51-7.81,1.39-11.25c0,1.5,0.02,3.01,0.05,4.51
		c-0.1901,5.29-0.0901,10.59,0.13,15.87C1421.13,150.6,1421.9,147.05,1421.73,144z"/>
	<path fill="#FDFDFC" d="M1456.8,164.8c3.1599-2.15,5.8999-4.86,9.12-6.94c-9.8301,11.46-23.15,20.6-38.11,23.6
		c-19.64,3.03-40.4701-3.86-54.8201-17.5c5.64,3.05,11.03,6.65,17.1901,8.67c10.47,3.85,21.75,5.67,32.9099,5.03
		C1435.28,176.78,1446.85,171.73,1456.8,164.8z"/>
	<path fill="#AA1E13" d="M1409.46,172.71c7.25-1.38,14.74-0.79,22.05-0.26c-1.4301,0.28-2.83,0.61-4.23,0.85
		c-4.89,0.06-9.76,0.04-14.63-0.09C1411.85,173.09,1410.26,172.84,1409.46,172.71z"/>
	<path fill="#E87B74" d="M1412.65,173.21c4.87,0.13,9.74,0.15,14.63,0.09C1422.45,174.33,1417.47,174.12,1412.65,173.21z"/>
	<path fill="#1F1A18" d="M1033.74,233.69c14.36-9.42,32.0601-13.65,49.12-11.51c19.7001,2.48,36.52,15.28,48.2001,30.79
		c3.6299,4.16,6.4199,9.7,4.75,15.33c-0.5601-0.17-1.67-0.51-2.2201-0.68c-0.85-1.08-1.65-2.19-2.4099-3.31
		c-7.53-12.84-18.28-24.15-31.8601-30.59c-20.5599-9.81-46.1899-6.2-64.36,7.09c16.29-8.5,35.3501-11.93,53.48-8.42
		c12.0701,2.25,22.76,9.22,31.13,18.03c3.5801,3.97,7.92,7.59,9.66,12.83c-4.28-2.08-6.53-6.49-9.74-9.78
		c-3.8099-3.97-7.72-7.97-12.39-10.94c-13.01-8.9-29.65-10.72-44.9199-8.29c-15.25,2.41-30.05,8.92-41.23,19.69
		c-2.05,2.05-3.62,4.49-5.18,6.91c-10.63,16.56-13.79,37.51-9.19,56.58c2.68,10.01,6.62,20.41,14.76,27.29
		c14.08,13.22,33.47,20.22,52.68,20.26c9.6,0.1,19.02-2.93,27.2999-7.67c11.4401-6.37,21.2101-15.37,29.5701-25.38
		c2.74-3.44,5.77-6.75,7.67-10.75c3.6599-7.5,5.96-15.79,5.6599-24.18c-0.3099-4.41,1.03-9.16-1.0499-13.28
		c-1.99-4.8-5.04-9.15-6.3501-14.21c1.51,1.09,2.8401,2.41,4.2401,3.65c-0.9701-4.2-1.66-8.52-1.15-12.84
		c2.4299,0.74,3.4299,3.22,4.61,5.23c2.5,4.64,5.5599,9.49,5.29,14.97c-1.3601,5.74-0.67,11.66-0.79,17.49
		c-0.0701,3.17,0.27,6.32,0.71,9.46c-0.7,6.4-3.33,12.44-5.91,18.29c-7.73,16.17-19.47,30.58-34.2599,40.79
		c-10.16,6.92-22.17,11.63-34.5801,11.71c-16.9199,0.26-33.77-5.69-47-16.19c-13.07-10.3-22.65-24.9-27.03-40.95
		c-4.36-15.77-3.69-32.88,1.87-48.26C1008.55,256.92,1019.52,242.9,1033.74,233.69 M1079.99,367
		c-18.74,1.61-37.78-3.86-53.1799-14.56c6.71,6.64,14.99,11.61,23.7799,14.99c13.4701,4.97,28.9301,6.22,42.4,0.53
		c10.8201-4.54,20.52-11.82,28.17-20.69C1109.45,357.19,1095.48,365.3,1079.99,367z"/>
	<path fill="#1E1C19" d="M1241.52,221.73c2.87,5.2-0.99,10.41-2.42,15.38c-1.83,4.12-2.47,8.86-5.28,12.45
		c-0.2799-1.45-0.47-2.92-0.6-4.38c-0.9,0.92-1.8199,1.84-2.76,2.68c1.28-6.57,4.37-12.63,6.38-19.01
		C1237.54,225.98,1239.84,224.04,1241.52,221.73z"/>
	<path fill="#FFFDFF" d="M1034.96,240.81c18.17-13.29,43.8-16.9,64.36-7.09c13.5801,6.44,24.3301,17.75,31.8601,30.59
		c-0.67-0.35-1.3201-0.7-1.9501-1.06c-1.74-5.24-6.08-8.86-9.66-12.83c-8.37-8.81-19.0599-15.78-31.13-18.03
		C1070.3101,228.88,1051.25,232.31,1034.96,240.81z"/>
	<path fill="#040302" d="M1216.7,231.04c-0.12-1.51,0.8-2.75,2.0701-3.46c1.3199,6.23,2.1,12.6,3.9399,18.72
		c-2.4199,0.31-4.84,0.58-7.1899,1.17c-0.6901,0.03-2.0601,0.09-2.74,0.13c1.45-0.64,2.9199-1.21,4.4199-1.77
		c-0.9299-5.42-2.1399-10.78-3.0199-16.2c0.4199,0.19,1.2599,0.58,1.6799,0.77c1.22,4.89,1.62,9.97,2.96,14.84
		C1218.91,240.41,1217.28,235.79,1216.7,231.04z"/>
	<path fill="#FFFFFE" d="M1062.1801,234.24c15.2699-2.43,31.9099-0.61,44.9199,8.29c-5.13-1.55-9.85-4.23-15.0399-5.59
		c-19.0801-5.28-40.3701-2.72-57.3,7.68c-7.3,4.21-13.12,10.3-18.99,16.22c1.56-2.42,3.13-4.86,5.18-6.91
		C1032.13,243.16,1046.9301,236.65,1062.1801,234.24z"/>
	<path fill="#8F5444" d="M1034.76,244.62c16.9299-10.4,38.22-12.96,57.3-7.68c5.1899,1.36,9.9099,4.04,15.0399,5.59
		c4.67,2.97,8.5801,6.97,12.39,10.94c3.21,3.29,5.46,7.7,9.74,9.78c0.63,0.36,1.28,0.71,1.9501,1.06
		c0.7599,1.12,1.5599,2.23,2.4099,3.31c0.03,1.57,0.7101,2.99,1.4301,4.36c5.62,10.87,7.71,23.45,6.36,35.59
		c-0.6,4.6-2.11,9.01-2.8199,13.6c-1.9,4-4.9301,7.31-7.67,10.75c-8.36,10.01-18.13,19.01-29.5701,25.38
		c-8.2799,4.74-17.7,7.77-27.2999,7.67c-19.21-0.04-38.6-7.04-52.68-20.26c-8.14-6.88-12.08-17.28-14.76-27.29
		c-4.6-19.07-1.44-40.02,9.19-56.58C1021.64,254.92,1027.46,248.83,1034.76,244.62 M1075.4399,243.4
		c-5.08,2-4.99,10.12-0.0199,12.19c4.0699,1.75,8.36-2.48,7.7699-6.57C1083.27,245.2,1079.12,241.81,1075.4399,243.4
		 M1119.99,262.09c-0.96,9.16-2.29,18.41-5.9,26.96c-4.9,12.67-14.75,23.26-27.1,28.94c-16.75,7.69-35.75,8.09-53.8,6.62
		c-5.95-0.33-11.78-1.97-17.7499-1.63c2.23,2.02,5.35,2.02,8.17,2.47c15.4,1.98,31.16,2.62,46.49-0.22
		c14.66-2.74,29.12-9.81,38.14-22.03c8.98-11.66,12.33-26.51,13.58-40.9C1121.36,262.25,1120.45,262.14,1119.99,262.09
		 M1025.4399,279.42c-3.27,1.64-3.3499,6.62-0.7799,8.92c2.9399,3.24,9.5699,2.63,10.7899-1.97
		C1036.77,281.11,1029.9399,276.63,1025.4399,279.42z"/>
	<path fill="#1E1A17" d="M1254.0601,242.09c2.1899-1.16,4.1299-3.48,6.8199-3.2c1.83,2.58,0.41,6.33-2.15,7.84
		c-5.74,3.67-11.4299,7.44-17.29,10.92c0.8301,3.68,0.26,7.66-2.21,10.6c-0.1699-3.08,0.26-6.27-0.6-9.27
		c-1.77-3.89-5.6-6.45-9.3199-8.28c-5.8101-2.88-12.78-1.67-18.27,1.35c-1.9601,1-1.92,3.53-2.7101,5.33
		c-6.2,0.93-5.26,9.41-0.5599,11.8c1.1899,0.91,2.4199,1.77,3.65,2.64c-1.24,0.42-2.4501,0.85-3.64,1.32
		c-2.42-1.98-5.03-4.12-5.87-7.27c-1.05-3.24,0.3099-6.51,1.2799-9.58c-3.84-2.13-7.6799-4.32-10.8999-7.33
		c0.8099-1.51,0.5699-4.75,2.72-4.81c4.24,1.85,8,4.67,12.03,6.95c1.83-1.27,3.58-2.79,5.74-3.5c0.6799-0.04,2.0499-0.1,2.74-0.13
		c8.01-0.13,17.65-0.32,22.97,6.88C1242.01,248.42,1248.6801,245.94,1254.0601,242.09z"/>
	<path fill="#201915" d="M1075.4399,243.4c3.6801-1.59,7.8301,1.8,7.75,5.62c0.5901,4.09-3.7,8.32-7.7699,6.57
		C1070.45,253.52,1070.36,245.4,1075.4399,243.4z"/>
	<path fill="#8F5444" d="M1211.04,252.05c5.49-3.02,12.46-4.23,18.27-1.35c3.72,1.83,7.5499,4.39,9.3199,8.28
		c-0.2,1.93-0.22,4.12-1.34,5.76c-3.52,2.78-6.55,6.57-10.9401,7.98c-3.52-0.22-7.0599-0.44-10.5599-0.03
		c-0.3201,0.03-0.9701,0.1-1.3,0.14c-0.0599,1.08-0.0699,2.17-0.04,3.27c-0.38-0.32-1.1499-0.95-1.5299-1.26
		c-0.92-1.34-1.4801-1.28-1.67,0.19c-1.1801-0.63-2.33-1.25-3.47-1.89c1.1899-0.47,2.4-0.9,3.64-1.32
		c0.6499-0.07,1.95-0.21,2.59-0.28c-2.11-0.73-4.1901-1.51-6.24-2.36c-4.7001-2.39-5.64-10.87,0.5599-11.8
		C1209.12,255.58,1209.08,253.05,1211.04,252.05z"/>
	<path fill="#31130C" d="M1119.99,262.09c0.46,0.05,1.37,0.16,1.83,0.21c-1.25,14.39-4.6,29.24-13.58,40.9
		c-9.02,12.22-23.48,19.29-38.14,22.03c-15.33,2.84-31.09,2.2-46.49,0.22c-2.82-0.45-5.94-0.45-8.17-2.47
		c5.97-0.34,11.8,1.3,17.7499,1.63c18.05,1.47,37.05,1.07,53.8-6.62c12.35-5.68,22.2-16.27,27.1-28.94
		C1117.7,280.5,1119.03,271.25,1119.99,262.09z"/>
	<path fill="#1E1A17" d="M1226.35,272.72c4.39-1.41,7.42-5.2,10.9401-7.98c0.33,2.84-2.04,4.87-3.6901,6.86
		c-3.38,3.74-8.53,5.08-13.4,5.12c-2.36,12.54-5.2899,24.96-8.0599,37.41c-2.7001,10.69-7.03,20.89-11.9401,30.73
		c6.26,6.97,12.4301,14.02,18.66,21.02c-11.96,15.71-23.78,31.52-35.7,47.25c-1.5701,2.94-5.04,0.74-7.6,1.18
		c1.47-2.95,3.5199-5.54,5.58-8.1c9.1-11.33,17.38-23.3,26.36-34.73c0.95-1.61,3.38-3.62,1.47-5.44c-3.86-4.71-8.1-9.11-12.08-13.72
		c-0.9501,0.82-1.9,1.64-2.83,2.47c-0.3601-2.21-0.7001-4.41-1.02-6.61c-1.0601,0.61-2.1001,1.23-3.13,1.85
		c0.38-1.35,0.7799-2.7,1.2-4.04c-2.21-2.75-4.52-5.4-6.96-7.94c-12.37,13.36-24.2001,27.2-36.36,40.75
		c-5.5801,5.82-13.0801,9.19-20.11,12.88c-22.6101,11.32-49.79,12.67-73.53,4.17c-8.97-3.68-17.84-7.58-26.8-11.26
		c-4.04-1.68-7.96-3.75-12.2599-4.69c-2.51,2.83-3.66,6.51-5.29,9.85c-4.38,9.79-9.59,19.2-13.81,29.06
		c-0.55,0.76-1.09,1.53-1.62,2.29c-0.2-0.82-0.61-2.48-0.81-3.3l0.88-0.01c0.16-0.42,0.47-1.26,0.62-1.69
		c3.02-5.79,5.4-11.9,7.89-17.93c-2.71,5.93-6.13,11.63-7.89,17.93c-0.38,0.43-1.13,1.28-1.5,1.7c-1.2,3.04-2.88,5.9-3.6,9.12
		c-2.07,2.84-3.61,6.09-4.28,9.55c2.34-2.67,3.64-6.1,4.28-9.55c1.53-1.9,2.16-4.6,4.41-5.82c-1.85,5.25-4.63,10.11-6.64,15.29
		c0.67,0.22,2.02,0.67,2.69,0.89c17.66,6.51,35.3,13.1,53.09,19.25c2.09-2,4.74-2.7,7.52-1.78c-1.17,31.48-0.37,63.01-0.7101,94.51
		c8.9401-1.16,17.4401-4.35,26.04-6.95c20.38-6.69,40.47-14.78,61.75-18.23c15.15-2.97,30.83-2.31,45.88,0.86
		c-0.1899-1.56-0.36-3.12-0.52-4.67c0.22-0.38,0.65-1.12,0.87-1.49c0.67,2.58,1.42,5.16,2.5,7.61
		c-0.7899-8.41-2.3199-16.83-4.65-24.95c-0.1499,3.02-0.2599,6.05-0.3099,9.09c-2.58-10.05-3.92-20.35-5.98-30.51
		c-2.92-14.47-5.52-29-8.4601-43.46c-0.86-5.13-2.4299-10.18-2.5699-15.4c0.86-2.01,2.41-4.94,5.02-4.43
		c1.91,0.59,2.25,2.86,2.95,4.46c2.4,18.13,6.37,36.03,9.67,54.03c3.62,19.4,7.45,38.77,10.99,58.19c-1.83-0.49-3.62-1.02-5.41-1.53
		c-0.0499,0.74-0.1599,2.24-0.21,2.99c-10.5699-3.52-21.77-5.11-32.89-4.84c-14.46,0.66-28.6899,3.96-42.36,8.61
		c-3.59,1.23-7.3101,2.13-10.64,3.98c11.4401-1.83,23.01-3.69,34.61-3.53c7.85,1.16,15.9601,1.29,23.8101,0.04
		c9.83-0.23,19.63,1.54,29.3099,3.13c6.4,22.33,12.72,44.68,19.23,66.97c-1.7699-0.01-3.5299-0.05-5.2699-0.09
		c0.09,0.72,0.2599,2.15,0.34,2.86c-11.73-0.27-23.4301,1.08-34.92,3.36c7.77,17.43,12.65,36.04,15.41,54.9
		c3.7,15.14,6.71,30.51,7.89,46.08c16.11-6.35,30.66-15.98,46.88-22.1c8.59-3.21,17.5-6.38,26.7899-6.35
		c4.92-0.22,9.9601,3.33,10.7301,8.32c0.38,3.37-1.62,6.43-3.78,8.82c-4.73,5.11-10.67,8.8799-16.5701,12.47
		c-8.5,5.15-17.72,9.3-27.5199,11.2c-11.4801,2.36-23.25,2.42-34.9,3.17c-2.8,0.46-3.47-2.98-4.5-4.83
		c-1.52-0.19-3.02-0.35-4.51-0.49c0-14.87,0.7-29.81-1.01-44.62c-4.34-22.52-12.41-44.32-23.99-64.13
		c-8.59,2.51-16.88,5.98-24.8301,10.07c-1.36-6.05-3.4199-11.9-5.2699-17.8c-0.8501-8.62-5.1801-16.64-4.77-25.41
		c0.21-1.54,0.3199-3.16,1.14-4.53c1.4199,0.16,3.4099,0.08,3.61,1.97c3.74,11.83,6.39,23.9901,10.02,35.86
		c9.2999-4.13,18.8099-7.86,28.75-10.18c10.1899-2.72,20.76-3.28,31.24-4.0601c-1.5601-5.9-3.29-11.75-4.9701-17.61
		c-1.6-5.47-2.59-11.16-5.11-16.31c-1.2699-6.97-3.5299-13.69-5.2899-20.54c-15.38-3.1-31.14-3.21-46.76-2.9
		c-24.85,0.78-49.41,5.67-73.38,12.02c-3.85,1.24-8.14,1.5-11.5701,3.73c0.4801,13.3,1.78,26.56,2.7101,39.84
		c0.2799,4.59,0.0499,9.24,0.95,13.77c1.48,1.01,3.4401-0.05,5.11-0.09c18.26-3.81,37.42-1.92,54.9301,4.32
		c0.64-9.69,0.39-19.49,2.1599-29.06c1.2101-0.33,2.42-0.66,3.65-0.99c0.37,1.83,0.74,3.68,0.9701,5.55
		c-0.2301,10.83-1.2201,21.63-1.4701,32.46c-1.25-0.44-2.49-0.89-3.71-1.31c-0.11,0.84-0.3101,2.53-0.42,3.37
		c-16.64-7.37-35.5599-9.9399-53.48-6.81c-5.9299,12.98-10.33,26.73-12.99,40.75c4.8-13.5099,10.4301-26.79,17.98-39.0099
		c0.47-0.03,1.42-0.09,1.89-0.11c-0.25,2.4-1.89,4.3-2.9399,6.4c-10.01,18.09-16.7301,37.9-20.76,58.14
		c-1.5901,14.86-1.4501,29.84-0.9401,44.75c-1.45,0.05-2.89,0.1-4.3099,0.16c-1.23,2.01-2.01,5.73-5.1,5.05
		c-16.7001-0.8-34.04-0.93-49.6201-7.8c-8.44-3.77-16.47-8.53-23.81-14.14c-3.64-3.1-7.87-6.44-8.85-11.38
		c-0.92-4.3799,2.47-8.39,6.36-9.87c4.43-1.41,9.16-0.5699,13.63,0.27c11.87,2.57,23.1,7.45,33.97,12.77
		c6.53,3.07,12.62,7.03,19.3,9.79c3.6499,1.6,7.25,3.35,10.87,5.06c1.2899-13.32,3.3099-26.59,6.47-39.61
		c1.98-7.13,2.6-14.54,4.22-21.76c2.8301-13.52,7.03-26.76,12.5701-39.42c-3.8,0.71-7.5801,1.52-11.3501,2.34
		c-0.9099-14.19-2.0299-28.36-2.86-42.55c-0.34-7.51-1.62-15.02-1.09-22.54c-0.8199,0.16-1.63,0.32-2.42,0.48
		c0.0801-6.18-0.7-12.38-0.2699-18.55c1.59-6.61,0.62-13.44,1.08-20.15c0.6899-9.73,0.42-19.48,0.73-29.22
		c-0.14-9.11,0.47-18.25-0.3-27.34c-1.6599,2.7-2.1599,5.83-2.22,8.95c-0.34,2.18-0.7899,4.35-1.09,6.54
		c-0.26-2.88-0.34-5.77-0.59-8.65c-11.17-5.46-22.05-11.5-33.1-17.2c-8.91-4.85-18.19-9.07-26.67-14.67
		c4.58-11.01,9.6-21.83,14.48-32.72c-9.86-10.9-18.84-22.77-25.54-35.9c-5.41-11.88-11.25-23.58-15.96-35.77
		c-7.31,1.93-16.13-0.88-19.66-7.84c4.3799,1.22,7.84,4.69,12.4,5.36c3.73,0.86,7.48-0.24,10.63-2.27l0.65-0.34
		c3.8-1.43,6.6-4.49,8.47-8.01c0.86-2.79-0.14-5.54-1.4-8.02c-1.23,0.14-2.44,0.3-3.65,0.44c-1.13-1.83-1.41-4.77-3.83-5.32
		c-5.94-1.74-12.92-1.48-17.99,2.4c-3.13,2.39-6.18,5.42-7.23,9.33c-0.63,3.21,0.29,6.43,0.79,9.59c-3.14-2.19-3.86-6.09-4.31-9.61
		c-5.67-1.81-11.15-4.11-16.74-6.08c-2.05-0.77-4.41-1.44-5.5-3.52c-1.05-1.42-1.55-4.29,0.53-5.01c5.6201,1.6,10.98,4.05,16.5,5.96
		c2.84,0.82,5.02,2.86,7.47,4.41c3.47-5.51,9.53-9.01,15.91-9.89c2.41-0.22,4.87,0.06,7.27-0.42c-2.14-0.35-4.3-0.3-6.44-0.27
		c0-0.46,0-1.39,0-1.86l0.67,0.06c0.41,0.04,1.23,0.12,1.64,0.16c3.83,0.26,7.61,1.12,11,2.98c3.29-2.81,6.28-5.95,9.56-8.78
		c2.44-2.2,4,2.2,4.07,4.08c-2.28,3.59-5.67,6.22-8.73,9.1c2.06,2.92,4,6.37,3.2,10.1c-1.16,5.28-5.67,8.99-10.22,11.45
		c3.93,13.44,7.86,27.17,15.38,39.13c7,9.88,15.34,18.79,24.29,26.91c2.74-5.9,5.34-11.85,7.98-17.79c0.92-1.91,1.03-4.05,1.23-6.11
		c10.03,2.26,19.6299,6.12,29.4999,9.01c5.8,1.53,11.3401,4.53,17.4701,4.38c10.58,3.87,21.7799,6.38,33.1,6
		c18.91-0.43,37.13-7.8,52.5-18.5c14.95-16.16,29.11-33.06,44.16-49.14c3.2899,3.92,6.7799,7.67,10.13,11.55
		c4.8899-7.79,9.5699-15.8,12.7899-24.44c3.9701-12.7,5.4701-26.08,5.86-39.33c-0.0299-1.1-0.0199-2.19,0.04-3.27
		c0.33-0.04,0.98-0.11,1.3-0.14c0.4299,0.37,1.3099,1.12,1.74,1.49C1220.48,273.78,1223.46,273.5,1226.35,272.72 M1216.27,287.07
		c0.9399-3.71,2.0499-7.49,1.72-11.37C1216.01,279.13,1216.5699,283.28,1216.27,287.07 M960.26,332.22
		C960.8,332.77,960.8,332.77,960.26,332.22 M956.98,334.79c0.05,4.02,2.35,7.53,3.89,11.13
		C959.82,342.14,959.32,338.04,956.98,334.79 M1186.15,336.93c1.8199,2.99,4.22,5.63,6.9199,7.87
		C1190.9,342.06,1188.54,339.47,1186.15,336.93 M1198.41,338.35c-1.0601,0.52-1.91,2.17-1.14,3.23
		C1198.63,341.98,1200.24,338.48,1198.41,338.35 M1197.24,349.86c4.64,4.94,8.58,10.58,13.8,14.96
		C1206.36,359.91,1202.38,354.29,1197.24,349.86 M990.32,393.99c-0.29,1.4,0.26,1.98,1.66,1.77
		C992.22,394.4,991.66,393.81,990.32,393.99 M992.53,396.51c1.84,3.07,4.55,5.78,4.5,9.64c0.7-1.31,1.37-2.63,2.0699-3.94
		C996.94,400.27,995.03,398,992.53,396.51 M995.05,441.06c13.29,6.07,26.73,11.82,40.1,17.72c2.2999,1.04,4.64,2.09,7.16,2.53
		c-1.4701-2.35-4.39-2.78-6.7001-3.9C1022.08,451.99,1008.81,445.85,995.05,441.06 M1128.75,531.69
		c-6.88,0.49-13.3101,3.33-19.89,5.17c-8.3199,2.96-16.97,5.13-24.95,8.94c3.8099-0.37,7.5399-1.31,11.1-2.71
		c7.11-2.75,14.35-5.15,21.64-7.38c3.8199-1.2,7.88-1.79,11.45-3.71c19.1-4.27,39.42-5.59,58.34,0.26
		c-5.71-2.76-12.23-3.13-18.4299-3.95C1154.88,526.72,1141.46,528.31,1128.75,531.69 M1052.1,559.74
		c22.02-5.9,44.23-11.66,66.98-13.73c9.9-1.55,19.91-1.82,29.92-1.65c12.48-0.41,24.86,1.42,37.1801,3.21
		c-2.3301-1.37-5.0801-1.5-7.67-1.86C1135.98,539.91,1092.84,547.44,1052.1,559.74 M1188.84,609.6
		c-4.49,0.56-9.1699,0.46-13.37,2.34c5.54,0.27,11-1.09,16.5601-1.02c3.4299-0.27,7.25,0.44,10.28-1.63
		C1197.83,608.48,1193.3,609.08,1188.84,609.6 M1162.14,617.11c7.1899,12.01,12.87,24.84,17.6,37.99
		c-2.15-13.55-7.05-26.53-12.23-39.19C1165.7,616.27,1163.92,616.69,1162.14,617.11 M1065.71,620.74c9.63-0.81,19.3401-1,28.9,0.75
		c7.48,0.89,14.48,3.78,21.76,5.53c-0.46-1.33-1.45-2.28-2.8-2.61c-7.61-2.72-15.5599-4.44-23.59-5.22
		C1081.9301,618.55,1073.46,618.16,1065.71,620.74 M1052.6899,622.85c3.4701-0.04,6.9-0.6,10.3301-1.17
		c-0.03-0.38-0.0801-1.15-0.11-1.53C1059.4301,620.78,1055.95,621.47,1052.6899,622.85 M1263.92,694.21
		c2.2799,0.9,4.59,1.83,7.01,2.38c0.5699-0.73,1.0599-1.51,1.46-2.35C1269.5601,694,1266.73,694.01,1263.92,694.21
		 M1235.4301,703.49c-11.6901,5.19-22.9401,11.33-33.8201,18.04c-1.99,1.41-4.4299,1.67-6.78,1.78c-0.35-2.13-0.48-4.28-0.35-6.42
		c-0.58,0.96-1.96,1.7-1.63,3.02c0.4401,1.94-1.02,5.98,2.27,5.3701c8.1801-0.1201,16.36-0.79,24.5-1.75
		c11.47-1.44,22.46-5.6801,32.34-11.6201c6.4501-3.94,13.16-7.89,18.03-13.8C1258.33,693.69,1246.09,698.69,1235.4301,703.49
		 M1187.4301,700.9c-0.8301,8-0.1001,16.0699-0.7001,24.09c0.67,0.01,2.01,0.01,2.6901,0.01
		C1188.9301,716.95,1188.37,708.9,1187.4301,700.9 M959.04,701.92c0.26,0.54,0.79,1.62,1.05,2.16c2.35-0.58,4.7-1.17,7.04-1.81
		C964.47,701.6,961.73,701.68,959.04,701.92 M962.19,705.26c-0.32,1.79,1.59,2.81,2.64,3.96c7.19,6.1,15.37,10.9901,23.85,15.08
		c11.03,5.24,23.26,7.24,35.36,7.89c4.2899,0.24,8.64,0.01,12.86,0.96c0.3099-0.23,0.9299-0.69,1.24-0.9301
		c0.24-2.61,1.85-6.09-1.17-7.61c-0.03,1.51-0.0499,3.02-0.0699,4.55c-1.49,0.97-3.3201,2.26-5.03,0.97
		c-16.08-9.52-32.48-18.85-50.29-24.75C975.31,703.82,968.38,703.07,962.19,705.26 M1042.05,732.69
		c0.6899-0.04,2.0599-0.13,2.75-0.17c-0.49-8.19-0.39-16.39-0.24-24.58C1042.55,716.01,1042.6801,724.43,1042.05,732.69z"/>
	<path fill="#FFFFFE" d="M1207.77,269.18c2.0499,0.85,4.13,1.63,6.24,2.36c-0.64,0.07-1.9401,0.21-2.59,0.28
		C1210.1899,270.95,1208.96,270.09,1207.77,269.18z"/>
	<path fill="#1F1D1B" d="M1566.09,268.3c4.65,3.21,5.48,9.06,7.78,13.84c0.6901,2.02,2.02,3.97,1.99,6.17
		c-0.01,0.22-0.04,0.66-0.0499,0.88c-0.42-0.33-1.25-0.98-1.67-1.31c-0.12,0.89-0.36,2.67-0.48,3.57c-2.3-3.4-3.36-7.41-5.01-11.12
		C1567.1801,276.47,1564.55,272.58,1566.09,268.3z"/>
	<path fill="#1F1A17" d="M1673.2,275.15c0.42-2.11,2.25-4.44,4.64-3.98c2.63,0.66,4.67,2.61,6.41,4.62
		c4.41,5.24,7.22,11.57,9.9,17.82c2.5699-4.1,4.6899-9.04,9.15-11.45c2.83-0.93,4.3099,2.61,4.6599,4.84
		c0.79,9.05-2.4099,17.72-4.99,26.22c16.53-7.04,36-8.26,52.63-0.85c7.3301,3.4,15.05,7.35,19.6901,14.23
		c1.5499-2.02,2.73-5.24,5.6799-5.36c3.12,1.23,2.9501,5.4,3.3301,8.19c4.4199-2.14,11.3099-5.56,15.09-0.67
		c-3.27-0.71-6.64-0.98-9.9-0.17c2.21,0.26,4.45,0.44,6.71,0.62c-0.35,1.92-0.71,3.84-1.08,5.76c0.95-0.91,1.92-1.81,2.97-2.64
		c0.37,0.06,1.11,0.17,1.48,0.23c-1.36,4.23-4.59,7.41-7.83,10.28c3.42,1.48,7.04,2.94,9.49,5.9c-1.1899,0.66-2.33,1.32-3.4199,2.05
		c1.2799-0.33,2.58-0.66,3.8999-1.01c-2.13,4.22-7.6599,2.22-11.4299,2.75c0.98,4.1,2.59,8.13,2.45,12.41
		c-0.0599,5.65,0.59,11.43-0.8099,16.98c-2.16,8.29-4.92,16.49-9.24,23.94c8.6399-3.95,18.1-5.98,27.6-5.94
		c-1.0601,0.55-2.0901,1.1-3.11,1.65c1.01,0.41,2.0399,0.83,3.09,1.26c-9.48-0.24-19.33,0.82-27.59,5.82
		c2.0599,0.22,4.1499,0.41,6.26,0.59c-0.7301-0.75-1.4401-1.5-2.12-2.24c8.1399-2.02,16.6899-4.23,25.0599-2.04
		c-0.12-0.59-0.36-1.76-0.48-2.35c0.96,0.78,1.83,1.78,3.0499,2.25c1.51-0.34-0.2999-2.24-0.7599-2.84l1.22,0.04
		c1.89-0.26,1.4199,2.62,1.0499,3.74c-2.7899,3.93-7.49,5.79-11.5699,8.05c7.42,3.72,15.46,7.43,20.45,14.38
		c1.91,2.24,1.4601,6.14-1.6599,6.99c-7.51,2.26-15.3501-0.29-22.5901-2.41c0.8501,3.53,3.4,8.29,0.25,11.3
		c-4.88,1.1-8.95-2.65-12.14-5.8c-6-6.37-11.1-13.96-13.1599-22.57c-12.72,14.11-31.47,22.78-50.5601,22.18
		c-10.6899-0.47-21.58-3.22-30.39-9.51c-10.08-7.13-17.24-17.72-21.99-28.99c-5.02-12.09-7.76-25.29-6.8099-38.41
		c0.5499-8.7,4.47-16.66,7.74-24.59c2.34-6.05,7.52-10.26,12.59-13.99c0.5601,0.09,1.7001,0.26,2.26,0.35
		c-1.78,2.84-3.11,5.92-4.55,8.94c1.1901-0.45,2.4-0.89,3.64-1.32c-2.4199,3.24-5.48,5.89-8.34,8.71
		c-2.96,2.86-4.02,6.97-5.36,10.72c-3.34,9.45-3.6801,20.11-0.16,29.56c4.79,14.04,12.13,27.72,23.65,37.36
		c8.34,6.93,19.24,9.85,29.85,10.9c9.16,0.55,18.72,0.06,27.24-3.68c3.48-1.35,7-2.8,9.9501-5.17
		c19.1599-15.13,27.39-42.57,19.6699-65.74c-1.26-4.25-6.86-4.5-8.76-8.25c-1.2799-2.74-1.37-5.81-1.74-8.76l-0.14-0.84
		c-0.2699-1.62-1.1399-3.05-2.2999-4.16c-6.37-6.57-14.2001-11.8-22.8201-14.91c-7.5599-2.81-15.7899-3.15-23.74-2.33
		c-7.6599,0.97-14.76,4.19-21.5399,7.7c-3.04,1.17-5.75,3.01-8.04,5.31c-1.66,1.69-3.78,2.77-6.01,3.44
		c0.5699-2.77,1.58-5.42,2.83-7.95c-0.6499-0.13-1.95-0.41-2.6-0.54c-3.85-0.34-6.83-2.94-9.9-4.99
		c-5.5699-3.96-11.1-8.41-14.51-14.43c-0.95-2.12-2.0299-4.88-0.6299-7.02c3.46-2.41,7.7,0.07,11.1299,1.38
		C1673.11,289.75,1671.74,282.37,1673.2,275.15 M1675.88,272.96c1.96,1.06,4.01,1.98,6.08,2.89
		C1680.25,274.3,1678.36,272.65,1675.88,272.96 M1674.74,278.04c-0.45,7.21,1.5,14.4,4.15,21.05c-0.47-5.69-2.84-11.22-2.04-16.99
		c0.27-1.75,2.09-2.66,3.5801-1.58c4.4099,3.03,6.49,8.22,9.45,12.49c-2.37-6.05-5.63-12.03-10.51-16.43
		C1677.8,274.88,1674.75,275.49,1674.74,278.04 M1703.8199,283.41c1.2101,2.28,2.3501,4.63,2.92,7.18l0.17,0.05
		C1706.24,288.14,1706.9301,284.32,1703.8199,283.41 M1695.6,295.57c-0.73,1.48,0.22,3.02,0.52,4.49c1.48,4.9,2.02,10,2.4301,15.09
		c0.3999-0.78,0.7899-1.57,1.1599-2.38c-0.3199-4.03-1.62-7.91-2.87-11.73c1.87-4.29,3.28-9.7,8.0901-11.61
		c-0.65-1.57-0.7101-3.89-2.88-3.92C1698.61,287.81,1697.16,291.94,1695.6,295.57 M1664.76,297.8c0.47,1.34,1.01,2.68,1.5599,4.02
		c4.2201-1.19,8.1101,1.16,11.9,2.7c-0.83-4.65-5.7-5.96-9.5699-7.17C1667.3101,296.85,1666,297.46,1664.76,297.8 M1680.8,303.61
		c1.09,4.43,5.6,6.31,8.6899,9.18c0-0.55,0-1.63,0-2.18C1686.72,308.12,1684.1,305.38,1680.8,303.61 M1694.39,311.15
		c0.21-2.31,0.12-4.65-0.58-6.87C1692.89,306.58,1690.65,310.37,1694.39,311.15 M1691.34,313.07c0.2001,2.18,0.52,4.35,1.11,6.47
		c0.51-0.63,1.51-1.87,2.02-2.5C1693.4301,315.69,1692.4301,314.35,1691.34,313.07 M1683.24,314.36c-0.65,1.32,0.73,3.95,2.34,3.59
		C1685.99,316.63,1684.67,314.27,1683.24,314.36 M1680.0601,401.06c3.2999,5.87,5.9199,12.28,10.95,16.95
		c8.8199,9.73,22.1,14.25,35.01,14.41c7.52-0.1,15.33-0.96,22.21-4.2c-5.08,0.43-10.08,1.62-15.1899,1.6
		c-8.0601-0.03-16.13-1.39-23.7201-4.09c-7.4299-2.52-13.8099-7.29-19.85-12.16C1685.27,410.26,1683.16,405.26,1680.0601,401.06
		 M1784.6899,411.59c1.1201,2.11,3,3.61,5.2001,4.53C1788.66,414.08,1787.0699,412.21,1784.6899,411.59 M1776.83,413.15
		c2.03,1.64,4.65,2.15,7.15,2.69C1781.6801,414.72,1779.3,413.75,1776.83,413.15 M1780.17,416.92c1.4299,2.13,3.48,3.73,5.6,5.15
		C1784.0601,420.18,1782.26,418.37,1780.17,416.92 M1803.1,417.21c6.99,3.99,15.22,7.88,18.5601,15.73
		c0.0699-0.74,0.21-2.23,0.2899-2.98C1816.37,424.77,1810.1899,420.13,1803.1,417.21 M1779.4,420.69
		c3.33,7.9,8.64,14.97,15.3099,20.36c-3.2899-3.35-6.89-6.47-9.36-10.51C1783.11,427.4,1781.71,423.76,1779.4,420.69
		 M1821.95,429.96c0.76,0.63,0.7201,2.59,1.9601,2.51C1825.59,430.89,1821.88,426.22,1821.95,429.96 M1796.33,431.04
		c1.4601,3.09,2.63,6.36,2.7201,9.83c-0.63,0.74-1.24,1.5-1.8201,2.28c0.8101-0.48,1.64-0.97,2.48-1.46
		C1799.4399,437.92,1798.16,434.32,1796.33,431.04z"/>
	<path fill="#F5C5B5" d="M1215.79,272.69c3.5-0.41,7.0399-0.19,10.5599,0.03c-2.89,0.78-5.87,1.06-8.8199,1.46
		C1217.1,273.81,1216.22,273.06,1215.79,272.69z"/>
	<path fill="#1E1A1A" d="M1583.72,286.97c0-5.08,1.1901-10.12,2.2001-15.09c0.36,0.89,1.08,2.65,1.45,3.54
		c-1.1801,4.17-2.08,8.61-1,12.9c-0.45-0.03-1.35-0.11-1.8-0.14C1584.35,287.88,1583.9301,287.27,1583.72,286.97z"/>
	<path fill="#FEFFFE" d="M1675.88,272.96c2.48-0.31,4.37,1.34,6.08,2.89C1679.89,274.94,1677.84,274.02,1675.88,272.96z"/>
	<path fill="#191614" d="M1211.25,275.03c0.1899-1.47,0.75-1.53,1.67-0.19C1212.51,274.89,1211.67,274.98,1211.25,275.03z"/>
	<path fill="#252422" d="M1587.8101,274.66c2.4399-1.72,1.62,4.03,0.7599,5.23C1588.22,278.16,1587.91,276.42,1587.8101,274.66z"/>
	<path fill="#635E5C" d="M1587.37,275.42l0.4401-0.76c0.1,1.76,0.4099,3.5,0.7599,5.23c0.0801,0.44,0.2301,1.31,0.3,1.75l-0.88,0.54
		c-1.59,0.59-1.41,2.61-0.52,3.73c0.2101,0.39,0.61,1.18,0.8201,1.58c1.77,0.68,3.5499,1.44,5.11,2.6
		c-2.63-0.04-5.26-0.07-7.8201-0.54c-0.26-0.34-0.76-1.03-1.01-1.37c0.4501,0.03,1.3501,0.11,1.8,0.14
		C1585.29,284.03,1586.1899,279.59,1587.37,275.42z"/>
	<path fill="#FEFFFE" d="M1216.27,287.07c0.2999-3.79-0.26-7.94,1.72-11.37C1218.3199,279.58,1217.21,283.36,1216.27,287.07z"/>
	<path fill="#FDFDFB" d="M1674.74,278.04c0.01-2.55,3.0601-3.16,4.63-1.46c4.88,4.4,8.14,10.38,10.51,16.43
		c-2.96-4.27-5.04-9.46-9.45-12.49c-1.4901-1.08-3.3101-0.17-3.5801,1.58c-0.7999,5.77,1.5701,11.3,2.04,16.99
		C1676.24,292.44,1674.29,285.25,1674.74,278.04z"/>
	<path fill="#201915" d="M1025.4399,279.42c4.5-2.79,11.3301,1.69,10.01,6.95c-1.22,4.6-7.85,5.21-10.7899,1.97
		C1022.09,286.04,1022.17,281.06,1025.4399,279.42z"/>
	<path fill="#060201" d="M1149.02,298c0.12-5.83-0.5701-11.75,0.79-17.49c0.7699,8.92,1.5,18.08-0.0801,26.95
		C1149.29,304.32,1148.95,301.17,1149.02,298z"/>
	<path fill="#161211" d="M1587.47,285.91c-0.89-1.12-1.0699-3.14,0.52-3.73C1588.64,283.53,1588.47,284.77,1587.47,285.91z"/>
	<path fill="#1F1818" d="M1550.9,282.59c6.51,3.64,13.63,6.73,18.89,12.16c1.84-1.53,3.8199-2.88,5.9199-4.07
		c0.02-0.37,0.0701-1.11,0.1001-1.49c0.0099-0.22,0.0399-0.66,0.0499-0.88c2.6901,0.29,5.23-0.88,7.86-1.34
		c0.2101,0.3,0.63,0.91,0.85,1.21c0.25,0.34,0.75,1.03,1.01,1.37c2.5601,0.47,5.1901,0.5,7.8201,0.54c0.96,0.42,1.91,0.91,2.86,1.46
		c3.54-2.17,6.85-4.78,10.67-6.49c0.3999,1.51,1.49,3.02,1.13,4.64c-2.3601,2.6-5.52,4.23-8.3701,6.22
		c1.2201,3.18,2.4,7.02,0.3701,10.15c-1.9501,3.63-5.9401,5.09-9.3401,6.94c1.05,11.11,2.49,22.35,6.39,32.87
		c3.74,8.73,9.13,16.64,14.64,24.33c0.72,0.89,1.5699,2.86,3.02,1.69c5.83-3.08,11.59-6.29,17.4299-9.37
		c5.9701,14.28,11.3601,28.8,17.1101,43.17c1.2699,3.04,2.1399,6.3,3.9299,9.12c10.28,14.33,24.67,26.39,41.9301,31.09
		c6.72,2.03,13.7799,2.46,20.7699,2.73c8.3201,2.78,17.0801,3.87,25.6201,5.84c9.62,2.23,19.4199,3.67,29.2699,4.4
		c0.17,4.67,0.3201,9.35,0.7301,14.01c8.49-2.95,16.5699-6.91,24.75-10.62c8.9099-4.08,18.3999-6.67,27.4199-10.51
		c7.9-3.24,15.54-7.07,23.25-10.75c1.01-0.68,2.55-0.84,3.14-2.04c-0.88-3.93-2.14-8.27-0.26-12.12c1.3201-3.18,4.85-4.24,7.75-5.5
		c-0.64-3.63-1.16-7.33-0.51-11c1.3-0.45,2.62-0.92,3.97-1.37c1.26,4.05,1.28,8.35,2.1001,12.51c1.6599,0.49,3.35,1.03,5.0299,1.61
		c-0.72,0.58-1.4199,1.16-2.09,1.75c-4.26-2.47-10.75-2.78-13.58,1.93c-1.39,3.78-1.77,8.24,0.28,11.85
		c0.5299,1.08,1.1499,2.13,1.8099,3.17c0.8199,1.46,2.08,2.7,3.59,3.51c3.3301,2.05,7.1801,2.99,11.05,3.44
		c-6,2.65-12.8-0.65-16.58-5.52c-11.0601,6.05-22.6801,10.96-33.9601,16.55c-15.09,7.18-29.97,15.4-46.33,19.32
		c0.5599,11.66,3.25,23.75-0.3101,35.18c-0.98-1.42-1.95-2.82-2.8099-4.27c0.54-0.06,1.62-0.17,2.16-0.23
		c-0.38-2.88-0.5601-5.78-0.8-8.67c-1.7-13.25-2.65-26.62-4.64-39.83c-13.7-2.15-27.46-3.88-41.15-6.08
		c-9.7999-1.77-19.96-1.35-29.5-4.52c-13.12-3.54-25.2-10.61-34.7-20.32c-5.47-5.67-11.23-11.51-14.01-19.04
		c-5.3199-13.46-10.51-26.98-15.85-40.43c-8.89,4.24-18.66,6.46-27.0701,11.68c0.66,0.18,1.98,0.55,2.65,0.73
		c-1.67,1-3.33,1.99-4.97,2.99c2.5599,8.81,5.23,17.59,7.89,26.38c2.0399,6.69,3.2,13.68,6.15,20.08
		c-1.76-0.34-3.51-0.67-5.2401-0.97c-5.2-16.4-10.0099-32.91-15.0099-49.37c4.2799-2.29,8.5399-4.63,12.88-6.82
		c-5.6201-10.05-11.0801-20.31-14.2001-31.45c-1.9399-8.32-4.74-16.43-6.35-24.83l0.59-0.35c1.14,0.41,1.65,1.32,1.53,2.73
		l0.24-0.04c-0.55-2.89-0.46-5.96-1.67-8.67c-0.09,1.64-0.21,3.29-0.37,4.93c-1.61-0.65-1.1799-2.97-1.88-4.32
		c-6.4299,0.36-13.3999-3.37-15.0499-9.86c3.53,2.65,6.7,6.09,11.15,7.21c1.86,0.67,3.9299,0.39,5.85-0.06
		c3.64-0.74,7.7-1.8,9.84-5.15c1.9-2.28,1.14-5.34,0.92-8.02c-1.12-0.11-2.2101-0.21-3.29-0.31c-0.48-1.51-0.95-3.02-1.4-4.53
		c-5.28-2.08-11.5-3.46-16.78-0.65c-2.7899,1.56-5.7899,3.57-6.8999,6.71c-0.9601,2.51-0.52,5.22-0.51,7.82
		c-2.49-2.11-2.41-5.55-2.2001-8.52c-5.0699-2.83-10.11-5.73-15.0399-8.77C1550.11,288.09,1549.46,284.91,1550.9,282.59
		 M1606.02,364.98c1.77,3.24,3.16,6.97,6.14,9.33C1611.21,370.65,1608.3199,367.86,1606.02,364.98 M1803.1801,464.97
		c14.61-6.47,29-13.46,43.46-20.28c2.01-1.02,4.35-1.75,5.61-3.8C1835.65,448.37,1819.49,456.87,1803.1801,464.97 M1772.27,474.4
		c-0.1801,0.44-0.53,1.33-0.7001,1.77c3.6801-0.87,7.2001-2.29,10.5701-4.03c6.84-3.53,13.9-6.64,20.77-10.11
		C1792.53,465.74,1782.76,470.98,1772.27,474.4z"/>
	<path fill="#FEFFFE" d="M1703.8199,283.41c3.1101,0.91,2.42,4.73,3.0901,7.23l-0.17-0.05
		C1706.17,288.04,1705.03,285.69,1703.8199,283.41z"/>
	<path fill="#FDFCFB" d="M1695.6,295.57c1.5601-3.63,3.01-7.76,6.4501-10.06c2.1699,0.03,2.23,2.35,2.88,3.92
		c-4.8101,1.91-6.2201,7.32-8.0901,11.61c1.25,3.82,2.55,7.7,2.87,11.73c-0.37,0.81-0.76,1.6-1.1599,2.38
		c-0.41-5.09-0.9501-10.19-2.4301-15.09C1695.8199,298.59,1694.87,297.05,1695.6,295.57z"/>
	<path fill="#1E1A19" d="M922.26,286.93c2.15,1.78,4.75,3.18,6.1,5.73c3.47,5.95,7.66,11.49,10.67,17.7c-1.2-0.64-2.3-1.4-3.38-2.21
		c0.02,1.02,0.04,3.06,0.06,4.08c-1.63-0.7-2.32-2.37-3.27-3.71c-3.14-5.18-6.51-10.21-9.57-15.43
		C921.71,291.24,922.23,288.98,922.26,286.93z"/>
	<path fill="#1B1A18" d="M946.02,287.57c1.12,0.94,2.49,1.86,2.71,3.45c0.34,4.74,0.05,9.51,0.14,14.26c0,0.47,0,1.4,0,1.86
		c-0.7-0.06-2.09-0.19-2.79-0.25l0.22-0.81C946.32,299.94,945.8,293.74,946.02,287.57z"/>
	<path fill="#010101" d="M949.44,289.49l1.56-0.14c-0.04,5.39,0.12,10.77,0.18,16.15c-0.41-0.04-1.23-0.12-1.64-0.16
		C949.51,300.06,949.54,294.77,949.44,289.49z"/>
	<path fill="#8F5444" d="M1577.1899,292.22c5.28-2.81,11.5-1.43,16.78,0.65c0.4501,1.51,0.92,3.02,1.4,4.53
		c1.08,0.1,2.17,0.2,3.29,0.31c0.22,2.68,0.98,5.74-0.92,8.02c-2.14,3.35-6.2,4.41-9.84,5.15c-1.65-1.55-4.2101-1.37-5.85,0.06
		c-4.4501-1.12-7.62-4.56-11.15-7.21c-0.23-1.6-0.5-3.19-0.61-4.8C1571.4,295.79,1574.4,293.78,1577.1899,292.22z"/>
	<path fill="#FCFCFB" d="M1664.76,297.8c1.24-0.34,2.55-0.95,3.89-0.45c3.87,1.21,8.74,2.52,9.5699,7.17
		c-3.7899-1.54-7.6799-3.89-11.9-2.7C1665.77,300.48,1665.23,299.14,1664.76,297.8z"/>
	<path fill="#FFFFFE" d="M1680.8,303.61c3.2999,1.77,5.9199,4.51,8.6899,7c0,0.55,0,1.63,0,2.18
		C1686.4,309.92,1681.89,308.04,1680.8,303.61z"/>
	<path fill="#FFFFFE" d="M1694.39,311.15c-3.74-0.78-1.5-4.57-0.58-6.87C1694.51,306.5,1694.6,308.84,1694.39,311.15z"/>
	<path fill="#1E1A19" d="M939.56,308.97c1.83-1.75,4.29-2.52,6.74-2.89l-0.22,0.81C944.04,307.94,941.79,308.5,939.56,308.97z"/>
	<path fill="#8F5444" d="M940.62,312.65c5.07-3.88,12.05-4.14,17.99-2.4c2.42,0.55,2.7,3.49,3.83,5.32c1.21-0.14,2.42-0.3,3.65-0.44
		c1.2599,2.48,2.2599,5.23,1.4,8.02c-0.2-0.15-0.59-0.46-0.79-0.62c-1.95,3.39-4.79,6.07-7.68,8.63l-0.65,0.34
		c-3.63,0.31-7.17,1.17-10.63,2.27c-4.56-0.67-8.02-4.14-12.4-5.36c-0.77-2.1-1.58-4.21-1.95-6.43
		C934.44,318.07,937.49,315.04,940.62,312.65z"/>
	<path fill="#BCA195" d="M1582.05,310.94c1.6399-1.43,4.2-1.61,5.85-0.06C1585.98,311.33,1583.91,311.61,1582.05,310.94z"/>
	<path fill="#FFFFFE" d="M1691.34,313.07c1.0901,1.28,2.0901,2.62,3.13,3.97c-0.51,0.63-1.51,1.87-2.02,2.5
		C1691.86,317.42,1691.54,315.25,1691.34,313.07z"/>
	<path fill="#F6C5B4" d="M1724.46,313.81c7.9501-0.82,16.1801-0.48,23.74,2.33c8.62,3.11,16.4501,8.34,22.8201,14.91
		c1.16,1.11,2.03,2.54,2.2999,4.16c-2.7699-5.3-8.2-8.44-13.0099-11.66c-9.7401-5.68-20.8201-10.08-32.3-9.27
		c-8.95-0.18-16.98,4.09-25.09,7.23C1709.7,318,1716.8,314.78,1724.46,313.81z"/>
	<path fill="#FFFFFE" d="M1683.24,314.36c1.4301-0.09,2.75,2.27,2.34,3.59C1683.97,318.31,1682.59,315.68,1683.24,314.36z"/>
	<path fill="#311710" d="M1702.92,321.51c8.11-3.14,16.14-7.41,25.09-7.23c11.48-0.81,22.5599,3.59,32.3,9.27
		c4.8099,3.22,10.24,6.36,13.0099,11.66l0.14,0.84c-5.08-2.96-9.11-7.41-14.24-10.28c-13.03-8-29.52-12-44.33-6.83
		c-6.33,2.11-12.03,5.61-17.8201,8.83c-0.5499-0.24-1.6399-0.72-2.1899-0.95C1697.17,324.52,1699.88,322.68,1702.92,321.51z"/>
	<path fill="#8F5444" d="M1714.89,318.94c14.8099-5.17,31.2999-1.17,44.33,6.83c5.13,2.87,9.16,7.32,14.24,10.28
		c0.37,2.95,0.4601,6.02,1.74,8.76c1.9,3.75,7.5,4,8.76,8.25c7.7201,23.17-0.51,50.61-19.6699,65.74
		c-3.63,1.87-7.39,3.45-11.12,5.05c0.2899,0.03,0.87,0.09,1.1699,0.12c-8.52,3.74-18.08,4.23-27.24,3.68
		c-10.61-1.05-21.51-3.97-29.85-10.9c-11.52-9.64-18.86-23.32-23.65-37.36c-3.52-9.45-3.1799-20.11,0.16-29.56
		c1.34-3.75,2.4-7.86,5.36-10.72c2.86-2.82,5.92-5.47,8.34-8.71c-1.24,0.43-2.45,0.87-3.64,1.32c1.4401-3.02,2.77-6.1,4.55-8.94
		c0.1901-0.26,0.55-0.76,0.73-1.01c0.65,0.13,1.9501,0.41,2.6,0.54c-1.25,2.53-2.26,5.18-2.83,7.95c2.23-0.67,4.35-1.75,6.01-3.44
		c0.55,0.23,1.64,0.71,2.1899,0.95C1702.86,324.55,1708.5601,321.05,1714.89,318.94 M1740.1899,326.43
		c-4.0599,0.42-6.5099,5.95-3.74,9.1c1.87,2.41,5.87,1.9,7.52-0.53C1746.89,332,1744.52,326.08,1740.1899,326.43 M1700.89,330.99
		c-2.39,9.69-3.88,19.91-1.74,29.8c1.0699,6.72,4.4,12.67,7.9,18.37c0.09,3.67-2.0801,7.09-2.2101,10.81
		c-0.62,3.67,0.62,8.47,4.7201,9.45c5.7799,1.33,11.45-1.16,16.87-2.88c1.71-0.82,3.38,0.4,4.97,1.02
		c7.48,3.79,15.5599,6.17,23.61,8.41c4.33,1.05,8.7,2.66,13.23,1.97c-3.78-2.28-8.3099-2.46-12.45-3.66
		c-15.26-3.9-30.7001-9.75-42.23-20.85c-8.5601-8.06-13.42-19.67-13.55-31.39c-0.38-7.9,1.65-15.58,3.05-23.28
		C1701.86,329.09,1701.14,329.83,1700.89,330.99 M1767.21,368.49c-2.96,0.38-5.3999,3.37-4.4299,6.37
		c1.53,4.84,10.1,4.32,10.59-0.91C1773.91,370.56,1770.3199,367.99,1767.21,368.49z"/>
	<path fill="#F5C5B5" d="M966.7,322.53c0.2,0.16,0.59,0.47,0.79,0.62c-1.87,3.52-4.67,6.58-8.47,8.01
		C961.91,328.6,964.75,325.92,966.7,322.53z"/>
	<path fill="#211816" d="M1740.1899,326.43c4.3301-0.35,6.7001,5.57,3.78,8.57c-1.65,2.43-5.65,2.94-7.52,0.53
		C1733.6801,332.38,1736.13,326.85,1740.1899,326.43z"/>
	<path fill="#55514F" d="M1789.49,328.59c3.26-0.81,6.63-0.54,9.9,0.17l0.67,0.13c-0.03,1.24-0.01,2.5,0.0499,3.75l-0.54-0.08
		c-0.37-0.06-1.11-0.17-1.48-0.23c-1.0499,0.83-2.02,1.73-2.97,2.64c0.37-1.92,0.73-3.84,1.08-5.76
		C1793.9399,329.03,1791.7,328.85,1789.49,328.59z"/>
	<path fill="#201916" d="M1700.89,330.99c0.25-1.16,0.97-1.9,2.17-2.23c-1.4,7.7-3.4301,15.38-3.05,23.28
		c0.13,11.72,4.99,23.33,13.55,31.39c11.5299,11.1,26.97,16.95,42.23,20.85c4.14,1.2,8.6699,1.38,12.45,3.66
		c-4.53,0.69-8.9-0.92-13.23-1.97c-8.05-2.24-16.13-4.62-23.61-8.41c-1.59-0.62-3.26-1.84-4.97-1.02
		c-5.42,1.72-11.0901,4.21-16.87,2.88c-4.1001-0.98-5.3401-5.78-4.7201-9.45c0.13-3.72,2.3-7.14,2.2101-10.81
		c-3.5-5.7-6.8301-11.65-7.9-18.37C1697.01,350.9,1698.5,340.68,1700.89,330.99z"/>
	<path fill="#B0958C" d="M947.74,333.77c3.46-1.1,7-1.96,10.63-2.27C955.22,333.53,951.47,334.63,947.74,333.77z"/>
	<path fill="#9E958D" d="M960.26,332.22C960.8,332.77,960.8,332.77,960.26,332.22z"/>
	<path fill="#FEFFFE" d="M956.98,334.79c2.34,3.25,2.84,7.35,3.89,11.13C959.33,342.32,957.03,338.81,956.98,334.79z"/>
	<path fill="#FFFFFE" d="M1186.15,336.93c2.39,2.54,4.75,5.13,6.9199,7.87C1190.37,342.56,1187.97,339.92,1186.15,336.93z"/>
	<path fill="#00923F" d="M1184.15,338.05c2.4399,2.54,4.75,5.19,6.96,7.94c-0.42,1.34-0.8199,2.69-1.2,4.04
		c1.0299-0.62,2.0699-1.24,3.13-1.85c0.3199,2.2,0.6599,4.4,1.02,6.61c0.9299-0.83,1.8799-1.65,2.83-2.47
		c3.98,4.61,8.22,9.01,12.08,13.72c1.91,1.82-0.52,3.83-1.47,5.44c-8.98,11.43-17.26,23.4-26.36,34.73
		c-2.89,2.79-5.23,6.08-7.47,9.4c-1.3301,1.57-0.75,3.7-0.8301,5.58c-0.7-1.6-1.0399-3.87-2.95-4.46c-2.61-0.51-4.16,2.42-5.02,4.43
		c0.14,5.22,1.71,10.27,2.5699,15.4c2.9401,14.46,5.54,28.99,8.4601,43.46c2.0599,10.16,3.4,20.46,5.98,30.51
		c0.3,3.27,0.89,6.51,1.59,9.74c0.16,1.55,0.3301,3.11,0.52,4.67c-15.05-3.17-30.73-3.83-45.88-0.86
		c-21.28,3.45-41.37,11.54-61.75,18.23c-8.6,2.6-17.1,5.79-26.04,6.95c0.3401-31.5-0.46-63.03,0.7101-94.51
		c-2.78-0.92-5.4301-0.22-7.52,1.78c-17.79-6.15-35.43-12.74-53.09-19.25c1.52-6.26,4.22-12.16,5.57-18.47
		c4.22-9.86,9.43-19.27,13.81-29.06c1.63-3.34,2.78-7.02,5.29-9.85c4.3,0.94,8.22,3.01,12.2599,4.69
		c8.9601,3.68,17.8301,7.58,26.8,11.26c23.74,8.5,50.9199,7.15,73.53-4.17c7.0299-3.69,14.5299-7.06,20.11-12.88
		C1159.95,365.25,1171.78,351.41,1184.15,338.05z"/>
	<path fill="#FFFFFE" d="M1198.41,338.35c1.83,0.13,0.22,3.63-1.14,3.23C1196.5,340.52,1197.35,338.87,1198.41,338.35z"/>
	<path fill="#FCFCFB" d="M1079.99,367c15.49-1.7,29.46-9.81,41.17-19.73c-7.65,8.87-17.35,16.15-28.17,20.69
		c-13.47,5.69-28.9299,4.44-42.4-0.53c-8.7899-3.38-17.0699-8.35-23.7799-14.99C1042.21,363.14,1061.25,368.61,1079.99,367z"/>
	<path fill="#FFFFFE" d="M1197.24,349.86c5.14,4.43,9.12,10.05,13.8,14.96C1205.8199,360.44,1201.88,354.8,1197.24,349.86z"/>
	<path fill="#FFFFFE" d="M1606.02,364.98c2.2999,2.88,5.1899,5.67,6.14,9.33C1609.1801,371.95,1607.79,368.22,1606.02,364.98z"/>
	<path fill="#221916" d="M1767.21,368.49c3.11-0.5,6.7001,2.07,6.16,5.46c-0.49,5.23-9.0599,5.75-10.59,0.91
		C1761.8101,371.86,1764.25,368.87,1767.21,368.49z"/>
	<path fill="#7A3F75" d="M1603.71,382.57c8.41-5.22,18.1801-7.44,27.0701-11.68c5.34,13.45,10.53,26.97,15.85,40.43
		c2.78,7.53,8.54,13.37,14.01,19.04c9.5,9.71,21.58,16.78,34.7,20.32c9.54,3.17,19.7001,2.75,29.5,4.52
		c13.6901,2.2,27.4501,3.93,41.15,6.08c1.99,13.21,2.9401,26.58,4.64,39.83c-0.53-1.03-1.08-2.04-1.59-3.05
		c-0.15-0.3-0.4501-0.9-0.6001-1.2c-0.0199,4.17-0.0199,8.34-0.1,12.51c-12.8199,0.23-25.59-1.22-38.39-1.63
		c-9.99-0.25-19.9299-1.55-29.9199-1.76c-7.53,18.87-14.8201,37.83-22.23,56.74c-7.62,21.69-14.4501,43.66-22.03,65.3701
		c-16.22-10.7401-29.3301-25.38-44.76-37.15c-14.63-11.74-32.39-20.53-51.4401-21.12c1.76-5.41,5.16-10.24,5.9701-15.95
		c2.8099-6.93,7.11-13.12,10.6699-19.66c5.7101-9.94,11.4301-19.87,17.15-29.8c11.01-17.07,14.89-37.51,24.88-55.11
		c1.55-3.44,4.72-7.31,2.55-11.19c-0.6901-2.24-3-0.76-4.5601-0.65c0.34-1.64-0.02-3.26-0.7999-4.71
		c-2.9501-6.4-4.1101-13.39-6.15-20.08c-2.66-8.79-5.3301-17.57-7.89-26.38c1.64-1,3.2999-1.99,4.97-2.99
		C1605.6899,383.12,1604.37,382.75,1603.71,382.57z"/>
	<path fill="#FFFFFE" d="M990.32,393.99c1.34-0.18,1.9,0.41,1.66,1.77C990.58,395.97,990.03,395.39,990.32,393.99z"/>
	<path fill="#FFFFFF" d="M992.53,396.51c2.5,1.49,4.41,3.76,6.5699,5.7c-0.7,1.31-1.37,2.63-2.0699,3.94
		C997.08,402.29,994.37,399.58,992.53,396.51z"/>
	<path fill="#FEFFFE" d="M995.06,416.1c1.76-6.3,5.18-12,7.89-17.93C1000.46,404.2,998.08,410.31,995.06,416.1z"/>
	<path fill="#54504D" d="M1810.28,399.92c1.59,0.53,3.4099,0.81,4.62,2.14l-1.22-0.04c-0.6001,0.03-1.78,0.08-2.38,0.11l0.09,0.48
		c0.12,0.59,0.36,1.76,0.48,2.35c-8.37-2.19-16.92,0.02-25.0599,2.04c0.6799,0.74,1.3899,1.49,2.12,2.24
		c-2.1101-0.18-4.2001-0.37-6.26-0.59c8.26-5,18.11-6.06,27.59-5.82c-1.05-0.43-2.08-0.85-3.09-1.26
		C1808.1899,401.02,1809.22,400.47,1810.28,399.92z"/>
	<path fill="#FDFDFC" d="M1680.0601,401.06c3.1,4.2,5.21,9.2,9.4099,12.51c6.04,4.87,12.42,9.64,19.85,12.16
		c7.5901,2.7,15.66,4.06,23.7201,4.09c5.11,0.02,10.11-1.17,15.1899-1.6c-6.88,3.24-14.6899,4.1-22.21,4.2
		c-12.91-0.16-26.1901-4.68-35.01-14.41C1685.98,413.34,1683.36,406.93,1680.0601,401.06z"/>
	<path fill="#FFFFFE" d="M1811.3,402.13c0.6-0.03,1.7799-0.08,2.38-0.11c0.46,0.6,2.2699,2.5,0.7599,2.84
		c-1.22-0.47-2.09-1.47-3.0499-2.25L1811.3,402.13z"/>
	<path fill="#6C6763" d="M1784.6899,411.59c2.38,0.62,3.9701,2.49,5.2001,4.53C1787.6899,415.2,1785.8101,413.7,1784.6899,411.59z"
		/>
	<path fill="#FFFFFE" d="M1776.83,413.15c2.4701,0.6,4.8501,1.57,7.15,2.69C1781.48,415.3,1778.86,414.79,1776.83,413.15z"/>
	<path fill="#575150" d="M1871.8,425.08c2.8899-3.4,5.9199-6.68,8.88-10.03c0.38,0.53,1.12,1.59,1.49,2.12
		c-3.74,3.39-6.88,7.36-10.12,11.21c-1.37-0.88-2.75-1.71-4.12-2.52c-0.4601-0.25-1.37-0.76-1.8201-1.01
		c0.67-0.59,1.37-1.17,2.09-1.75C1869.37,423.77,1870.5699,424.43,1871.8,425.08z"/>
	<path fill="#C5C5C1" d="M993.56,417.8c0.37-0.42,1.12-1.27,1.5-1.7c-0.15,0.43-0.46,1.27-0.62,1.69L993.56,417.8z"/>
	<path fill="#FFFFFE" d="M1780.17,416.92c2.09,1.45,3.89,3.26,5.6,5.15C1783.65,420.65,1781.6,419.05,1780.17,416.92z"/>
	<path fill="#FFFFFE" d="M1803.1,417.21c7.09,2.92,13.27,7.56,18.85,12.75c-0.08,0.75-0.22,2.24-0.2899,2.98
		C1818.3199,425.09,1810.09,421.2,1803.1,417.21z"/>
	<path fill="#1F1918" d="M1882.17,417.17c0.5699-0.18,1.6899-0.53,2.25-0.7c-2.41,4.37-6.2101,7.75-9.4701,11.47
		c0.28,1.06,0.5601,2.13,0.8501,3.21c-1.2301-0.98-2.4801-1.9-3.75-2.77C1875.29,424.53,1878.4301,420.56,1882.17,417.17z"/>
	<path fill="#FEFFFE" d="M989.96,426.92c0.72-3.22,2.4-6.08,3.6-9.12c0.2,0.82,0.61,2.48,0.81,3.3
		C992.12,422.32,991.49,425.02,989.96,426.92z"/>
	<path fill="#FFFFFE" d="M1753.17,423.85c3.73-1.6,7.49-3.18,11.12-5.05c-2.9501,2.37-6.4701,3.82-9.9501,5.17
		C1754.04,423.94,1753.46,423.88,1753.17,423.85z"/>
	<path fill="#FEFFFE" d="M994.37,421.1c0.53-0.76,1.07-1.53,1.62-2.29c-1.35,6.31-4.05,12.21-5.57,18.47
		c-0.67-0.22-2.02-0.67-2.69-0.89C989.74,431.21,992.52,426.35,994.37,421.1z"/>
	<path fill="#FEFFFE" d="M1779.4,420.69c2.3099,3.07,3.71,6.71,5.95,9.85c2.47,4.04,6.0701,7.16,9.36,10.51
		C1788.04,435.66,1782.73,428.59,1779.4,420.69z"/>
	<path fill="#8F5444" d="M1852.53,426.78c2.83-4.71,9.3199-4.4,13.58-1.93c0.4501,0.25,1.36,0.76,1.8201,1.01
		c3.4099,3.3,6.8099,7.2,7.2999,12.14c0.27,3.11,0.5,6.9-2.01,9.21c-1.33,0.55-2.63,1.09-3.96,1.54c-3.87-0.45-7.72-1.39-11.05-3.44
		c0.77-2.12-1.47-4.55-3.59-3.51c-0.66-1.04-1.28-2.09-1.8099-3.17C1852.8101,434.68,1852.4399,430.73,1852.53,426.78z"/>
	<path fill="#1F1B18" d="M1867.9301,425.86c1.37,0.81,2.75,1.64,4.12,2.52c1.2699,0.87,2.5199,1.79,3.75,2.77
		c1.0599,0.96,1.9299,2.12,2.8999,3.22c0.2101,0.27,0.64,0.83,0.8501,1.1c0.1799,0.85,0.36,1.72,0.5499,2.59
		c-3.09,0.36-2.52,3.37-2.21,5.64c5.13-0.18,9.74,2.31,14.52,3.82c2.1699,0.81,4.52,1.34,6.4399,2.74
		c-0.24,2.83-3.8199,3.96-6.1699,3.05c-5.4501-1.87-10.9-3.74-16.25-5.86c-2.02,2.35-4.76,3.92-7.8401,4.29
		c1.4501-1.59,3.16-2.93,4.63-4.53c2.51-2.31,2.28-6.1,2.01-9.21C1874.74,433.06,1871.34,429.16,1867.9301,425.86z"/>
	<path fill="#FFFFFE" d="M985.68,436.47c0.67-3.46,2.21-6.71,4.28-9.55C989.32,430.37,988.02,433.8,985.68,436.47z"/>
	<path fill="#F5C5B5" d="M1852.8101,438.63c-2.05-3.61-1.67-8.07-0.28-11.85C1852.4399,430.73,1852.8101,434.68,1852.8101,438.63z"
		/>
	<path fill="#FFFFFE" d="M1821.95,429.96c-0.0699-3.74,3.64,0.93,1.9601,2.51C1822.67,432.55,1822.71,430.59,1821.95,429.96z"/>
	<path fill="#1D1918" d="M1893.4,429.49c2.21-0.9,4.61-0.57,6.96-0.47c-1.17,1.57-2.28,3.45-4.3099,3.96
		c-5.3101,1.73-10.6001,3.52-15.9501,5.08c-0.1899-0.87-0.37-1.74-0.5499-2.59c-0.2101-0.27-0.64-0.83-0.8501-1.1
		C1883.55,432.62,1888.5,431.13,1893.4,429.49z"/>
	<path fill="#FEFFFE" d="M1796.33,431.04c1.8301,3.28,3.11,6.88,3.38,10.65c-0.84,0.49-1.6699,0.98-2.48,1.46
		c0.5801-0.78,1.1901-1.54,1.8201-2.28C1798.96,437.4,1797.79,434.13,1796.33,431.04z"/>
	<path fill="#201818" d="M1616.23,437.46c1.5601-0.11,3.87-1.59,4.5601,0.65c2.1699,3.88-1,7.75-2.55,11.19
		c-9.99,17.6-13.87,38.04-24.88,55.11c-5.72,9.93-11.4399,19.86-17.15,29.8c-3.5599,6.54-7.86,12.73-10.6699,19.66
		c-2.91,5.81-5.8401,11.6-8.61,17.47c15.5499,1.67,30.3099,7.86,43.33,16.35c19.33,12.51,35.72,28.97,54.9299,41.65
		c0.15-0.31,0.4401-0.94,0.5801-1.25c7.58-21.71,14.41-43.6801,22.03-65.3701c7.4099-18.91,14.7-37.87,22.23-56.74
		c9.99,0.21,19.9299,1.51,29.9199,1.76c12.8,0.41,25.5701,1.86,38.39,1.63c0.0801-4.17,0.0801-8.34,0.1-12.51
		c0.15,0.3,0.4501,0.9,0.6001,1.2c0.3099,3.97,0.01,7.97,0.23,11.95c0.86,1.45,1.83,2.85,2.8099,4.27
		c-1.1899,1.12-2.25,2.79-4.09,2.56c-4.54,0.08-9.1,0.39-13.61,0.0099c-6.38-1.4-12.92-0.81-19.38-0.87
		c-5.0699-0.02-10.13,0.02-15.17,0.37c1.0701,0.41,2.17,0.81,3.29,1.2c-2.98,0.42-5.97,0.88-8.96,0.74
		c-3.66-0.42-7.3401-0.65-11.01-0.49c-4.13,10.7-7.9601,21.52-12.42,32.1c-5.38,15.53-12.01,30.59-17.24,46.18
		c-0.2-0.9-0.58-2.68-0.77-3.57c-1.4,2.81-2.34,5.83-2.45,8.98c-0.23,4.31-2.1801,8.22-3.73,12.17
		c-2.42,6.02-4.7001,12.09-6.7201,18.26c-1.0299,2.78-1.9199,5.63-3.48,8.17c-4.98-4.1201-10.73-7.22-15.4399-11.67
		c0.5399-0.52,1.63-1.56,2.1699-2.08c-4.2599-3.31-8.5099-6.6201-12.6799-10.04c-0.3201-0.24-0.62-0.48-0.91-0.71
		c-14.98-12.01-29.59-25.36-47.5699-32.67c3.6699,2.52,8.3099,3.62,11.38,7.02c-1.48-0.16-2.88-0.62-4.2101-1.17
		c-5.8199-4.71-14.11-4.87-19.36-10.39c-6.22-2.36-13.21-3.55-19.7999-2.11c-4.0601,0.46-8.28,1.15-11.36,4.07
		c4.3099-2.3701,9.35-3.97,14.2699-2.53c0.9,0.92,0.79,2.36,1.16,3.55c-5.4,0.05-11.66-0.18-15.3099,4.57
		c1.9299,1.88,3.8099,4.2,6.61,4.75c2.6599,0.56,5.3999,0.53,8.12,0.69c0.49,5.62,1.5,11.54,5.1699,16.06
		c3.0601,3.95,8.1801,6.16,13.1801,5.54c2.74,0.05,5.3-1.02,7.6-2.46c1.0701-0.48,2.15-0.94,3.27-1.39
		c0.51,4.37,0.22,9.02,2.17,13.09c1.12,2.37,3.7699,3.24,5.88,4.5c-1.25,0.43-2.4901,0.86-3.7101,1.27
		c6.11,2.01,12.42-0.8,17.0801-4.74c-3.8501,1.3-7.7101,4.92-11.91,3.37l0.1899-0.18c3.4701-1.25,7.0801-2.45,9.91-4.93
		c0.99-0.2,2-0.38,3.04-0.54c0.48,3.88-0.0801,7.78,0.21,11.67c0.22,2.77,2.3101,5.63,5.35,5.48c4.26,0.07,8.14-2.02,11.4501-4.53
		c0.9199-0.27,1.85-0.53,2.8099-0.78c1.26,5.92,1.64,12.53,5.8101,17.3c2.59,3.14,6.95,4.39,10.9,3.65
		c3.6899-0.36,7.2999-1.39,10.5-3.32c1.0199-0.16,2.09-0.3,3.1599-0.11c2.0901,3.43,3.62,7.25,6.49,10.17
		c0.6901,0.85,1.75,1.22,2.73,1.72c2.3101-8.71-5.5-15.13-6.3899-23.36c2.59,1.04,3.38,3.9301,4.6499,6.1801
		c3.39,6.68,4.9301,14.31,3.9,21.77c-0.46,1.59-2.26,2.16-3.49,1.09c-3.77-2.97-5.48-7.64-8.09-11.51
		c-3.84,1.9-7.88,3.46-12.14,3.98c-1.26,8.29-3.27,16.46-4.04,24.81c-1.3199,10.51-3.45,20.91-6.1799,31.14
		c15.77-0.43,31.26-4.18,47.09-3.83c6.8,0.31,13.96,0.31,20.24,3.31c4.11,1.76,6.51,7.41,3.88,11.3c-2.59,3.42-6.87,4.86-10.77,6.18
		c-8.5599,2.43-17.4199,4.1-26.34,4.04c-12.8-0.06-24.96-4.53-37.03-8.24c-2.63-0.34-2.15-3.48-2.6699-5.37
		c-1.14-0.56-2.26-1.11-3.3501-1.66c3.98-9.65,7.74-19.41,10.7001-29.43c3.3099-10.3,3.21-21.25,3.99-31.93
		c-9.24-2.14-12.5701-12.29-14.29-20.48c-3.65,1.86-7.29,4.08-11.4399,4.53c-2.53,0.32-5.25-0.89-6.4501-3.16
		c-1.9299-3.82-4.0399-7.58-5.22-11.71c-4.3101,1.97-10.02,4.67-14.24,1.13c-3.55-3.63-4.8101-8.88-5.7-13.73
		c-5.17,2.28-11.28,3.57-16.6001,1.01c-5.23-2.2-8.1499-7.43-10.34-12.36c-0.8-2.66-1.49-5.35-2.16-8.03
		c-10.73,5.22-21.24,11.29-30.3099,19.07c9.72-5.43,19.61-10.66,30.1899-14.24c0.15,0.45,0.4601,1.35,0.62,1.79
		c-17.4299,6.15-33.48,15.79-47.88,27.29c-9.1899,8.68-17.14,18.58-24.8999,28.53c-1.0901-0.68-2.14-1.36-3.17-2.04
		c-1.8,0.48-4.08,2.4399-5.64,0.6299c-10.04-9.27-20.86-18.33-27.3099-30.6299c-3.88-7.44-6.65-15.44-8.4801-23.6201
		c-0.62-3.6299-1.2699-7.59,0.16-11.1c1.9-4.29,7.91-5.05,11.54-2.57c4.6,3.03,7.83,7.65,10.83,12.18
		c5.79,9,10.29,18.77,14.25,28.69c2.3201,6.17,5.5701,11.94,8.2001,17.99c11.9199-12.43,26.24-22.08,39.2599-33.25
		c8.87-7.2,18.5901-13.27,28.6801-18.61c-3.52-1.16-7.6-2.44-9.08-6.23c-1.26-3.71-4.2201-7.77-2.1001-11.72
		c2.03-3.87,6.6801-4.83,10.65-5.36c11.3301-19.65,22.62-39.34,33.9501-59c3.12-5.12,5.6899-10.55,8.01-16.07
		C1598.47,478.87,1607.4399,458.2,1616.23,437.46 M1706.52,509.16c2.03,1.34,4.52,1.29,6.87,1.42c11.7999,0.36,23.6,0.67,35.41,0.44
		l-0.01-0.72C1734.6899,510.43,1720.6,508.18,1706.52,509.16 M1696.71,525.7c-6.51,17.51-14.0599,34.66-19.47,52.57
		c-1.34,4-3.01,7.94-3.45,12.18c1.6699-2.46,2.72-5.24,3.6799-8.03c7.25-19.66,14.75-39.22,22.1-58.84
		c1.4301-3.79,3.3101-7.56,3.2401-11.71C1699.7,515.93,1698.78,521.11,1696.71,525.7 M1543.04,592.4c2.87,1.05,5.96,1.31,9.02,1.27
		C1549.0601,593.09,1546.0601,592.65,1543.04,592.4 M1440.01,593.06c0.8,2.57,3.9,2.85,6.02,3.87
		C1444.28,595.28,1442.34,593.74,1440.01,593.06 M1440.1,596.69c1.5,12.27,5.78,24.3,12.42,34.74c5.6699,8.7,13.7,15.42,21.04,22.63
		c2.5599,1.97,5.0299-2.26,5.6899-4.4c-1.45,0.92-2.8199,1.9301-4.11,3.03c-1.05-0.92-2.39-1.64-2.8101-3.02
		c-5.2799-14.99-10.8999-30.07-19.5299-43.5C1449.4,602.18,1445.5699,597.57,1440.1,596.69 M1563.9301,614.4
		c5.6499,1.73,12.2799,1.72,17.09-2.15C1575.71,614.99,1569.74,615.21,1563.9301,614.4 M1643.47,626.73
		c0.03,1.49,0.53,3.01,1.97,3.75c3.42,2.56,6.9801,4.94,10.55,7.3c0.28-0.77,0.58-1.53,0.9-2.29
		C1652.25,632.82,1647.95,629.63,1643.47,626.73 M1607.87,639.57c5.13,2.53,10.85-0.59,15.1801-3.43
		C1618.2,638.01,1613.25,641.03,1607.87,639.57 M1481.72,652.73c-1.49,1.61-3.4199,3.05-3.88,5.33c2.29,0.16,3.37-2.01,4.66-3.51
		c3.01-3.96,6.53-7.54,9.29-11.7C1488.1801,645.88,1485.09,649.45,1481.72,652.73 M1642.92,655.92c3.96-0.22,7.86-1.59,11.22-3.71
		C1650.39,653.42,1646.63,654.62,1642.92,655.92 M1632.89,654.31c1.85,1.33,3.97,2.25,6.23,2.72
		C1638.41,654.29,1635.02,654.89,1632.89,654.31 M1640.23,655.17c-0.54,1.62,0.02,2.17,1.67,1.66
		C1642.39,655.19,1641.84,654.64,1640.23,655.17 M1640.13,659.81c-0.08,2.12-0.05,4.24,0.1,6.37
		C1640.75,664.19,1643.5,660.41,1640.13,659.81 M1663.46,663.21c-1.0399,1.24,1.24,2.31,2.03,1.2
		C1666.55,663.14,1664.21,662.12,1663.46,663.21 M1625.9399,721.99c0.5-0.05,1.5-0.15,2-0.21c2.1201-5.79,3.89-11.79,4.9301-17.89
		C1630.23,709.78,1628.08,715.91,1625.9399,721.99 M1630.89,724.06c0.35-0.07,1.0499-0.22,1.41-0.29
		c13.47,5.25,28.11,9.11,42.6799,7.16c8.26-1.05,16.5801-2.67,24.16-6.25c-1.98-2.16-4.5701-3.61-7.33-4.44
		c-8.29-3.04-17.2401-1.69-25.8201-1.26c-10.87,0.69-21.48,3.34-32.28,4.48c-0.48-1.9901-0.34-3.9901,0.01-5.98
		C1631.27,718.66,1631.64,721.84,1630.89,724.06 M1696.0601,719.86c1.8799,1.07,3.7999,4.9,6.0299,2.52
		C1700.13,721.39,1698.12,720.52,1696.0601,719.86z"/>
	<path fill="#FFFFFE" d="M995.05,441.06c13.76,4.79,27.03,10.93,40.56,16.35c2.3101,1.12,5.23,1.55,6.7001,3.9
		c-2.52-0.44-4.8601-1.49-7.16-2.53C1021.78,452.88,1008.34,447.13,995.05,441.06z"/>
	<path fill="#FEFFFE" d="M1803.1801,464.97c16.3099-8.1,32.47-16.6,49.0699-24.08c-1.26,2.05-3.6,2.78-5.61,3.8
		C1832.1801,451.51,1817.79,458.5,1803.1801,464.97z"/>
	<path fill="#FFFFFE" d="M1854.62,441.8c2.12-1.04,4.36,1.39,3.59,3.51C1856.7,444.5,1855.4399,443.26,1854.62,441.8z"/>
	<path fill="#FFFFFE" d="M1772.27,474.4c10.49-3.42,20.26-8.66,30.64-12.37c-6.87,3.47-13.9301,6.58-20.77,10.11
		c-3.37,1.74-6.89,3.16-10.5701,4.03C1771.74,475.73,1772.09,474.84,1772.27,474.4z"/>
	<path fill="#22603B" d="M1043.47,474.62c0.0601-3.12,0.5601-6.25,2.22-8.95c0.77,9.09,0.16,18.23,0.3,27.34
		c-0.3099,9.74-0.04,19.49-0.73,29.22c-0.12-4.21-0.45-8.4-0.96-12.58c-0.5801,3.13-0.92,6.29-0.9401,9.47
		c-0.11-3.53-0.77-7.11-0.12-10.61c0.88-2.73,1.27-5.6,1.03-8.46C1043.67,491.58,1044.42,483.07,1043.47,474.62z"/>
	<path fill="#010D03" d="M1042.38,481.16c0.3-2.19,0.75-4.36,1.09-6.54c0.9501,8.45,0.2001,16.96,0.8,25.43
		c0.24,2.86-0.15,5.73-1.03,8.46C1042.66,499.41,1042.6,490.27,1042.38,481.16z"/>
	<path fill="#FFFFFF" d="M1769.04,498.06c0.51,1.01,1.0599,2.02,1.59,3.05c0.24,2.89,0.42,5.79,0.8,8.67
		c-0.54,0.06-1.62,0.17-2.16,0.23C1769.05,506.03,1769.35,502.03,1769.04,498.06z"/>
	<path fill="#404A3D" d="M1182.1899,501.44c2.3301,8.12,3.8601,16.54,4.65,24.95c-1.08-2.45-1.83-5.03-2.5-7.61
		c-0.22,0.37-0.65,1.11-0.87,1.49c-0.7-3.23-1.2899-6.47-1.59-9.74C1181.9301,507.49,1182.04,504.46,1182.1899,501.44z"/>
	<path fill="#523F4C" d="M1706.52,509.16c14.08-0.98,28.1699,1.27,42.27,1.14l0.01,0.72c-11.8101,0.23-23.6101-0.08-35.41-0.44
		C1711.04,510.45,1708.55,510.5,1706.52,509.16z"/>
	<path fill="#050904" d="M1043.36,519.12c0.02-3.18,0.36-6.34,0.9401-9.47c0.51,4.18,0.84,8.37,0.96,12.58
		c-0.46,6.71,0.51,13.54-1.08,20.15C1043.67,534.64,1043.6,526.87,1043.36,519.12z"/>
	<path fill="#6E4868" d="M1696.71,525.7c2.0701-4.59,2.99-9.77,6.1001-13.83c0.0699,4.15-1.8101,7.92-3.2401,11.71
		c-7.35,19.62-14.85,39.18-22.1,58.84c-0.96,2.79-2.01,5.57-3.6799,8.03c0.4399-4.24,2.11-8.18,3.45-12.18
		C1682.65,560.36,1690.2,543.21,1696.71,525.7z"/>
	<path fill="#030202" d="M1719.83,516.35c5.04-0.35,10.1001-0.39,15.17-0.37c6.46,0.06,13-0.53,19.38,0.87
		c-10.42,0.46-20.85,0.34-31.26,0.7C1722,517.16,1720.9,516.76,1719.83,516.35z"/>
	<path fill="#3F1D3C" d="M1703.15,517.8c3.6699-0.16,7.35,0.07,11.01,0.49c-3.35,0.61-6.73,1.01-10.0801,1.5
		c-12.0499,32.26-24.49,64.38-36.71,96.58c-2.1,4.94-3.46,10.22-5.95,14.97c-0.4,0.15-1.2001,0.44-1.6001,0.58
		c2.02-6.17,4.3-12.24,6.7201-18.26c1.5499-3.95,3.5-7.86,3.73-12.17c0.11-3.15,1.0499-6.17,2.45-8.98
		c0.1901,0.89,0.5701,2.67,0.77,3.57c5.23-15.59,11.86-30.65,17.24-46.18C1695.1899,539.32,1699.02,528.5,1703.15,517.8z"/>
	<path fill="#FEFFFE" d="M1128.75,531.69c12.71-3.38,26.13-4.97,39.26-3.38c6.2,0.82,12.72,1.19,18.4299,3.95
		c-18.9199-5.85-39.24-4.53-58.34-0.26L1128.75,531.69z"/>
	<path fill="#3D6A4E" d="M1108.86,536.86c6.58-1.84,13.01-4.68,19.89-5.17l-0.65,0.31c-3.5699,1.92-7.63,2.51-11.45,3.71
		c-7.29,2.23-14.53,4.63-21.64,7.38c-3.5601,1.4-7.29,2.34-11.1,2.71C1091.89,541.99,1100.54,539.82,1108.86,536.86z"/>
	<path fill="#040101" d="M1136.6,539.09c7.89-0.71,15.92-0.76,23.8101,0.04C1152.5601,540.38,1144.45,540.25,1136.6,539.09z"/>
	<path fill="#FFFFFE" d="M1052.1,559.74c40.74-12.3,83.88-19.83,126.41-14.03c2.59,0.36,5.34,0.49,7.67,1.86
		c-12.3201-1.79-24.7001-3.62-37.1801-3.21c-10.01-0.17-20.02,0.1-29.92,1.65C1096.33,548.08,1074.12,553.84,1052.1,559.74z"/>
	<path fill="#007CC2" d="M1064.4,558.38c23.97-6.35,48.53-11.24,73.38-12.02c15.38,0.22,30.9199,0.38,46.03,3.59
		c2.1699,6.57,3.84,13.3,6.0199,19.85c2.52,5.15,3.51,10.84,5.11,16.31c1.6801,5.86,3.41,11.71,4.9701,17.61
		c-10.48,0.78-21.05,1.34-31.24,4.0601c-9.9401,2.3199-19.4501,6.05-28.75,10.18c-3.63-11.87-6.28-24.03-10.02-35.86
		c-0.2001-1.89-2.1901-1.81-3.61-1.97c-0.8201,1.37-0.9301,2.99-1.14,4.53c-0.5701,1.92-1.5,3.72-2.8101,5.2401
		c-1.23,0.33-2.4399,0.66-3.65,0.99c-1.7699,9.57-1.5199,19.37-2.1599,29.06c-17.51-6.24-36.67-8.13-54.9301-4.32
		c-1.6699,0.04-3.63,1.1-5.11,0.09c-0.9-4.53-0.67-9.18-0.95-13.77c-0.9301-13.28-2.23-26.54-2.7101-39.84
		C1056.26,559.88,1060.55,559.62,1064.4,558.38z"/>
	<path fill="#FEFFFE" d="M1137.78,546.36c15.62-0.31,31.38-0.2,46.76,2.9c1.76,6.85,4.02,13.57,5.2899,20.54
		c-2.1799-6.55-3.85-13.28-6.0199-19.85C1168.7,546.74,1153.16,546.58,1137.78,546.36z"/>
	<path fill="#FEFAFD" d="M1565.54,553.87c-0.8101,5.71-4.2101,10.54-5.9701,15.95c19.05,0.59,36.8101,9.38,51.4401,21.12
		c15.4299,11.77,28.54,26.41,44.76,37.15c-0.14,0.31-0.4301,0.94-0.5801,1.25c-19.21-12.6801-35.6-29.14-54.9299-41.65
		c-13.02-8.49-27.78-14.68-43.33-16.35C1559.7,565.47,1562.63,559.68,1565.54,553.87z"/>
	<path fill="#BA8FBA" d="M1549.92,576.27c6.59-1.44,13.58-0.25,19.7999,2.11c5.25,5.52,13.54,5.68,19.36,10.39
		c3.16,3.15,6.88,5.7,11.14,7.14c0.24,0.19,0.73,0.56,0.97,0.75c1.78,2.42,4.1901,4.26,7.01,5.34c0.28,0.14,0.8501,0.42,1.13,0.55
		c-0.2899,2.25,1.9401,3.9,4.0601,3.22c0.5-0.06,1.51-0.16,2.02-0.21l-0.63,0.95c-1.76,2.15,1.58,3.83,3.47,3.14
		c7.67,6.11,14.59,13.14,22.65,18.77c4.71,4.45,10.46,7.55,15.4399,11.67c1.9501,3.3799,3.53,6.97,4.9401,10.61
		c1,3.12,2.23,6.63,0.6799,9.79c-2.87-2.92-4.3999-6.74-6.49-10.17c-1.0699-0.19-2.14-0.05-3.1599,0.11
		c-3.7301,0.29-7.1001,1.96-10.5,3.32c-3.9501,0.74-8.3101-0.51-10.9-3.65c-4.17-4.77-4.55-11.38-5.8101-17.3
		c-0.96,0.25-1.89,0.51-2.8099,0.78c-4.11,0.67-7.7201,2.84-11.4501,4.53c-3.0399,0.15-5.13-2.71-5.35-5.48
		c-0.29-3.89,0.27-7.79-0.21-11.67c-1.04,0.16-2.05,0.34-3.04,0.54c-3.72,0.55-7.34,2.13-9.91,4.93l-0.1899,0.18
		c4.2,1.55,8.0599-2.07,11.91-3.37c-4.66,3.94-10.9701,6.75-17.0801,4.74c1.22-0.41,2.4601-0.84,3.7101-1.27
		c-2.1101-1.26-4.76-2.13-5.88-4.5c-1.9501-4.07-1.66-8.72-2.17-13.09c-1.12,0.45-2.2,0.91-3.27,1.39c-2.7,0.24-5.22,1.23-7.6,2.46
		c-5,0.6201-10.12-1.59-13.1801-5.54c-3.6699-4.52-4.6799-10.44-5.1699-16.06c-2.7201-0.16-5.4601-0.13-8.12-0.69
		c-2.8-0.55-4.6801-2.87-6.61-4.75c3.6499-4.75,9.9099-4.52,15.3099-4.57c-0.37-1.19-0.26-2.63-1.16-3.55
		c-4.9199-1.44-9.96,0.16-14.2699,2.53C1541.64,577.42,1545.86,576.73,1549.92,576.27z"/>
	<path fill="#FFFFFE" d="M1581.91,582.92c17.98,7.31,32.59,20.66,47.5699,32.67c-0.36,0.11-1.09,0.33-1.45,0.44
		c-4.3401-3.34-8.3101-7.1201-12.62-10.47c-2.98-2.41-5.6801-5.35-9.3-6.77c-2.73-3.12-6.1899-6.07-10.29-7.02
		c0.17-1.32-1.37-2.44-2.5299-1.83C1590.22,586.54,1585.58,585.44,1581.91,582.92z"/>
	<path fill="#2C6D92" d="M1125.15,584.66c-0.41,8.77,3.9199,16.79,4.77,25.41c-2.8201-4.59-3.38-10.28-6.61-14.62
		c-0.2301-1.87-0.6001-3.72-0.9701-5.55C1123.65,588.38,1124.58,586.58,1125.15,584.66z"/>
	<path fill="#FFFFFF" d="M1589.08,588.77c1.3301,0.55,2.7301,1.01,4.2101,1.17c-0.36,1.35,1.33,2.5,2.5299,1.83
		c1.28,1.55,2.8501,2.83,4.4,4.14C1595.96,594.47,1592.24,591.92,1589.08,588.77z"/>
	<path fill="#1F191E" d="M1593.29,589.94c1.1599-0.61,2.7,0.51,2.5299,1.83C1594.62,592.44,1592.9301,591.29,1593.29,589.94z"/>
	<path fill="#FFFFFE" d="M1543.04,592.4c3.02,0.25,6.02,0.69,9.02,1.27C1549,593.71,1545.91,593.45,1543.04,592.4z"/>
	<path fill="#1A1C15" d="M1595.8199,591.77c4.1001,0.95,7.5601,3.9,10.29,7.02c-1.76-0.44-3.36-1.3-4.92-2.13
		c-0.24-0.19-0.73-0.56-0.97-0.75C1598.67,594.6,1597.1,593.32,1595.8199,591.77z"/>
	<path fill="#FFFFFE" d="M1440.01,593.06c2.33,0.68,4.27,2.22,6.02,3.87C1443.91,595.91,1440.8101,595.63,1440.01,593.06z"/>
	<path fill="#F19ABD" d="M1440.1,596.69c5.47,0.88,9.3,5.49,12.7001,9.48c8.63,13.43,14.25,28.51,19.5299,43.5
		c0.42,1.38,1.76,2.1,2.8101,3.02c-0.4,0.34-1.1901,1.03-1.58,1.37c-7.3401-7.21-15.3701-13.93-21.04-22.63
		C1445.88,620.99,1441.6,608.96,1440.1,596.69z"/>
	<path fill="#FFFFFF" d="M1601.1899,596.66c1.5601,0.83,3.16,1.69,4.92,2.13c0.6,1.11,1.3101,2.18,2.09,3.21
		C1605.38,600.92,1602.97,599.08,1601.1899,596.66z"/>
	<path fill="#FDFAFC" d="M1521.9,616.95c9.0699-7.78,19.58-13.85,30.3099-19.07c0.67,2.68,1.36,5.37,2.16,8.03
		c-0.42-0.35-1.25-1.06-1.66-1.41c-0.1599-0.44-0.47-1.34-0.62-1.79C1541.51,606.29,1531.62,611.52,1521.9,616.95z"/>
	<path fill="#1A1C15" d="M1606.11,598.79c3.62,1.42,6.3201,4.36,9.3,6.77c-0.51,0.05-1.52,0.15-2.02,0.21
		c-1.22-1.26-2.4401-2.57-4.0601-3.22c-0.2799-0.13-0.85-0.41-1.13-0.55C1607.42,600.97,1606.71,599.9,1606.11,598.79z"/>
	<path fill="#FFFFFF" d="M1609.33,602.55c1.62,0.65,2.8401,1.96,4.0601,3.22C1611.27,606.45,1609.04,604.8,1609.33,602.55z"/>
	<path fill="#1A1C15" d="M1615.41,605.56c4.3099,3.35,8.2799,7.13,12.62,10.47c0.36-0.11,1.09-0.33,1.45-0.44
		c0.29,0.23,0.59,0.47,0.91,0.71c-0.4401,2.33,2.08,3.49,3.48,4.88c2.42,2.28,6.0601,3.81,7.03,7.24
		c-8.0601-5.63-14.98-12.66-22.65-18.77c-1.16-1.08-2.28-2.17-3.47-3.14L1615.41,605.56z"/>
	<path fill="#FFFFFF" d="M1618.25,609.65c-1.89,0.69-5.23-0.9901-3.47-3.14C1615.97,607.48,1617.09,608.57,1618.25,609.65z"/>
	<path fill="#324E5F" d="M1188.84,609.6c4.4601-0.52,8.99-1.12,13.4701-0.31c-3.03,2.07-6.8501,1.36-10.28,1.63
		c-5.5601-0.07-11.02,1.29-16.5601,1.02C1179.67,610.06,1184.35,610.16,1188.84,609.6z"/>
	<path fill="#FFFFFF" d="M1571.76,612.97c2.38-1.23,4.9-2.22,7.6-2.46C1577.0601,611.95,1574.5,613.02,1571.76,612.97z"/>
	<path fill="#FFFFFE" d="M1563.9301,614.4c5.8099,0.81,11.7799,0.59,17.09-2.15C1576.21,616.12,1569.58,616.13,1563.9301,614.4z"/>
	<path fill="#FDFDFB" d="M1162.14,617.11c1.78-0.42,3.5599-0.84,5.37-1.2c5.1799,12.66,10.08,25.64,12.23,39.19
		C1175.01,641.95,1169.33,629.12,1162.14,617.11z"/>
	<path fill="#FFFFFF" d="M1633.87,621.18c-1.4-1.39-3.92-2.55-3.48-4.88c4.17,3.42,8.42,6.73,12.6799,10.04
		c-0.5399,0.52-1.63,1.56-2.1699,2.08C1639.9301,624.99,1636.29,623.46,1633.87,621.18z"/>
	<path fill="#33647F" d="M1065.71,620.74c7.75-2.58,16.2201-2.19,24.27-1.55c8.03,0.78,15.98,2.5,23.59,5.22
		c1.3501,0.33,2.3401,1.28,2.8,2.61c-7.28-1.75-14.28-4.64-21.76-5.53C1085.05,619.74,1075.34,619.93,1065.71,620.74z"/>
	<path fill="#2E3D45" d="M1052.6899,622.85c3.26-1.38,6.7401-2.0699,10.2201-2.7c0.0299,0.38,0.08,1.15,0.11,1.53
		C1059.59,622.25,1056.16,622.81,1052.6899,622.85z"/>
	<path fill="#FFFFFF" d="M1592.33,626.43c2.5701-2.8,6.1901-4.38,9.91-4.93C1599.41,623.98,1595.8,625.18,1592.33,626.43z"/>
	<path fill="#FEFFFE" d="M1643.47,626.73c4.48,2.9,8.78,6.09,13.42,8.76c-0.3201,0.76-0.62,1.52-0.9,2.29
		c-3.5699-2.36-7.13-4.7401-10.55-7.3C1644,629.74,1643.5,628.22,1643.47,626.73z"/>
	<path fill="#FFFFFF" d="M1610.84,638.11c3.73-1.69,7.3401-3.86,11.4501-4.53C1618.98,636.09,1615.1,638.18,1610.84,638.11z"/>
	<path fill="#FFFFFE" d="M1607.87,639.57c5.38,1.46,10.33-1.56,15.1801-3.43C1618.72,638.98,1613,642.1,1607.87,639.57z"/>
	<path fill="#FFFFFE" d="M1481.72,652.73c3.37-3.28,6.4601-6.85,10.0701-9.88c-2.76,4.16-6.28,7.7401-9.29,11.7
		c-1.29,1.5-2.37,3.67-4.66,3.51C1478.3,655.78,1480.23,654.34,1481.72,652.73z"/>
	<path fill="#FFFFFE" d="M1475.14,652.69c1.29-1.1,2.66-2.11,4.11-3.03c-0.66,2.14-3.13,6.3701-5.6899,4.4
		C1473.95,653.72,1474.74,653.03,1475.14,652.69z"/>
	<path fill="#FFFFFF" d="M1641.8101,653.75c3.3999-1.36,6.7699-3.03,10.5-3.32C1649.11,652.36,1645.5,653.39,1641.8101,653.75z"/>
	<path fill="#FEFFFE" d="M1642.92,655.92c3.71-1.3,7.47-2.5,11.22-3.71C1650.78,654.33,1646.88,655.7,1642.92,655.92z"/>
	<path fill="#57504F" d="M1632.89,654.31c2.13,0.58,5.52-0.02,6.23,2.72C1636.86,656.56,1634.74,655.64,1632.89,654.31z"/>
	<path fill="#57504F" d="M1640.23,655.17c1.61-0.53,2.16,0.02,1.67,1.66C1640.25,657.34,1639.6899,656.79,1640.23,655.17z"/>
	<path fill="#5F5D5A" d="M1640.13,659.81c3.37,0.6,0.62,4.38,0.1,6.37C1640.08,664.05,1640.05,661.93,1640.13,659.81z"/>
	<path fill="#767472" d="M1663.46,663.21c0.75-1.09,3.0901-0.07,2.03,1.2C1664.7,665.52,1662.42,664.45,1663.46,663.21z"/>
	<path fill="#755453" d="M1263.92,694.21c2.8099-0.2,5.64-0.21,8.47,0.03c-0.4,0.84-0.89,1.62-1.46,2.35
		C1268.51,696.04,1266.2,695.11,1263.92,694.21z"/>
	<path fill="#8F5545" d="M1235.4301,703.49c10.6599-4.8,22.8999-9.8,34.5599-5.38c-4.87,5.91-11.58,9.86-18.03,13.8
		c-9.88,5.94-20.87,10.1801-32.34,11.6201c-8.14,0.96-16.3199,1.6299-24.5,1.75c-0.0699-0.4901-0.22-1.48-0.29-1.97
		c2.3501-0.11,4.79-0.37,6.78-1.78C1212.49,714.82,1223.74,708.68,1235.4301,703.49z"/>
	<path fill="#FFFFFE" d="M1187.4301,700.9c0.9399,8,1.5,16.05,1.99,24.1c-0.6801,0-2.02,0-2.6901-0.01
		C1187.33,716.97,1186.6,708.9,1187.4301,700.9z"/>
	<path fill="#775852" d="M959.04,701.92c2.69-0.24,5.43-0.32,8.09,0.35c-2.34,0.64-4.69,1.23-7.04,1.81
		C959.83,703.54,959.3,702.46,959.04,701.92z"/>
	<path fill="#8F5444" d="M962.19,705.26c6.19-2.19,13.12-1.44,19.39,0.12c17.81,5.9,34.21,15.23,50.29,24.75
		c1.71,1.29,3.54,0,5.03-0.97c-0.04,1.32-0.03,2.65,0,3.9901c-4.22-0.95-8.5701-0.72-12.86-0.96c-12.1-0.65-24.33-2.65-35.36-7.89
		c-8.48-4.09-16.66-8.98-23.85-15.08C963.78,708.07,961.87,707.05,962.19,705.26z"/>
	<path fill="#FFFFFE" d="M1625.9399,721.99c2.14-6.08,4.29-12.21,6.9301-18.1c-1.04,6.1-2.8099,12.1-4.9301,17.89
		C1627.4399,721.84,1626.4399,721.94,1625.9399,721.99z"/>
	<path fill="#FEFDFB" d="M1042.05,732.69c0.63-8.26,0.5-16.68,2.51-24.75c-0.15,8.19-0.25,16.39,0.24,24.58
		C1044.11,732.56,1042.74,732.65,1042.05,732.69z"/>
	<path fill="#FFFFFE" d="M1192.85,719.91c-0.33-1.3199,1.05-2.06,1.63-3.02c-0.13,2.14,0,4.29,0.35,6.42
		c0.0701,0.49,0.2201,1.48,0.29,1.97C1191.83,725.89,1193.29,721.85,1192.85,719.91z"/>
	<path fill="#FFFFFE" d="M1630.89,724.06c0.75-2.22,0.38-5.4,2.83-6.58c-0.35,1.99-0.49,3.99-0.01,5.98
		c-0.35,0.08-1.0599,0.23-1.4099,0.31C1631.9399,723.84,1631.24,723.99,1630.89,724.06z"/>
	<path fill="#F19ABD" d="M1633.71,723.46c10.8-1.14,21.41-3.79,32.28-4.48c8.58-0.43,17.53-1.78,25.8201,1.26
		c2.7599,0.83,5.35,2.28,7.33,4.44c-7.58,3.58-15.9,5.2-24.16,6.25c-14.5699,1.95-29.21-1.91-42.6799-7.16
		C1632.65,723.69,1633.36,723.54,1633.71,723.46z"/>
	<path fill="#FFFFFE" d="M1696.0601,719.86c2.0599,0.66,4.0699,1.53,6.0299,2.52C1699.86,724.76,1697.9399,720.93,1696.0601,719.86z
		"/>
	<path fill="#FFFFFE" d="M1036.97,724.61c3.02,1.52,1.41,5,1.17,7.61c-0.3101,0.2401-0.9301,0.7-1.24,0.9301
		c-0.03-1.34-0.04-2.67,0-3.9901C1036.92,727.63,1036.9399,726.12,1036.97,724.61z"/>
</g>
</svg>
