<?xml version="1.0" encoding="utf-8"?>
<!-- Generator: Adobe Illustrator 19.0.0, SVG Export Plug-In . SVG Version: 6.00 Build 0)  -->
<svg version="1.1" id="layer" xmlns="http://www.w3.org/2000/svg" xmlns:xlink="http://www.w3.org/1999/xlink" x="0px" y="0px"
	 viewBox="-153 -46 652 652" style="enable-background:new -153 -46 652 652;" xml:space="preserve">
<style type="text/css">
	.st0{fill:#CB177D;}
</style>
<path class="st0" d="M331.4,267c-5.2-3.2-10.6-3.3-16.1-0.8c-2.4,1.1-4.5,3-4.6,6c-0.2,2.7,0,5.5,0,8.7c8.4,0,16.4,0.1,24.7-0.1
	c0-2.6,0-4.8,0-6.9C335.3,271,333.8,268.4,331.4,267z"/>
<path class="st0" d="M-37.9,290.1c-3.9,1.4-5.8,4.5-5.7,8.8c0,4.4,1.6,7.8,5.7,9.6c6.3,2.8,12.6,1.9,19-0.1V291
	C-25.2,288.4-31.6,287.8-37.9,290.1z"/>
<path class="st0" d="M199.8,266.7c-5-2.9-10.3-2.9-15.5-0.6c-2.4,1.1-4.6,3-4.8,5.9c-0.2,2.8-0.1,5.6-0.1,8.7h24.6
	c0-2.3,0.1-4.5,0.1-6.7C204.2,271,202.5,268.2,199.8,266.7z"/>
<path class="st0" d="M137,266.1c-5.5-3.6-14.6-3.7-20.1,0.4v42.6c6.5,2.2,12.8,2.7,18.9-0.1c3.8-1.8,6-4.8,6-9.1
	c0-8.4,0-16.8,0-25.2C141.8,270.9,140,268.1,137,266.1z"/>
<path class="st0" d="M168.6,25.1c-138.1,0-250,111.9-250,250s111.9,250,250,250s250-111.9,250-250S306.7,25.1,168.6,25.1z
	 M-3.8,318.1c-2,0.7-3.6,1.3-5.3,1.8c-9.4,2.6-19,4-28.8,2.3c-3.8-0.6-7.5-1.9-10.8-4c-5.7-3.6-8.6-9.1-9.5-15.6
	c-1.3-9.4,1.2-17.7,9.1-22.9c3.6-2.4,7.6-3.5,11.8-4.1c4.9-0.8,9.7-0.2,14.4,1.1l3.6,1c0.9-3.1,0.2-5.7-1.4-8.1
	c-2.6-3.8-6.4-5.3-10.7-5.7c-5.3-0.5-10.7,1.2-14.8,4.6c-0.4,0.3-0.9,0.7-1.3,1c-0.1,0.1-0.2,0-0.7,0.1l-8.3-7.7c1-1,1.8-2,2.7-2.9
	c7.1-6.4,15.6-8.8,25-8.2c6.2,0.4,11.9,2.1,16.9,6c5,3.9,7.4,8.9,7.9,15c0.1,1.3,0.1,2.6,0.1,4c0,12.9,0,25.8,0,38.7L-3.8,318.1z
	 M94.1,316.8v4H79.2c-0.1-1.3-0.2-2.3-0.2-3.4c0-14,0-28,0.1-42c0-4.4-1.9-7-6.1-8.3c-3.5-1.1-7.3-0.9-10.7,0.5
	c-3,1.2-5.6,3.6-5.5,8.1c0.2,13.7,0.1,27.4,0.1,41.1c0,1.3-0.1,2.6-0.2,4.1H42.1c-0.1-1.3-0.3-2.6-0.3-3.8c0-14-0.1-28,0-42.1
	c0-4.2-1.9-6.9-5.6-8.5c-0.8-0.3-1.6-0.6-2.5-0.8c-4.8-1.1-9.2-0.1-13.7,2.4v52.8c-5,0.2-9.7,0.2-14.6,0v-62.2
	c2.5-2.3,5.6-3.5,8.7-4.6c5.5-2,11.3-3.3,17.2-2.8c6.6,0.6,12.1,1.9,17.6,8.7c2.7-1.9,5.2-4.4,8.3-5.7c10.1-4.4,19.9-3.4,28.7,3.2
	c5.7,4.2,8,10.4,8.1,17.4c0.1,7.7,0,15.5,0,23.2L94.1,316.8z M156.9,299.2c-0.3,8.9-3.7,16.3-11.9,20.7c-3.2,1.7-6.8,2.8-10.4,3.1
	c-11.2,1.3-21.9-0.8-32.5-4.9v-91.9h14.6v26.5c3.4-0.7,6.3-1.6,9.4-2c7.1-1,14.3,0.6,20.2,4.5c6.9,4.5,10.5,10.9,10.6,19.1
	S157.2,291,156.9,299.2z M218.7,291.7c-0.1,0.4-0.1,0.8-0.3,1.1c-3.1,0.7-6.3,0.2-9.4,0.3c-3.3,0.1-6.6,0-9.9,0h-19.5
	c0,2.8-0.2,5.1,0,7.4c0.3,3,2.4,4.9,4.9,6.2c7.3,3.9,16,0.7,19-4.7c0.3-0.4,0.6-0.7,0.9-1l12.2,7.1c-2.1,4.3-5.5,7.8-9.6,10.1
	c-10.8,6.2-21.7,6-32.3-0.3c-7-4.1-10.4-10.6-10.5-18.7c-0.1-8.4-0.1-16.8,0-25.2c0.1-9.3,4.3-16.2,12.6-20.2
	c10.6-5.1,21.4-4.9,31.7,1.2c6.5,3.9,10,9.9,10.3,17.5C218.9,278.9,218.7,285.3,218.7,291.7z M254.8,321.9c-2.5,0.1-4.9,0.3-7.3,0.3
	c-3.4,0-6.8-0.7-9.9-2.1c-7.7-3.4-11.4-9.7-12.4-17.8c-0.2-1.9-0.3-3.7-0.2-5.6c0-22.1,0-44.1,0-66.2v-4.2c5.1-0.1,9.8-0.1,14.7,0
	v25.3h14.1c0.1,5.1,0.1,9.8,0,14.8c-4.6,0.5-9.1,0-13.8,0.4c-0.2,0.9-0.3,1.7-0.3,2.6c0,9.4,0,18.7,0,28.1c0,0.8,0,1.5,0.1,2.3
	c0.5,4.5,3.1,7.5,7.6,8.4c2.3,0.5,4.8,0.6,7.4,0.9L254.8,321.9z M290.3,321.7c-3.3,0.7-6.7,0.8-10,0.2c-2.4-0.3-4.8-1-7-1.9
	c-7.9-3.4-11.4-10-12.4-18.2c-0.2-2-0.3-4-0.2-6c0-22,0-43.9,0-65.9v-3.6h14.8v25.2h13.2c0.2,5.1,0.1,9.7,0.1,14.7
	c-4.4,0.6-8.5,0-12.9,0.4c-0.2,0.7-0.3,1.5-0.3,2.2c0,9.7-0.1,19.4,0,29.1c0,6.1,2.9,9.4,9,10.4c1.9,0.3,3.9,0.4,5.8,0.5
	C291,311.8,291,318.6,290.3,321.7L290.3,321.7z M349.7,293.1c-13.2,0.1-26.1,0-39.1,0.1c0,2.8-0.2,5.3,0.1,7.6
	c0.3,2.7,2.2,4.5,4.5,5.8c6.5,3.7,14.8,1.9,19.1-4.2c0.3-0.4,0.7-0.8,1.1-1.3c3.7,2.1,7.4,4.2,11,6.3c0.4,0.3,0.8,0.6,1.2,1
	c-1.8,3.5-4.5,6.5-7.8,8.7c-10.8,7.6-25.3,7.4-35.9-0.5c-5.3-3.7-8.4-9.7-8.5-16.1c-0.3-8.8-0.2-17.6-0.1-26.5
	c0.1-9.2,4.3-16.2,12.5-20.2c10.7-5.1,21.6-4.9,31.9,1.3c5.9,3.6,9.5,9.1,9.9,16C350.1,278.3,349.7,285.4,349.7,293.1z M371,276.8
	c0.2,13.2,0.1,26.5,0.1,39.7v3.8c-2.7,0.7-10.7,0.9-14.8,0.3c-0.1-1.1-0.2-2.1-0.2-3.1c0-14.1,0-28.2,0-42.4
	c-0.1-5.5,1.7-10.8,5.1-15c4.6-5.6,10.8-8.3,17.8-8.9c3.8-0.4,7.7-0.5,11.7,0.8c0.1,4.3,0.1,8.5,0,13c-3.8-0.6-7.2-0.7-10.6,0.2
	C375.2,266.6,371,270,371,276.8L371,276.8z M388.8,322c-4.6-0.2-8.3-4-8.4-8.6c-0.1-4.7,3.6-8.6,8.3-8.8c4.7-0.1,8.6,3.6,8.8,8.3
	c0,0.2,0,0.3,0,0.5C397.5,318.2,393.6,322,388.8,322C388.8,322,388.8,322,388.8,322z"/>
<path class="st0" d="M358,469.5v-2.1h-8.7v2.1h3.1v9.5h2.3v-9.5C354.8,469.5,358.1,469.4,358,469.5z"/>
<path class="st0" d="M369.2,467.4l-3.3,5.9l0,0c-1.2-2.2-2.2-4-3.3-5.9h-2.1v11.4l0,0l0,0h2.1v-7.1c1.2,1.8,2.4,3.5,3.4,4.8l0,0
	c0.9-1.3,2.1-3,3.4-4.8v7.2h2.1l0,0l0,0v-11.5H369.2z"/>
</svg>
