<?xml version="1.0" encoding="UTF-8"?>
<svg xmlns="http://www.w3.org/2000/svg" xmlns:xlink="http://www.w3.org/1999/xlink" width="2942pt" height="1205pt" viewBox="0 0 2942 1205" version="1.1">
<g id="surface1">
<path style=" stroke:none;fill-rule:nonzero;fill:rgb(5.099487%,47.499084%,50.19989%);fill-opacity:1;" d="M 1545.320313 815.78125 C 1558.550781 795.945313 1566.808594 774.464844 1567.070313 749.453125 C 1551.230469 756.824219 1536.78125 766.4375 1519.890625 770.324219 C 1511.488281 769.097656 1512.261719 763.816406 1514.101563 757.734375 C 1517.101563 747.839844 1517.839844 737.714844 1517.820313 724.515625 C 1506.769531 734.703125 1503.511719 728.550781 1499.300781 720.589844 C 1494.53125 711.574219 1492.789063 700.988281 1484.46875 693.589844 C 1480.261719 689.84375 1484.28125 686.59375 1488.5 686.058594 C 1495.960938 685.109375 1499.308594 681.078125 1499.339844 673.824219 C 1533.988281 655.171875 1556.738281 627.269531 1566.109375 588.699219 C 1567.589844 582.585938 1567.851563 576.582031 1567.859375 570.445313 C 1567.871094 507.976563 1567.808594 445.5 1567.921875 383.027344 C 1567.96875 352.75 1581.691406 339.074219 1612.058594 338.699219 C 1618.679688 338.617188 1625.351563 338.417969 1631.921875 339.070313 C 1654.371094 341.289063 1668 355.96875 1668.03125 378.484375 C 1668.171875 501.539063 1668.839844 624.597656 1667.789063 747.640625 C 1667.371094 796.5 1651.960938 841.625 1620.769531 879.96875 C 1609.320313 894.042969 1596.378906 907.347656 1579.738281 915.953125 C 1569.25 909.015625 1565.421875 901.207031 1570.570313 887.855469 C 1574.980469 876.433594 1574.25 865.082031 1564.730469 852.855469 C 1556.660156 842.484375 1543.449219 832.308594 1545.320313 815.78125 "/>
<path style=" stroke:none;fill-rule:nonzero;fill:rgb(4.299927%,48.599243%,37.298584%);fill-opacity:1;" d="M 668.117188 556.320313 C 668.117188 499.058594 668.09375 441.792969 668.128906 384.53125 C 668.144531 351.152344 680.753906 338.71875 714.550781 338.671875 C 720.699219 338.664063 726.871094 338.535156 732.996094 338.960938 C 743.773438 339.707031 755.425781 342.765625 759.988281 352.160156 C 767.410156 367.429688 774.527344 363.363281 785.800781 357.253906 C 817.898438 339.859375 852.636719 331.660156 889.234375 332.160156 C 920.105469 332.578125 932.316406 344.929688 932.273438 375.296875 C 932.265625 380.5 932.15625 385.707031 931.957031 390.90625 C 930.96875 416.253906 918.476563 428.574219 893.320313 430.015625 C 860.621094 431.886719 829.921875 439.878906 804.285156 461.675781 C 781.359375 481.164063 769.796875 506.246094 769.675781 536.191406 C 769.410156 600.550781 769.628906 664.914063 769.59375 729.273438 C 769.578125 758.273438 759.269531 770.023438 730.535156 775.140625 C 718.082031 777.355469 705.878906 776.148438 693.992188 773.152344 C 677.246094 768.933594 668.191406 754.625 668.152344 733.785156 C 668.050781 674.632813 668.117188 615.476563 668.117188 556.320313 "/>
<path style=" stroke:none;fill-rule:nonzero;fill:rgb(5.099487%,46.299744%,63.499451%);fill-opacity:1;" d="M 2478.5 433.410156 C 2478.511719 530.886719 2478.339844 628.359375 2478.691406 725.835938 C 2478.75 745.011719 2476.308594 762.5 2456.21875 770.441406 C 2433.550781 779.40625 2410.738281 779.640625 2390.179688 764.550781 C 2379.378906 756.625 2377.421875 744.445313 2377.449219 731.527344 C 2377.628906 637.363281 2377.230469 543.195313 2377.910156 449.039063 C 2378 435.195313 2374.449219 431.277344 2360.761719 432.066406 C 2339.539063 433.289063 2318.191406 432.570313 2296.898438 432.351563 C 2271.210938 432.085938 2256.738281 417.886719 2255.558594 392.023438 C 2255.261719 385.414063 2255.210938 378.769531 2255.460938 372.160156 C 2256.488281 344.722656 2270.820313 330.816406 2298.550781 330.574219 C 2321.261719 330.375 2343.988281 330.128906 2366.679688 330.730469 C 2375.570313 330.964844 2377.878906 328.121094 2377.738281 319.472656 C 2377.238281 289.199219 2377.550781 258.910156 2377.558594 228.625 C 2377.570313 188.609375 2396.109375 173.050781 2436.949219 178.78125 C 2434.5 188.558594 2426.648438 189.828125 2418.398438 190.738281 C 2415.941406 191.011719 2411.46875 188.238281 2411.441406 191.03125 C 2411.339844 199.46875 2397.238281 205.378906 2407.171875 215.414063 C 2409.171875 217.4375 2411.03125 219.574219 2413.480469 221.003906 C 2421.179688 225.488281 2423.460938 232.316406 2421.019531 240.402344 C 2417.570313 251.878906 2420.039063 262.746094 2422.761719 273.851563 C 2424.441406 280.699219 2426.921875 286.03125 2434.140625 288.675781 C 2443.148438 291.984375 2446.121094 298.929688 2443.460938 308.035156 C 2440.328125 318.710938 2441.050781 328.3125 2448.828125 337.136719 C 2453.488281 342.410156 2451.230469 348.574219 2449.160156 354.578125 C 2445.238281 365.914063 2444.929688 375.851563 2459.140625 380.808594 C 2465.601563 383.0625 2468.941406 389.15625 2466.941406 395.746094 C 2463.410156 407.363281 2464.761719 416.765625 2475.019531 424.363281 C 2477.570313 426.253906 2478.351563 429.988281 2478.5 433.410156 "/>
<path style=" stroke:none;fill-rule:nonzero;fill:rgb(5.499268%,49.398804%,27.49939%);fill-opacity:1;" d="M 320.183594 776.886719 C 294.746094 775.363281 272.039063 765.648438 250.433594 753.074219 C 244.410156 749.570313 241.160156 746.996094 237.117188 756.03125 C 231.398438 768.820313 218.898438 772.859375 205.714844 774.820313 C 192.921875 776.71875 180.203125 776.851563 167.6875 773.621094 C 153.023438 769.835938 143.859375 760.542969 141.984375 745.132813 C 141.1875 738.574219 140.738281 731.933594 140.738281 725.328125 C 140.734375 544.503906 140.808594 363.679688 140.914063 182.859375 C 140.917969 179.101563 141.441406 175.351563 141.722656 171.601563 C 148.484375 167.851563 151.714844 172.390625 153.191406 177.519531 C 162.253906 209 175.417969 239.121094 178.375 272.621094 C 180.070313 291.855469 188.1875 310.925781 195.285156 329.214844 C 205.191406 354.730469 211.519531 381.339844 221.417969 406.78125 C 221.929688 408.09375 222.375 409.558594 222.222656 410.933594 C 219.328125 437.398438 235.671875 459.683594 238.335938 484.945313 C 238.527344 486.757813 240.175781 488.191406 241.410156 489.625 C 241.609375 514.128906 242.585938 538.65625 241.824219 563.132813 C 240.578125 603.429688 258.664063 634.226563 287.035156 660.507813 C 290.257813 694.886719 309.820313 724.25 316.777344 757.484375 C 317.671875 761.738281 320.871094 763.550781 324.550781 764.910156 C 328.847656 766.496094 332.6875 768.941406 330.917969 774.164063 C 328.992188 779.847656 324.273438 777.898438 320.183594 776.886719 "/>
<path style=" stroke:none;fill-rule:nonzero;fill:rgb(4.699707%,46.699524%,58.399963%);fill-opacity:1;" d="M 1980.210938 333.808594 C 2053.378906 328.207031 2117.300781 346.640625 2163.800781 407.003906 C 2190.46875 441.640625 2199.828125 482.492188 2200.039063 525.507813 C 2200.371094 594.628906 2200.179688 663.757813 2200.109375 732.882813 C 2200.089844 759.132813 2190.011719 770.527344 2164.109375 774.890625 C 2154.140625 776.570313 2144.398438 776.226563 2134.519531 774.351563 C 2112.980469 770.257813 2102.421875 758.097656 2102.398438 736.296875 C 2102.328125 669.066406 2102.601563 601.832031 2102.261719 534.601563 C 2102.109375 503.902344 2094.421875 475.699219 2071.070313 453.722656 C 2052.699219 436.429688 2029.371094 432.773438 2005.78125 429.769531 C 1999.910156 421.082031 2003.039063 410.59375 2000.160156 401.152344 C 1998.449219 395.539063 1998.449219 392 1990.921875 392.835938 C 1981.589844 393.871094 1977.859375 387.574219 1976.789063 378.898438 C 1974.050781 356.792969 1973.921875 356.78125 1952.851563 353.761719 C 1950.921875 353.484375 1949.058594 353.4375 1948.308594 351.3125 C 1947.421875 348.761719 1948.628906 346.695313 1950.300781 344.964844 C 1954.160156 340.992188 1959.488281 340.21875 1964.488281 339.214844 C 1970.03125 338.097656 1975.601563 337.472656 1980.210938 333.808594 "/>
<path style=" stroke:none;fill-rule:nonzero;fill:rgb(5.499268%,48.599243%,32.199097%);fill-opacity:1;" d="M 423.421875 651.546875 C 465.414063 602.914063 473.695313 549.347656 445.144531 491.507813 C 428.023438 456.816406 385.851563 423.703125 334.058594 432.078125 C 313.308594 435.433594 299.375 425.890625 292.839844 406.109375 C 289.253906 395.265625 287.734375 383.933594 287.574219 372.621094 C 287.253906 349.5625 301.371094 335.644531 327.027344 333.375 C 417.019531 325.417969 484.097656 363.039063 529.105469 439.292969 C 587.972656 539.015625 560.992188 672.878906 470.539063 739.757813 C 466.414063 742.808594 461.828125 745.230469 457.453125 747.945313 C 455.523438 746.339844 453.835938 743.75 454.660156 741.839844 C 461.105469 726.964844 449.835938 716.886719 445.242188 704.972656 C 443.3125 699.957031 439.332031 698.058594 434.972656 696.140625 C 426.214844 692.285156 422.480469 685.886719 427.269531 676.949219 C 432.480469 667.222656 431.039063 659.054688 423.421875 651.546875 "/>
<path style=" stroke:none;fill-rule:nonzero;fill:rgb(5.899048%,47.099304%,55.299377%);fill-opacity:1;" d="M 1980.210938 333.808594 C 1976.769531 345.363281 1964.71875 339.183594 1957.980469 344.449219 C 1955.449219 346.425781 1950.5 345.285156 1950.21875 350.542969 C 1970.121094 345.714844 1979.980469 352.867188 1980.21875 372.183594 C 1980.449219 391.195313 1983.511719 393.308594 2002.609375 386.890625 C 2002.089844 401.445313 2007.890625 415.246094 2005.78125 429.769531 C 2002.929688 429.773438 2000.078125 429.78125 1997.238281 429.785156 C 1986.171875 428.136719 1974.808594 424.859375 1966.050781 435.582031 C 1929.070313 451.972656 1908.351563 481.175781 1899.519531 519.808594 C 1896.851563 531.511719 1898.488281 543.355469 1898.320313 555.121094 C 1897.878906 586.3125 1897.839844 617.511719 1897.628906 648.707031 C 1885.628906 653.304688 1881.859375 644.613281 1883.601563 636.742188 C 1888.640625 613.828125 1874.558594 593.859375 1875.558594 571.339844 C 1876.058594 560.175781 1866.300781 549.121094 1858.890625 539.433594 C 1854.691406 533.9375 1851.46875 528.523438 1851.488281 521.570313 C 1851.539063 509.238281 1851.210938 497.164063 1845.078125 485.765625 C 1841.871094 479.800781 1845.898438 473.945313 1848.398438 468.316406 C 1851.949219 460.304688 1851.609375 453.570313 1841.820313 450.226563 C 1831.730469 446.78125 1828.289063 438.84375 1828.71875 429.054688 C 1829.609375 409.238281 1823.96875 392.308594 1810.019531 377.59375 C 1803.351563 370.5625 1804.761719 359.761719 1803.179688 350.519531 C 1802.328125 345.5 1803.429688 339.933594 1798.589844 336.214844 C 1798.421875 275.664063 1797.820313 215.109375 1798.269531 154.558594 C 1798.441406 131.441406 1818.121094 118.410156 1848.71875 119.019531 C 1882.171875 119.691406 1898.050781 131.488281 1898.140625 156.730469 C 1898.371094 223.441406 1898.21875 290.152344 1898.21875 358.921875 C 1924.800781 345.605469 1951.070313 334.601563 1980.210938 333.808594 "/>
<path style=" stroke:none;fill-rule:nonzero;fill:rgb(3.49884%,48.599243%,41.598511%);fill-opacity:1;" d="M 1019.988281 556.316406 C 1019.988281 499.578125 1019.910156 442.835938 1020.019531 386.097656 C 1020.089844 350.695313 1032.320313 338.746094 1067.980469 338.675781 C 1071.761719 338.671875 1075.550781 338.632813 1079.328125 338.695313 C 1108.070313 339.175781 1121.648438 352.636719 1121.769531 381.714844 C 1121.980469 438.453125 1121.839844 495.191406 1121.851563 551.933594 C 1121.859375 610.5625 1121.890625 669.191406 1121.859375 727.824219 C 1121.839844 760.140625 1110.890625 772.238281 1078.980469 775.792969 C 1067.519531 777.070313 1056.21875 775.773438 1045.25 773.074219 C 1028.449219 768.949219 1020.199219 756.089844 1020.078125 733.625 C 1019.800781 678.777344 1019.988281 623.929688 1019.980469 569.082031 C 1019.980469 564.828125 1019.980469 560.570313 1019.988281 556.316406 "/>
<path style=" stroke:none;fill-rule:nonzero;fill:rgb(3.49884%,47.799683%,45.498657%);fill-opacity:1;" d="M 1499.339844 673.824219 C 1505.148438 686.359375 1502.71875 689.140625 1483.121094 689.613281 C 1500.160156 698.1875 1496.359375 716.847656 1508.738281 726.902344 C 1510.261719 725.683594 1510.738281 717.714844 1517.140625 720.71875 C 1522.351563 723.164063 1524.148438 728.984375 1522.109375 734.023438 C 1518.53125 742.863281 1522.28125 753.0625 1516.339844 761.273438 C 1512.910156 766.015625 1517.660156 767.710938 1519.890625 770.324219 C 1438.800781 798.121094 1347.859375 767.511719 1294.148438 694.339844 C 1227.378906 603.375 1236.800781 469.597656 1315.589844 391.621094 C 1319.539063 387.710938 1324.351563 384.664063 1328.761719 381.214844 C 1330.839844 380.117188 1333.429688 381.257813 1333.039063 382.785156 C 1329.039063 398.601563 1341.988281 414.703125 1332.078125 430.429688 C 1330.339844 433.183594 1330.160156 437.332031 1332.328125 439.890625 C 1344.140625 453.8125 1349.601563 475.109375 1373.128906 475.644531 C 1350.261719 511.023438 1342.261719 549.011719 1352.351563 590.4375 C 1366.601563 648.910156 1425.328125 702.085938 1499.339844 673.824219 "/>
<path style=" stroke:none;fill-rule:nonzero;fill:rgb(3.49884%,47.799683%,45.899963%);fill-opacity:1;" d="M 1545.320313 815.78125 C 1547.980469 828.695313 1564.261719 834.050781 1563.648438 848.78125 C 1586.710938 863.132813 1577.128906 881.671875 1570.199219 899.859375 C 1568.941406 903.160156 1571.238281 903.90625 1573.53125 904.609375 C 1579.320313 906.382813 1579.738281 911.042969 1579.738281 915.953125 C 1542.730469 941.363281 1500.921875 948.351563 1457.238281 946.902344 C 1393.011719 944.773438 1335.238281 924.878906 1285.609375 883.015625 C 1273.121094 872.484375 1270.328125 860.046875 1274.550781 845.011719 C 1278.398438 831.335938 1286.261719 820.28125 1296.890625 811.28125 C 1310.980469 799.355469 1326.910156 798.546875 1344.011719 809.386719 C 1368.839844 825.128906 1394.511719 838.539063 1423.46875 845.28125 C 1469.199219 855.921875 1510.589844 849.96875 1545.320313 815.78125 "/>
<path style=" stroke:none;fill-rule:nonzero;fill:rgb(4.299927%,47.099304%,53.29895%);fill-opacity:1;" d="M 1798.589844 336.214844 C 1805.898438 335.605469 1806.800781 339.945313 1807.070313 345.972656 C 1807.460938 354.378906 1808.839844 362.742188 1809.988281 371.097656 C 1810.238281 372.863281 1810.878906 375.226563 1812.160156 376.097656 C 1830.921875 388.847656 1833.078125 408.03125 1832.421875 428.183594 C 1832.070313 438.925781 1834.148438 446.34375 1847.21875 447.457031 C 1855.820313 448.1875 1859.441406 461.832031 1852.480469 470.257813 C 1845.558594 478.636719 1846.398438 484.089844 1852.691406 492.3125 C 1858.679688 500.140625 1854.789063 510.644531 1855.039063 519.933594 C 1855.230469 527.484375 1858.878906 532.15625 1862.890625 538.238281 C 1870.300781 549.453125 1881.039063 559.765625 1880.859375 575.070313 C 1880.710938 587.191406 1879.398438 599.234375 1887.75 610.316406 C 1891.871094 615.777344 1888.980469 623.78125 1887.390625 630.855469 C 1885.558594 639.082031 1883.71875 648.835938 1897.628906 648.707031 C 1897.820313 679.414063 1898.308594 710.128906 1898.058594 740.832031 C 1897.929688 756.265625 1886.269531 768.898438 1869.378906 773.441406 C 1854.429688 777.460938 1839.339844 777 1824.5 773.246094 C 1807.460938 768.9375 1798.101563 755.691406 1798.050781 736.0625 C 1797.898438 681.230469 1797.929688 626.398438 1798.019531 571.566406 C 1798.148438 493.117188 1798.398438 414.664063 1798.589844 336.214844 "/>
<path style=" stroke:none;fill-rule:nonzero;fill:rgb(5.899048%,45.899963%,66.299438%);fill-opacity:1;" d="M 2478.5 433.410156 C 2472.761719 429.59375 2470.859375 422.332031 2463.601563 419.136719 C 2457.898438 416.621094 2460.199219 409.289063 2462 403.730469 C 2465.609375 392.53125 2466.011719 383.460938 2450.53125 381.199219 C 2443.128906 380.117188 2439.171875 364.296875 2444.898438 354.378906 C 2450.019531 345.519531 2448.710938 340.8125 2441.671875 333.902344 C 2434.699219 327.070313 2436.550781 317.222656 2439.898438 308.503906 C 2443.628906 298.804688 2440.609375 292.5625 2430.421875 291.074219 C 2423.421875 290.050781 2421.5 286.625 2420.25 280.042969 C 2417.460938 265.320313 2411.949219 251.011719 2418.238281 235.816406 C 2420.820313 229.589844 2416.738281 225.496094 2411.390625 223.992188 C 2405.429688 222.316406 2403.558594 218.25 2401.640625 213.230469 C 2398.160156 204.121094 2395.238281 195.699219 2409.5 195.199219 C 2410.378906 189.171875 2403.558594 193.371094 2403.53125 188.96875 C 2414.660156 185.71875 2428.300781 190.171875 2436.949219 178.769531 C 2463.441406 182.289063 2477.660156 194.960938 2477.96875 220.246094 C 2478.378906 254.105469 2481.460938 288.125 2476.050781 321.90625 C 2474.558594 331.171875 2481.140625 330.453125 2486.738281 330.484375 C 2509.449219 330.601563 2532.160156 330.488281 2554.871094 330.542969 C 2586.539063 330.617188 2599.921875 343.617188 2600.609375 374.957031 C 2600.738281 380.628906 2600.851563 386.328125 2600.46875 391.980469 C 2598.628906 419.511719 2585.359375 432.039063 2557.949219 432.386719 C 2531.46875 432.722656 2504.988281 433.066406 2478.5 433.410156 "/>
<path style=" stroke:none;fill-rule:nonzero;fill:rgb(4.699707%,48.999023%,29.399109%);fill-opacity:1;" d="M 241.410156 489.625 C 234.65625 489.085938 233.820313 484.546875 232.890625 478.84375 C 230.941406 466.945313 228.246094 455.152344 222.019531 444.488281 C 220.410156 441.730469 219.0625 438.3125 219.058594 435.199219 C 219.039063 397.011719 200.527344 363.988281 190.613281 328.558594 C 183.957031 304.773438 170.113281 282.238281 173.238281 255.800781 C 174.699219 243.402344 164.070313 234.074219 163.332031 221.203125 C 162.46875 206.179688 151.820313 193.03125 150.171875 177.488281 C 149.710938 173.160156 145.9375 171.570313 141.722656 171.601563 C 137.980469 134.421875 151.003906 119.460938 187.664063 119.050781 C 193.785156 118.988281 199.957031 119.289063 206.027344 120.039063 C 230.511719 123.078125 241.851563 135.640625 241.921875 160.589844 C 242.113281 229.625 242.09375 298.65625 242.007813 367.691406 C 241.957031 408.335938 241.621094 448.980469 241.410156 489.625 "/>
<path style=" stroke:none;fill-rule:nonzero;fill:rgb(3.898621%,47.499084%,47.499084%);fill-opacity:1;" d="M 1373.128906 475.644531 C 1358.378906 479.800781 1345.039063 472.1875 1340.828125 457.285156 C 1340.328125 455.511719 1339.921875 453.03125 1338.628906 452.257813 C 1324.730469 443.898438 1323.71875 433.144531 1332.171875 420.359375 C 1332.410156 420 1332.320313 419.4375 1332.398438 418.96875 C 1334.351563 406.078125 1323.988281 394.375 1328.761719 381.214844 C 1375.089844 339.917969 1429.699219 326 1490.160156 334.089844 C 1516.570313 337.625 1527.300781 354.523438 1523.941406 381.660156 C 1522.660156 391.953125 1521.910156 402.328125 1516.960938 411.753906 C 1510.011719 424.964844 1499.089844 434.515625 1484.238281 431.953125 C 1437.878906 423.960938 1402.261719 440.988281 1373.128906 475.644531 "/>
<path style=" stroke:none;fill-rule:nonzero;fill:rgb(4.699707%,48.999023%,29.399109%);fill-opacity:1;" d="M 423.421875 651.546875 C 435.535156 656.078125 439.226563 663.925781 432.167969 674.84375 C 425.148438 685.695313 427.59375 691.585938 439.296875 693.832031 C 446.199219 695.15625 449.160156 698.191406 449.085938 704.949219 C 449.0625 706.769531 449.203125 709.722656 450.238281 710.253906 C 468.949219 719.800781 456.21875 735.203125 457.453125 747.945313 C 415.5625 775.925781 369.796875 785.519531 320.1875 776.886719 C 323.542969 776.054688 328.828125 777.601563 328.847656 772.125 C 328.859375 767.660156 324.417969 768.113281 321.222656 768.054688 C 316.5625 767.972656 312.316406 767.15625 312.78125 761.289063 C 313.914063 746.984375 303.511719 736.320313 301.121094 722.988281 C 299.058594 711.472656 296.34375 700.222656 287.894531 690.289063 C 281.085938 682.285156 282.570313 670.628906 287.035156 660.507813 C 311.902344 675.730469 337.828125 685.816406 367.972656 680.136719 C 389.484375 676.078125 407.085938 665.234375 423.421875 651.546875 "/>
<path style=" stroke:none;fill-rule:nonzero;fill:rgb(3.898621%,48.199463%,43.099976%);fill-opacity:1;" d="M 1071.71875 167.429688 C 1099.558594 167.660156 1122.28125 190.601563 1121.851563 218.03125 C 1121.410156 245.765625 1098.5 268.191406 1070.769531 268.035156 C 1042.339844 267.871094 1019.421875 244.503906 1020.039063 216.304688 C 1020.660156 188.210938 1042.878906 167.199219 1071.71875 167.429688 "/>
<path style=" stroke:none;fill-rule:nonzero;fill:rgb(4.699707%,46.699524%,58.399963%);fill-opacity:1;" d="M 1966.050781 435.582031 C 1973.75 420.476563 1979.359375 419.433594 1997.238281 429.785156 C 1986.839844 431.71875 1976.441406 433.652344 1966.050781 435.582031 "/>
<path style=" stroke:none;fill-rule:nonzero;fill:rgb(32.899475%,28.999329%,28.199768%);fill-opacity:1;" d="M 1800.960938 1079.710938 L 1800.960938 891.800781 L 1838.898438 891.800781 L 1838.898438 965.761719 L 1913.25 965.761719 L 1913.25 891.800781 L 1951.191406 891.800781 L 1951.191406 1079.710938 L 1913.25 1079.710938 L 1913.25 997.550781 L 1838.898438 997.550781 L 1838.898438 1079.710938 L 1800.960938 1079.710938 "/>
<path style=" stroke:none;fill-rule:nonzero;fill:rgb(32.899475%,28.999329%,28.199768%);fill-opacity:1;" d="M 1990.410156 1079.710938 L 1990.410156 891.800781 L 2129.75 891.800781 L 2129.75 923.589844 L 2028.351563 923.589844 L 2028.351563 965.25 L 2122.699219 965.25 L 2122.699219 996.910156 L 2028.351563 996.910156 L 2028.351563 1048.050781 L 2133.339844 1048.050781 L 2133.339844 1079.710938 L 1990.410156 1079.710938 "/>
<path style=" stroke:none;fill-rule:nonzero;fill:rgb(32.899475%,28.999329%,28.199768%);fill-opacity:1;" d="M 2265.109375 1005.371094 L 2239.210938 935.640625 L 2213.839844 1005.371094 Z M 2334.96875 1079.710938 L 2293.691406 1079.710938 L 2277.289063 1037.03125 L 2202.171875 1037.03125 L 2186.660156 1079.710938 L 2146.410156 1079.710938 L 2219.601563 891.800781 L 2259.730469 891.800781 L 2334.96875 1079.710938 "/>
<path style=" stroke:none;fill-rule:nonzero;fill:rgb(32.899475%,28.999329%,28.199768%);fill-opacity:1;" d="M 2356.109375 1079.710938 L 2356.109375 893.339844 L 2394.058594 893.339844 L 2394.058594 1048.050781 L 2488.398438 1048.050781 L 2488.398438 1079.710938 L 2356.109375 1079.710938 "/>
<path style=" stroke:none;fill-rule:nonzero;fill:rgb(32.899475%,28.999329%,28.199768%);fill-opacity:1;" d="M 2538.261719 1079.710938 L 2538.261719 923.589844 L 2482.5 923.589844 L 2482.5 891.800781 L 2631.839844 891.800781 L 2631.839844 923.589844 L 2576.210938 923.589844 L 2576.210938 1079.710938 L 2538.261719 1079.710938 "/>
<path style=" stroke:none;fill-rule:nonzero;fill:rgb(32.899475%,28.999329%,28.199768%);fill-opacity:1;" d="M 2656.449219 1079.710938 L 2656.449219 891.800781 L 2694.390625 891.800781 L 2694.390625 965.761719 L 2768.730469 965.761719 L 2768.730469 891.800781 L 2806.671875 891.800781 L 2806.671875 1079.710938 L 2768.730469 1079.710938 L 2768.730469 997.550781 L 2694.390625 997.550781 L 2694.390625 1079.710938 L 2656.449219 1079.710938 "/>
<path style=" stroke:none;fill-rule:nonzero;fill:rgb(50.19989%,50.59967%,50.59967%);fill-opacity:1;" d="M 2702.050781 199.921875 L 2712.609375 198.890625 C 2713.25 202.441406 2714.539063 205.039063 2716.480469 206.703125 C 2718.421875 208.363281 2721.050781 209.195313 2724.351563 209.195313 C 2727.839844 209.195313 2730.480469 208.457031 2732.25 206.976563 C 2734.019531 205.496094 2734.910156 203.769531 2734.910156 201.789063 C 2734.910156 200.519531 2734.539063 199.441406 2733.789063 198.539063 C 2733.050781 197.648438 2731.738281 196.871094 2729.890625 196.210938 C 2728.609375 195.769531 2725.71875 194.988281 2721.191406 193.871094 C 2715.371094 192.421875 2711.289063 190.648438 2708.941406 188.550781 C 2705.640625 185.589844 2703.988281 181.980469 2703.988281 177.730469 C 2703.988281 174.988281 2704.769531 172.429688 2706.320313 170.050781 C 2707.871094 167.660156 2710.109375 165.851563 2713.03125 164.601563 C 2715.949219 163.351563 2719.480469 162.730469 2723.609375 162.730469 C 2730.359375 162.730469 2735.441406 164.210938 2738.851563 167.171875 C 2742.261719 170.121094 2744.050781 174.070313 2744.230469 179.011719 L 2733.371094 179.488281 C 2732.910156 176.730469 2731.910156 174.738281 2730.378906 173.53125 C 2728.851563 172.320313 2726.558594 171.710938 2723.5 171.710938 C 2720.351563 171.710938 2717.878906 172.359375 2716.101563 173.660156 C 2714.949219 174.488281 2714.371094 175.601563 2714.371094 177 C 2714.371094 178.269531 2714.910156 179.359375 2715.988281 180.261719 C 2717.359375 181.410156 2720.679688 182.609375 2725.960938 183.851563 C 2731.238281 185.101563 2735.148438 186.390625 2737.679688 187.71875 C 2740.210938 189.058594 2742.191406 190.878906 2743.621094 193.191406 C 2745.050781 195.5 2745.769531 198.351563 2745.769531 201.75 C 2745.769531 204.828125 2744.910156 207.71875 2743.199219 210.40625 C 2741.488281 213.097656 2739.070313 215.09375 2735.941406 216.402344 C 2732.808594 217.710938 2728.910156 218.363281 2724.238281 218.363281 C 2717.441406 218.363281 2712.21875 216.792969 2708.578125 213.652344 C 2704.929688 210.511719 2702.761719 205.933594 2702.050781 199.921875 "/>
<path style=" stroke:none;fill-rule:nonzero;fill:rgb(50.19989%,50.59967%,50.59967%);fill-opacity:1;" d="M 2754.75 217.410156 L 2754.75 163.648438 L 2771 163.648438 L 2780.75 200.320313 L 2790.398438 163.648438 L 2806.679688 163.648438 L 2806.679688 217.410156 L 2796.601563 217.410156 L 2796.601563 175.089844 L 2785.921875 217.410156 L 2775.46875 217.410156 L 2764.839844 175.089844 L 2764.839844 217.410156 L 2754.75 217.410156 "/>
</g>
</svg>
