<?xml version="1.0" encoding="utf-8"?>
<!-- Generator: Adobe Illustrator 19.2.1, SVG Export Plug-In . SVG Version: 6.00 Build 0)  -->
<svg version="1.1" id="layer" xmlns="http://www.w3.org/2000/svg" xmlns:xlink="http://www.w3.org/1999/xlink" x="0px" y="0px"
	 viewBox="0 0 652 652" style="enable-background:new 0 0 652 652;" xml:space="preserve">
<style type="text/css">
	.st0{fill:#007CC6;}
	.st1{fill:#EF8200;}
	.st2{fill:#31AC28;}
</style>
<g>
	<path class="st0" d="M81.9,310.8c5.3,0,39.9,15.2,39.9,70c0,26.2-8.8,48-14,48c-2.3,0-3.2-2.3-3.2-6.7c0-9.7,3.4-18.3,3.4-39
		c0-39.9-16.4-56.1-23.8-65.1c-2.2-2.7-3.8-4.4-3.8-6C80.4,311.4,80.8,310.8,81.9,310.8 M169,312.1c0,1.6-1.6,3.3-3.8,6
		c-7.4,9.1-23.8,25.2-23.8,65.1c0,20.7,3.4,29.3,3.4,39c0,4.4-0.9,6.7-3.2,6.7c-5.2,0-14-21.8-14-48c0-54.8,34.6-70,39.9-70
		C168.5,310.8,169,311.4,169,312.1"/>
	<path class="st1" d="M112.1,321.8c0,7.1,5.7,12.9,12.6,12.9c7,0,12.6-5.8,12.6-12.9c0-7.2-5.7-12.9-12.6-12.9
		C117.7,308.8,112.1,314.6,112.1,321.8"/>
	<path class="st2" d="M59.1,301.3c-6.6-3-11.5-9-12.3-14.8c4.9-3.2,12.6-3.5,19.2-0.5c6.9,3.1,8.5,8.4,8.6,13.1
		C71.1,302.2,66,304.4,59.1,301.3 M78,266.5c-4.2-6.5-5.2-14.8-2.6-20.5c6.3-0.1,13.4,4.2,17.7,10.7c4.4,6.8,2.8,12.5,0.2,16.8
		C88.3,274.1,82.5,273.3,78,266.5 M87.9,301c-5.2-4.4-8.2-11.2-7.4-16.7c5.3-1.7,12.4,0.1,17.6,4.6c5.5,4.7,5.6,9.9,4.4,14.1
		C98.5,304.9,93.4,305.6,87.9,301 M103.9,284.3c-2.3-7.3-1-15.3,3-20c6,1.6,11.5,7.6,13.8,14.8c2.4,7.6-0.7,12.6-4.3,15.8
		C111.5,294.3,106.2,291.9,103.9,284.3 M76.3,337.5c-5.2,1-10.7-0.5-13.7-3.6c1.6-4,6.1-7.5,11.3-8.5c5.5-1.1,8.7,1.4,10.7,4.2
		C83.8,332.9,81.8,336.4,76.3,337.5 M62.5,322c-5.9-0.6-11.3-4.1-13.5-8.4c3-3.8,9-6,15-5.3c6.2,0.7,8.9,4.4,10.1,8
		C72.1,319.6,68.8,322.7,62.5,322 M62,277.9c-4.7-4-7.3-9.9-6.6-14.8c4.7-1.5,11,0.1,15.7,4.1c4.9,4.1,5,8.8,3.9,12.6
		C71.5,281.4,66.9,282.1,62,277.9 M93.8,246.6c-1.9-6.1-0.8-12.8,2.5-16.7c5,1.3,9.6,6.3,11.5,12.4c2,6.4-0.6,10.5-3.6,13.2
		C100.1,254.9,95.7,252.9,93.8,246.6 M15.7,404c0,0.2,0.1,0.3,0.3,0.3c0.2,0,0.5-0.2,0.9-0.3c18.6-6.7,46.2-14.9,84.8-17.4
		c0-0.3,0.3-2.1,0.3-3.4c0-2.8-0.3-5.7-0.4-6.2c-39.6,3.6-66.9,15.1-84.9,26.1C16.1,403.6,15.7,403.7,15.7,404 M174.8,299.1
		c0-4.6,1.7-9.9,8.6-13.1c6.6-3,14.3-2.7,19.2,0.5c-0.8,5.8-5.7,11.8-12.3,14.8C183.3,304.4,178.3,302.2,174.8,299.1 M156.1,273.4
		c-2.7-4.2-4.3-9.9,0.2-16.8c4.2-6.5,11.4-10.8,17.7-10.7c2.6,5.7,1.6,14-2.6,20.5C166.9,273.3,161,274.1,156.1,273.4 M146.8,303
		c-1.2-4.2-1.1-9.5,4.4-14.1c5.2-4.4,12.3-6.2,17.6-4.6c0.8,5.5-2.2,12.2-7.4,16.7C156,305.6,150.8,304.9,146.8,303 M133,295
		c-3.6-3.3-6.7-8.2-4.3-15.8c2.3-7.3,7.8-13.2,13.8-14.8c4,4.7,5.3,12.7,3,20C143.1,291.9,137.8,294.3,133,295 M164.7,329.6
		c2-2.8,5.2-5.2,10.7-4.2c5.2,1,9.8,4.5,11.3,8.5c-2.9,3.1-8.4,4.6-13.7,3.6C167.6,336.4,165.5,332.9,164.7,329.6 M175.3,316.3
		c1.2-3.6,3.9-7.4,10.1-8c5.9-0.6,12,1.5,15,5.3c-2.1,4.3-7.5,7.8-13.5,8.4C180.6,322.7,177.2,319.6,175.3,316.3 M174.3,279.7
		c-1-3.8-1-8.4,3.9-12.6c4.7-3.9,11-5.5,15.7-4.1c0.7,4.9-1.9,10.9-6.6,14.8C182.5,282.1,177.9,281.4,174.3,279.7 M145.2,255.5
		c-3-2.7-5.6-6.9-3.6-13.2c1.9-6.1,6.5-11,11.5-12.4c3.3,3.9,4.4,10.6,2.5,16.7C153.6,252.9,149.2,254.9,145.2,255.5 M232.6,403.1
		c-18-11-45.3-22.5-84.9-26.1c-0.1,0.5-0.4,3.4-0.4,6.2c0,1.3,0.2,3,0.3,3.4c38.6,2.5,66.2,10.7,84.8,17.4c0.4,0.1,0.7,0.3,0.9,0.3
		c0.2,0,0.3-0.1,0.3-0.3C233.6,403.7,233.3,403.6,232.6,403.1 M124.7,261.8c-5.1-2.4-10.2-6.8-10.2-16c0-8.8,4.2-17.3,10.2-21.1
		c6,3.8,10.2,12.3,10.2,21.1C134.9,255,129.8,259.5,124.7,261.8"/>
	<path class="st0" d="M334.7,284.6c0,5.9,4.9,10.6,10.9,10.6c6,0,10.8-4.8,10.8-10.6c0-5.9-4.9-10.6-10.8-10.6
		C339.6,274,334.7,278.8,334.7,284.6 M419.4,340.7c0,16.8-6.6,23.8-16.1,23.8c-9.6,0-15-8.1-15-22.4c0-14.6,8.3-26.6,23.8-26.6
		c3.2,0,5.4,0.3,7.3,0.8V340.7z M420.3,368.3v5.5c0,15-9.2,20.8-20.7,20.8c-10.3,0-17.9-3.1-20.3-3.9v14.8c2,0.5,10.3,3.2,22.2,3.2
		c21.2,0,35.3-8.7,35.3-38.7v-64.6c-2.7-0.7-12.7-3.3-24.1-3.3c-29.7,0-42.5,19.9-42.5,41.4c0,19.8,10,35.3,29,35.3
		c12.6,0,18.6-7.6,20.6-10.4H420.3z M319.3,359.1c-4.8,2.2-12.4,3.7-19.8,3.7c-20.1,0-35-14.4-35-36.4c0-21.8,14.7-36.4,35-36.4
		c10,0,17.2,2.4,19.8,3.7v-15.7c-4.4-1.6-11.5-3.3-21.6-3.3c-31.3,0-52.3,21.6-52.3,51.6c0,28.4,19.3,51.6,52.3,51.6
		c9.6,0,16.9-1.5,21.6-3.3V359.1z M584.5,340.7c0,16.8-6.6,23.8-16.1,23.8c-9.6,0-15-8.1-15-22.4c0-14.6,8.4-26.6,23.8-26.6
		c3.1,0,5.4,0.3,7.3,0.8V340.7z M604.2,377c-0.6-4.1-2.2-14.9-2.2-24.2v-47.6c-2.7-0.7-12.7-3.3-24.1-3.3
		c-29.7,0-42.5,19.9-42.5,41.4c0,19.8,9.9,35.3,29,35.3c13.9,0,20.2-9,22.6-13.8h0.4c0.2,2.3,0.8,10,1,12.2H604.2z M354.3,303.8
		h-17.5V377h17.5V303.8z M456.7,377v-50.7c0-6.8-0.6-19.8-0.8-22.8h15.7l0.8,10.3h0.3c1.8-2.9,7.7-12,21.5-12
		c16.6,0,25.8,12.2,25.8,27.4V377h-17.5v-44.3c0-9.3-5.2-16.4-14.1-16.4c-9.2,0-14.1,7.4-14.1,16.4V377H456.7z"/>
	<path class="st0" d="M631.5,363.6c-0.5-0.3-1.2-0.4-2.3-0.4h-1.6v3.9h1.7c0.8,0,1.4-0.1,1.8-0.2c0.7-0.3,1.1-0.8,1.1-1.7
		C632.2,364.4,631.9,363.9,631.5,363.6 M629.4,361.9c1.3,0,2.3,0.1,2.9,0.4c1.1,0.5,1.7,1.4,1.7,2.7c0,1-0.4,1.7-1,2.1
		c-0.4,0.2-0.9,0.4-1.5,0.5c0.8,0.1,1.5,0.5,1.8,1c0.4,0.6,0.6,1.1,0.6,1.7v0.8c0,0.2,0,0.5,0,0.8c0,0.3,0,0.5,0.1,0.6l0.1,0.1h-1.8
		c0,0,0-0.1,0-0.1c0,0,0-0.1,0-0.1l0-0.3v-0.8c0-1.2-0.3-2.1-1-2.4c-0.4-0.2-1.1-0.3-2.1-0.3h-1.5v4.2h-1.9v-10.7H629.4z
		 M623.7,361.4c-1.6,1.6-2.4,3.6-2.4,5.9c0,2.3,0.8,4.3,2.4,6c1.6,1.6,3.6,2.5,5.9,2.5c2.3,0,4.3-0.8,5.9-2.5c1.6-1.6,2.4-3.6,2.4-6
		c0-2.3-0.8-4.3-2.4-5.9c-1.6-1.6-3.6-2.5-5.9-2.5C627.3,358.9,625.3,359.7,623.7,361.4 M636.5,374.2c-1.9,1.9-4.2,2.9-6.9,2.9
		c-2.7,0-5-1-6.9-2.9c-1.9-1.9-2.8-4.2-2.8-6.9c0-2.7,1-5,2.9-6.9c1.9-1.9,4.2-2.8,6.9-2.8c2.7,0,5,1,6.9,2.8
		c1.9,1.9,2.9,4.2,2.9,6.9C639.4,370,638.4,372.3,636.5,374.2"/>
</g>
</svg>
