<svg id="Layer_1" data-name="Layer 1" xmlns="http://www.w3.org/2000/svg" viewBox="0 0 467 83.19"><defs><style>.cls-1{fill:#3a3a3a;}.cls-2{fill:none;stroke:#3a3a3a;stroke-miterlimit:10;stroke-width:0.42px;}.cls-3{fill:#80c342;}.cls-4{fill:#008749;}.cls-5{fill:#1997c3;}</style></defs><polygon class="cls-1" points="156.29 26.34 167.47 26.34 167.47 80.69 159.25 80.69 159.25 35.39 159.1 35.39 137.49 80.69 130.42 80.69 109.17 36.23 109.01 36.23 109.01 80.69 101.6 80.69 101.6 26.34 112.94 26.34 134.5 71.41 156.29 26.34"/><path class="cls-1" d="M227.08,122.86h-7.41v-6.58h-.16c-3.62,5.54-10,7.36-15.81,7.36-9.73,0-17-4.08-17-14V82.5H195v25.8c0,5.9,3.61,9.26,11.7,9.26,6.87,0,13-4.06,13-11.94V82.5h7.41v40.36Z" transform="translate(-11 -42.17)"/><path class="cls-2" d="M226.66,122.45h-7.41v-5.78h-.16c-3.61,5.54-10,7.36-15.81,7.36-9.72,0-17-4.08-17-14V82.92h8.24v25.8c0,5.9,3.62,9.25,11.71,9.25,6.86,0,13-4,13-11.93V82.11h7.41v40.34Z" transform="translate(-11 -42.17)"/><polygon class="cls-1" points="227.6 25.51 235.01 25.51 235.01 80.69 227.6 80.69 227.6 25.51"/><polygon class="cls-2" points="228.01 25.12 235.42 25.12 235.42 80.28 228.01 80.28 228.01 25.12"/><path class="cls-1" d="M261.66,70.15h7.41V82.5H280.6v5.78H269.07v23.87c0,3.09,2.32,4.21,6.25,4.21a32.92,32.92,0,0,0,5.3-.52v7.57a51,51,0,0,1-8.48.52c-7.43,0-10.45-3.64-10.45-9.39V88.28h-8.24V82.5h8.24V70.15Z" transform="translate(-11 -42.17)"/><path class="cls-2" d="M261.25,70.57h8.24V82.92H281v5.77H269.49v23.87c0,3.1,2.32,4.22,6.24,4.22a34.1,34.1,0,0,0,5.31-.52v7.33a52,52,0,0,1-8.84.55c-7.75,0-10.93-3.8-10.93-9.81V88.69H253V82.92h8.24V70.57Z" transform="translate(-11 -42.17)"/><path class="cls-1" d="M288.81,82.5h7.41v40.36h-7.41V82.5Zm0-14.82h7.41v8.24h-7.41V67.68Z" transform="translate(-11 -42.17)"/><path class="cls-2" d="M288.42,82.11h7.41v40.36h-7.41V82.11Zm0-14.82h7.41v8.24h-7.41V67.29Z" transform="translate(-11 -42.17)"/><path class="cls-1" d="M311.05,95.69H335.6c6.71,0,13.83-2.63,13.83-12.36C349.43,71,339.55,71,334.76,71H311.07V95.69Zm-3.28-28h28.14c7.62,0,16.51,2.65,16.51,15.08,0,9.13-5.17,15.4-17.06,15.4H311.07v24.7h-3.3V67.68Z" transform="translate(-11 -42.17)"/><polygon class="cls-1" points="350.29 26.34 353.59 26.34 353.59 80.69 350.29 80.69 350.29 26.34"/><path class="cls-1" d="M408.23,100.63h-.16c-.83.91-2.91,1.84-6.29,2.05l-13.24.91c-6.58.47-11.26,2.29-11.26,8.19,0,8,8,8.87,12.77,8.87,7.8,0,18.13-3.51,18.13-12.84v-7.18ZM377,95.69c1.25-9.7,6.06-13.08,17.37-13.08,10.87,0,17.14,2.62,17.14,11.26v21.56c0,2.86,0,4.57,2.5,4.57a10.19,10.19,0,0,0,3.27-.6v3a12.38,12.38,0,0,1-4.08.6c-4.6,0-4.6-3.3-4.6-8.43h-.16c-4.16,7.88-12.92,8.87-17.81,8.87-3.2,0-15.32,0-15.32-11.73,0-7.88,6.5-10.61,14.07-11l13.06-.91c3.87-.29,5.69-.75,5.69-5.49,0-5.17-2.83-8.71-13.86-8.71-9.86,0-12.93,3.15-13.94,10.07H377Z" transform="translate(-11 -42.17)"/><path class="cls-1" d="M423.88,83.33h3.31v8.25h.15c2.45-4.66,7.54-9,16.49-9,17.94,0,17.94,11.44,17.94,16.18v24.1h-3.3v-24c0-8-3-13.31-14.61-13.31s-16.7,7.2-16.7,14.46v22.88h-3.3V83.33Z" transform="translate(-11 -42.17)"/><path class="cls-1" d="M471.63,117.92h.73c.8,0,1.51-.28,1.51-1.06,0-.55-.39-1.1-1.51-1.1a4.25,4.25,0,0,0-.73.06v2.1Zm0,3.3H470V115a12.05,12.05,0,0,1,1.9-.16,3.82,3.82,0,0,1,2.08.47,1.39,1.39,0,0,1,.62,1.27,1.6,1.6,0,0,1-1.32,1.51v.42s1.19.59,1.3,1.5.28,1.33.39,1.17h-1c-.16.16-.29-.39-.42-1.22a1.42,1.42,0,0,0-1.33-1.25h-.57v2.47Zm.91-7.41a4.7,4.7,0,0,0,0,9.39,4.49,4.49,0,0,0,4.42-4.68,4.57,4.57,0,0,0-4.42-4.71Zm0-.83a5.55,5.55,0,0,1,0,11.1,5.55,5.55,0,0,1,0-11.1Z" transform="translate(-11 -42.17)"/><path class="cls-3" d="M33.44,76.29a10.42,10.42,0,1,0,0-14.75,10.44,10.44,0,0,0,0,14.75" transform="translate(-11 -42.17)"/><path class="cls-3" d="M72.24,85.68l-8-8a9.77,9.77,0,0,0-6.79-3,6.32,6.32,0,0,0-4.55,1.77l-5.46,5.46c-2.79,2.78-2.24,7.88,1.22,11.34l23.64,23.64c0-.19,0-.37,0-.58V85.68Z" transform="translate(-11 -42.17)"/><path class="cls-4" d="M75.75,52.57a10.43,10.43,0,1,0,10.43-10.4,10.43,10.43,0,0,0-10.43,10.4" transform="translate(-11 -42.17)"/><path class="cls-4" d="M89.54,66.87h-7.6c-4,0-7.23,4-7.23,8.85v40.75c0,4.88,3.25,8.86,7.23,8.86h7.8c4,0,7.21-4,7.21-8.86V75.72c0-4.89-3.23-8.85-7.21-8.85" transform="translate(-11 -42.17)"/><path class="cls-5" d="M21.4,103.25a10.42,10.42,0,1,0,10.43,10.43A10.4,10.4,0,0,0,21.4,103.25" transform="translate(-11 -42.17)"/><path class="cls-5" d="M44.16,103.1c-4.94,0-9,3.22-9,7.23v7.8c0,4,4,7.23,9,7.23H76.45A11.24,11.24,0,0,1,73.52,121L55.65,103.12H44.16Z" transform="translate(-11 -42.17)"/></svg>