<?xml version="1.0" encoding="utf-8"?>
<!-- Generator: Adobe Illustrator 19.2.1, SVG Export Plug-In . SVG Version: 6.00 Build 0)  -->
<svg version="1.1" id="layer" xmlns="http://www.w3.org/2000/svg" xmlns:xlink="http://www.w3.org/1999/xlink" x="0px" y="0px"
	 viewBox="0 0 652 652" style="enable-background:new 0 0 652 652;" xml:space="preserve">
<style type="text/css">
	.st0{fill:#060E9F;}
	.st1{fill:#778692;}
</style>
<g>
	<path class="st0" d="M99,316.3h20.3v2.7c-5.5,0.3-6,1.3-6,5.7v36.5c0,7.9,4.5,11.9,10.8,11.9c7.2,0,11.6-4.6,11.6-12.1v-35.5
		c0-4.4-1.3-6.3-6.5-6.6v-2.7h16.2v2.7c-5.2,0.3-6.5,2.2-6.5,6.6v33.6c0,10.5-4.6,16.7-16.4,16.7c-11.9,0-17.4-6.4-17.4-17v-34.1
		c0-4.4-0.5-5.4-6-5.7V316.3z"/>
	<path class="st0" d="M144.2,374.5v-2.7c4.1-0.2,5.4-1.7,5.4-4.2v-26.5c0-3.7-1-4.3-5.6-4.4V334l12.4-0.6v8.2h0.2
		c2.3-4.7,5.6-8.7,11.4-8.7c7,0,10.3,4.6,10.3,12v22.5c0,2.9,1.2,4.1,5.2,4.2v2.7H171v-30.2c0-5.6-2.1-7.5-5-7.5
		c-4.5,0-9.1,5.9-9.1,14.2v16.4c0,2.5,1.4,4.1,5.4,4.2v2.7H144.2z"/>
	<path class="st0" d="M185.4,374.5v-2.7c4.1-0.2,5.4-1.7,5.4-4.2v-27c0-3.6-1-4.2-5.4-4.4v-2.7l12.7-0.5v34.6c0,2.5,1.4,4.1,5.4,4.2
		v2.7H185.4z M198.1,320.9c0,3.2-1.8,5.4-4.3,5.4c-2.5,0-4.3-2.2-4.3-5.4c0-3.2,1.8-5.4,4.3-5.4
		C196.4,315.5,198.1,317.7,198.1,320.9"/>
	<path class="st0" d="M216.6,318.4V334h10.2v3.2h-10.2v29.9c0,3.7,1.3,5.3,3.6,5.3c2.8,0,4.9-1.8,4.9-10.8v-2.4h2.7v4
		c0,8.6-3.1,12.4-9.5,12.4c-5.6,0-9-3.5-9-10.3v-28h-5.3v-2.5c6.1-2.5,9.3-5.4,9.8-16.3H216.6z"/>
	<path class="st0" d="M239.2,350.8c0-10.9,3.2-15.1,8-15.1c4.5,0,7,4.2,7,15.1H239.2z M262.6,354c0-12.2-5.9-21-15.3-21
		c-9.6,0-16.3,8.8-16.3,21.2c0,10.6,7,21.3,17.4,21.3c9.5,0,13.6-7.4,14.4-14.9l-2.7-0.5c-0.8,5.8-3.5,12.2-10.8,12.2
		c-5.7,0-10-6.5-10-18.3H262.6z"/>
	<path class="st0" d="M275.1,354.5c0-13.1,3-18.3,7.7-18.3c5.2,0,8.3,6.3,8.3,18.3c0,14.6-4.5,18.3-9,18.3
		C277.9,372.8,275.1,367.6,275.1,354.5 M285.6,319c4.4,0.2,5.5,0.8,5.5,4.4v15.2l-0.2,0.1c-1.7-3.3-4.6-5.7-8.5-5.7
		c-8.9,0-15.6,9.1-15.6,21.4c0,13.3,7,21.1,14.6,21.1c5.2,0,8-3,9.8-7h0.2v6l11.9-0.5v-2.7c-3.4,0.1-4.9-1.3-4.9-5.9v-49.7
		l-12.8,0.5V319z"/>
	<path class="st0" d="M305.4,374.5v-2.7c5.1-0.3,5.9-1.4,5.9-5.8v-41.3c0-4.4-0.9-5.4-5.9-5.7v-2.7h20.5v2.7
		c-5.2,0.3-6.3,1.3-6.3,5.7v17.6h18.3v-17.6c0-4.4-1-5.4-6.3-5.7v-2.7h20.5v2.7c-5.1,0.3-5.9,1.3-5.9,5.7V366c0,4.4,0.9,5.4,5.9,5.8
		v2.7h-20.5v-2.7c5.2-0.3,6.3-1.4,6.3-5.8v-20.5h-18.3V366c0,4.4,1,5.4,6.3,5.8v2.7H305.4z"/>
	<path class="st0" d="M361.7,350.8c0-10.9,3.2-15.1,8-15.1c4.5,0,7,4.2,7,15.1H361.7z M385.1,354c0-12.2-5.9-21-15.3-21
		c-9.6,0-16.4,8.8-16.4,21.2c0,10.6,6.9,21.3,17.5,21.3c9.5,0,13.6-7.4,14.4-14.9l-2.7-0.5c-0.8,5.8-3.5,12.2-10.8,12.2
		c-5.7,0-10-6.5-10-18.3H385.1z"/>
	<path class="st0" d="M406.9,357.7c0,9.6-3.9,14.7-8.2,14.7c-2.6,0-4.7-2.2-4.7-6.7c0-7.2,6.1-10.4,12.9-12.8V357.7z M418.4,362.8
		c-0.2,6.1-0.8,8-2.5,8c-1.2,0-1.8-1.1-1.8-3.6v-23.6c0-6.3-3.6-10.7-13.1-10.7c-7.4,0-12.8,4.6-12.8,10.3c0,3.4,1.7,5.1,4.1,5.1
		s4.2-1.9,4.2-4.9c0-2.5-0.8-4.5-3.6-4.7c1.8-2.1,4.2-3.1,7.2-3.1c4.5,0,6.7,2.1,6.7,7v6.9c-7.3,2.7-20.6,6.7-20.6,16.4
		c0,5.6,3.8,9.6,10.3,9.6c5.9,0,8.5-2.8,10.5-6.6h0.2c0.5,4.6,2.8,6.6,6.9,6.6c5.2,0,7-3.8,7-12.7L418.4,362.8z"/>
	<path class="st0" d="M420,374.5v-2.7c4.1-0.2,5.4-1.7,5.4-4.2v-44.1c0-2.9-1.4-4.4-5.6-4.6v-2.7l12.9-0.5v51.8
		c0,2.5,1.4,4.1,5.4,4.2v2.7H420z"/>
	<path class="st0" d="M450.4,318.4V334h10.2v3.2h-10.2v29.9c0,3.7,1.3,5.3,3.6,5.3c2.8,0,4.9-1.8,4.9-10.8v-2.4h2.7v4
		c0,8.6-3.1,12.4-9.5,12.4c-5.6,0-9-3.5-9-10.3v-28h-5.3v-2.5c6.1-2.5,9.3-5.4,9.8-16.3H450.4z"/>
	<path class="st0" d="M461.3,374.5v-2.7c4.1-0.2,5.4-1.7,5.4-4.2v-44.2c0-3.6-1-4.2-5.6-4.4v-2.6l12.9-0.5v24.9h0.2
		c1.7-3.7,4.9-7.6,10.6-7.6c6.5,0,10.6,4.6,10.6,12v22.5c0,2.5,1.4,4.1,5.3,4.2v2.7h-12.5v-29.7c0-5.9-2.1-7.9-5.2-7.9
		c-4.2,0-8.9,5.6-8.9,13.7v16.9c0,2.5,1.4,4.1,5.4,4.2v2.7H461.3z"/>
	<path class="st0" d="M532.1,360.5c-0.8,8-4.5,15.2-13.8,15.2c-8.6,0-16.5-7.7-16.5-20.2c0-10.6,7.3-22.5,17.6-22.5
		c7.2,0,11.8,4.5,11.8,11.1c0,4.1-1.3,6.3-4.3,6.3c-2.4,0-4-2-4-5.1c0-3.6,1.3-5.1,3.5-5.1c0.6,0,0.9,0.3,1.3,0.3l0.2-0.2
		c-1.3-3.1-4-4.7-7.1-4.7c-6.3,0-10.6,6.4-10.6,18.4c0,14.3,4.4,18.4,9.4,18.4c6.9,0,9.1-6.3,10-12.3L532.1,360.5z"/>
	<path class="st0" d="M555.8,357.7c0,9.6-3.9,14.8-8.3,14.8c-2.7,0-4.7-2.2-4.7-6.7c0-7.3,6.1-10.5,13-12.9V357.7z M567.3,363
		c-0.2,6.2-0.8,8.1-2.5,8.1c-1.2,0-1.8-1.1-1.8-3.6v-23.8c0-6.4-3.6-10.7-13.2-10.7c-7.4,0-12.8,4.6-12.8,10.4
		c0,3.4,1.7,5.1,4.1,5.1c2.4,0,4.2-1.9,4.2-5c0-2.5-0.8-4.5-3.5-4.8c1.8-2.1,4.2-3.1,7.2-3.1c4.5,0,6.8,2.1,6.8,7v7
		c-7.3,2.7-20.8,6.7-20.8,16.4c0,5.6,3.8,9.6,10.4,9.6c6,0,8.5-2.8,10.6-6.7h0.2c0.5,4.6,2.8,6.7,6.9,6.7c5.2,0,7-3.8,7-12.8
		L567.3,363z"/>
	<path class="st0" d="M571,374.6v-2.7c3.6-0.2,4.9-1.7,4.9-4.3v-23.2c0-5.8-1-7.7-5.3-7.8v-2.7l11.7-0.5v9.8h0.2
		c1.1-4.4,4.1-10.3,9.2-10.3c3.1,0,6.2,2.6,6.2,7.4c0,3.7-1.8,5.5-4,5.5c-1.9,0-3.8-1.2-3.8-5c0-2.1,1.2-4.2,3.6-4.2
		c-0.4-0.7-1.3-1-2.2-1c-5.7,0.1-8.3,12.6-8.3,20v12.1c0,2.6,1.3,4.1,7.1,4.3v2.7H571z"/>
	<path class="st0" d="M606.2,350.9c0-11,3.2-15.3,8.1-15.3c4.5,0,7.1,4.3,7.1,15.3H606.2z M629.6,354.1c0-12.4-5.9-21.2-15.3-21.2
		c-9.6,0-16.3,8.9-16.3,21.5c0,10.6,6.9,21.3,17.5,21.3c9.5,0,13.6-7.4,14.4-14.9l-2.7-0.5c-0.8,5.8-3.5,12.2-10.9,12.2
		c-5.7,0-10-6.4-10-18.3H629.6z"/>
	<path class="st0" d="M632.7,323.8c3,0,5.4,2.4,5.4,5.4c0,3-2.4,5.4-5.4,5.4c-3,0-5.4-2.4-5.4-5.4
		C627.3,326.2,629.7,323.8,632.7,323.8 M632.7,322.9c-3.5,0-6.4,2.8-6.4,6.3c0,3.5,2.8,6.4,6.4,6.4c3.5,0,6.3-2.8,6.3-6.4
		C639,325.7,636.1,322.9,632.7,322.9 M631.5,329.6h1.2c0.3,0,1,0,1.1,0.8c0.1,1,0,1.9,0.3,2.4h1.2c-0.2-0.5-0.3-1.6-0.3-1.9
		c0-1.5-0.4-1.8-1.3-1.8v0c0.9-0.2,1.6-0.8,1.6-1.7c0-0.9-0.6-1.8-2-1.8h-2.9v7.3h1.2V329.6z M631.5,326.4h1.5
		c0.8,0,1.1,0.6,1.1,1.1c0,0.6-0.3,1.2-1.1,1.2h-1.5V326.4z"/>
	<path class="st0" d="M25.3,374.5L25.3,374.5h0.1c0.1,0,0.1,0,0.1,0c0.1,0,0.1,0,0.2,0c0.1,0,0.1,0,0.1,0c0.1,0,0.1,0,0.2,0
		c0.1,0,0.1,0,0.2,0c0,0,0.1,0,0.1,0c0.1,0,0.1,0,0.2,0c0,0,0.1,0,0.1,0c0.1,0,0.2,0,0.2,0c0,0,0.1,0,0.1,0c0.1,0,0.2,0,0.2,0
		c0.1,0,0.1,0,0.1,0c0.1,0,0.2,0,0.3-0.1c0,0,0.1,0,0.1,0c0.1,0,0.2,0,0.3-0.1c0,0,0.1,0,0.1-0.1c0.1,0,0.2-0.1,0.3-0.1
		c0,0,0.1,0,0.1-0.1c0.1,0,0.2-0.1,0.3-0.1c0.1,0,0.1,0,0.1-0.1c0.1,0,0.2-0.1,0.3-0.1c0,0,0.1,0,0.1-0.1c0.1-0.1,0.2-0.1,0.3-0.2
		c0,0,0.1,0,0.1-0.1c0.1,0,0.2-0.1,0.3-0.2c0,0,0.1-0.1,0.1-0.1c0.1-0.1,0.2-0.1,0.3-0.2c0,0,0.1-0.1,0.1-0.1
		c0.1-0.1,0.2-0.1,0.3-0.2c0,0,0.1-0.1,0.2-0.1c0.1-0.1,0.2-0.2,0.3-0.3c0.1,0,0.1-0.1,0.1-0.1c0.1-0.1,0.2-0.2,0.3-0.3
		c0.1-0.1,0.1-0.1,0.2-0.2c0.1-0.1,0.2-0.2,0.3-0.3c0.1-0.1,0.1-0.1,0.2-0.2c0.1-0.1,0.2-0.2,0.3-0.3c0.1-0.1,0.1-0.1,0.2-0.2
		c0.1-0.1,0.2-0.2,0.3-0.3c0.1-0.1,0.1-0.1,0.2-0.2c0.1-0.1,0.2-0.2,0.3-0.4c0.1-0.1,0.1-0.2,0.2-0.2c0.1-0.1,0.2-0.3,0.3-0.4
		c0.1-0.1,0.1-0.2,0.2-0.3c0.1-0.1,0.2-0.3,0.3-0.4c0.1-0.1,0.1-0.2,0.2-0.3c0.1-0.1,0.2-0.3,0.3-0.4c0.1-0.1,0.1-0.2,0.2-0.3
		c0.1-0.2,0.2-0.3,0.3-0.5c0.1-0.1,0.1-0.2,0.2-0.4c0.1-0.2,0.2-0.3,0.3-0.5c0.1-0.1,0.1-0.3,0.2-0.4c0.1-0.2,0.2-0.3,0.2-0.5
		c0.1-0.2,0.1-0.3,0.2-0.5c0.1-0.2,0.1-0.3,0.2-0.5c0.1-0.2,0.1-0.3,0.2-0.5c0.1-0.2,0.1-0.4,0.2-0.5c0.1-0.2,0.1-0.3,0.2-0.5
		c0.1-0.2,0.2-0.4,0.2-0.6c0.1-0.2,0.2-0.5,0.2-0.7c0-0.2,0.1-0.3,0.1-0.4c0.1-0.4,0.2-0.8,0.4-1.2c1.7-6.1,2.1-18.4,2.1-26.5v-52.2
		l-25.5,13.6v53.8c0,20.5,3.7,25.4,8.3,26.3c0,0,0,0-0.1,0L25.3,374.5z"/>
	<path class="st1" d="M31.7,380.1c10.1-1.3,15.9-12.5,17.3-18c2.2-7.6,2.7-17,2.7-27.6v-59.5l-10.8,5.8l5.7,1.3v47.7
		c0,12.3-0.3,23.1-2.3,30.2c-2.8,10.1-7.9,14.2-11.5,15.5l-9.1-1c0,0,0,0-0.1,0c1,2.9,3.2,5.1,5.8,5.5L31.7,380.1z"/>
	<path class="st1" d="M29.4,379.9c0.9,2.4,3.2,4.6,5.7,5.1l2.3,0.2c10.5-0.1,17.4-10.3,19.8-15.7c3.6-8,5.3-19.3,5.3-35.5v-64.9
		l-10.9,5.9l5.8,1.3v55.4c0,13.8-0.6,25.6-3.9,34.3c-2.9,7.5-8.2,13.4-14.7,15l-7.1-0.8L29.4,379.9z"/>
	<path class="st1" d="M62.5,269.1l5.9,1.3v61.2c0,18.8-1.9,31.6-6.1,40.3c-3.9,8.1-10.5,13.3-16.8,14.4l-8.1-1l-2.3-0.2
		c2,3.3,5.4,5,9.1,5.2c5.1,0.2,9.2-2,13.1-4.6c12.4-8.6,16.3-27.7,16.3-53.6v-69L62.5,269.1z"/>
</g>
</svg>
